%TF.GenerationSoftware,KiCad,Pcbnew,(5.1.6)-1*%
%TF.CreationDate,2022-02-08T04:05:35+01:00*%
%TF.ProjectId,Thermostat,54686572-6d6f-4737-9461-742e6b696361,rev?*%
%TF.SameCoordinates,Original*%
%TF.FileFunction,Copper,L1,Top*%
%TF.FilePolarity,Positive*%
%FSLAX46Y46*%
G04 Gerber Fmt 4.6, Leading zero omitted, Abs format (unit mm)*
G04 Created by KiCad (PCBNEW (5.1.6)-1) date 2022-02-08 04:05:35*
%MOMM*%
%LPD*%
G01*
G04 APERTURE LIST*
%TA.AperFunction,SMDPad,CuDef*%
%ADD10R,1.000000X0.750000*%
%TD*%
%TA.AperFunction,ComponentPad*%
%ADD11C,1.300000*%
%TD*%
%TA.AperFunction,ComponentPad*%
%ADD12C,1.950000*%
%TD*%
%TA.AperFunction,ComponentPad*%
%ADD13O,1.350000X1.350000*%
%TD*%
%TA.AperFunction,ComponentPad*%
%ADD14R,1.350000X1.350000*%
%TD*%
%TA.AperFunction,SMDPad,CuDef*%
%ADD15R,1.900000X0.700000*%
%TD*%
%TA.AperFunction,ComponentPad*%
%ADD16O,1.700000X1.700000*%
%TD*%
%TA.AperFunction,ComponentPad*%
%ADD17R,1.700000X1.700000*%
%TD*%
%TA.AperFunction,ComponentPad*%
%ADD18C,1.524000*%
%TD*%
%TA.AperFunction,ComponentPad*%
%ADD19R,2.000000X2.000000*%
%TD*%
%TA.AperFunction,ComponentPad*%
%ADD20C,2.000000*%
%TD*%
%TA.AperFunction,ComponentPad*%
%ADD21R,3.200000X2.000000*%
%TD*%
%TA.AperFunction,SMDPad,CuDef*%
%ADD22R,2.000000X0.900000*%
%TD*%
%TA.AperFunction,SMDPad,CuDef*%
%ADD23R,0.900000X2.000000*%
%TD*%
%TA.AperFunction,SMDPad,CuDef*%
%ADD24R,5.000000X5.000000*%
%TD*%
%TA.AperFunction,SMDPad,CuDef*%
%ADD25R,0.900000X0.800000*%
%TD*%
%TA.AperFunction,ComponentPad*%
%ADD26O,3.600000X1.800000*%
%TD*%
%TA.AperFunction,ViaPad*%
%ADD27C,0.800000*%
%TD*%
%TA.AperFunction,Conductor*%
%ADD28C,0.250000*%
%TD*%
%TA.AperFunction,Conductor*%
%ADD29C,1.000000*%
%TD*%
%TA.AperFunction,Conductor*%
%ADD30C,0.500000*%
%TD*%
%TA.AperFunction,Conductor*%
%ADD31C,1.500000*%
%TD*%
%TA.AperFunction,Conductor*%
%ADD32C,0.254000*%
%TD*%
G04 APERTURE END LIST*
D10*
%TO.P,S5,D1*%
%TO.N,Net-(S5-PadD1)*%
X125936000Y-50135000D03*
%TO.P,S5,C1*%
%TO.N,Net-(R4-Pad1)*%
X119936000Y-50135000D03*
%TO.P,S5,B1*%
%TO.N,Net-(S5-PadB1)*%
X125936000Y-46385000D03*
%TO.P,S5,A1*%
%TO.N,GND*%
X119936000Y-46385000D03*
%TD*%
%TO.P,S4,D1*%
%TO.N,Net-(S4-PadD1)*%
X76502000Y-98963000D03*
%TO.P,S4,C1*%
%TO.N,Net-(R5-Pad1)*%
X82502000Y-98963000D03*
%TO.P,S4,B1*%
%TO.N,Net-(S4-PadB1)*%
X76502000Y-102713000D03*
%TO.P,S4,A1*%
%TO.N,GND*%
X82502000Y-102713000D03*
%TD*%
D11*
%TO.P,S2,MH4*%
%TO.N,LEDDown*%
X80556000Y-87588000D03*
%TO.P,S2,MH3*%
%TO.N,Net-(R9-Pad1)*%
X67056000Y-87588000D03*
D12*
%TO.P,S2,C4*%
%TO.N,Net-(S2-PadC4)*%
X76306000Y-93638000D03*
%TO.P,S2,C3*%
%TO.N,DOWN*%
X71306000Y-93638000D03*
%TO.P,S2,C2*%
%TO.N,GND*%
X76306000Y-81538000D03*
%TO.P,S2,C1*%
X71306000Y-81538000D03*
%TD*%
D11*
%TO.P,S1,MH4*%
%TO.N,LEDUP*%
X80556000Y-50504000D03*
%TO.P,S1,MH3*%
%TO.N,Net-(R10-Pad1)*%
X67056000Y-50504000D03*
D12*
%TO.P,S1,C4*%
%TO.N,Net-(S1-PadC4)*%
X76306000Y-56554000D03*
%TO.P,S1,C3*%
%TO.N,UP*%
X71306000Y-56554000D03*
%TO.P,S1,C2*%
%TO.N,GND*%
X76306000Y-44454000D03*
%TO.P,S1,C1*%
X71306000Y-44454000D03*
%TD*%
D13*
%TO.P,J6,3*%
%TO.N,GPIO34*%
X126302000Y-85598000D03*
%TO.P,J6,2*%
%TO.N,GPIO39*%
X128302000Y-85598000D03*
D14*
%TO.P,J6,1*%
%TO.N,GPIO36*%
X130302000Y-85598000D03*
%TD*%
D13*
%TO.P,J5,2*%
%TO.N,GPIO27*%
X132334000Y-80296000D03*
D14*
%TO.P,J5,1*%
%TO.N,GPIO26*%
X132334000Y-82296000D03*
%TD*%
D15*
%TO.P,IC3,6*%
%TO.N,Load_N*%
X115141000Y-65028000D03*
%TO.P,IC3,5*%
%TO.N,Net-(IC3-Pad5)*%
X115141000Y-62488000D03*
%TO.P,IC3,4*%
%TO.N,Load_L*%
X115141000Y-59948000D03*
%TO.P,IC3,3*%
%TO.N,Net-(IC3-Pad3)*%
X123991000Y-59948000D03*
%TO.P,IC3,2*%
%TO.N,SSR*%
X123991000Y-62488000D03*
%TO.P,IC3,1*%
%TO.N,Net-(IC3-Pad1)*%
X123991000Y-65028000D03*
%TD*%
D13*
%TO.P,J4,7*%
%TO.N,DHT*%
X104332000Y-74676000D03*
%TO.P,J4,6*%
%TO.N,GPIO4*%
X106332000Y-74676000D03*
%TO.P,J4,5*%
%TO.N,GPIO2*%
X108332000Y-74676000D03*
%TO.P,J4,4*%
%TO.N,GPIO15*%
X110332000Y-74676000D03*
%TO.P,J4,3*%
%TO.N,GPIO35*%
X112332000Y-74676000D03*
%TO.P,J4,2*%
%TO.N,GPIO32*%
X114332000Y-74676000D03*
D14*
%TO.P,J4,1*%
%TO.N,GPIO33*%
X116332000Y-74676000D03*
%TD*%
D16*
%TO.P,J7,3*%
%TO.N,+3V3*%
X131572000Y-56896000D03*
%TO.P,J7,2*%
%TO.N,DHT*%
X131572000Y-54356000D03*
D17*
%TO.P,J7,1*%
%TO.N,GND*%
X131572000Y-51816000D03*
%TD*%
D18*
%TO.P,U2,2*%
%TO.N,GND*%
X82880000Y-82810000D03*
%TO.P,U2,3*%
%TO.N,+3V3*%
X98120000Y-82810000D03*
%TO.P,U2,1*%
%TO.N,AC_L*%
X87960000Y-53600000D03*
%TO.P,U2,0*%
%TO.N,AC_N*%
X93040000Y-53600000D03*
%TD*%
D19*
%TO.P,SW1,A*%
%TO.N,ROTA*%
X98298000Y-90170000D03*
D20*
%TO.P,SW1,C*%
%TO.N,GND*%
X98298000Y-87670000D03*
%TO.P,SW1,B*%
%TO.N,ROTB*%
X98298000Y-85170000D03*
D21*
%TO.P,SW1,MP*%
%TO.N,N/C*%
X90798000Y-93270000D03*
X90798000Y-82070000D03*
D20*
%TO.P,SW1,S2*%
%TO.N,RotarySwitch*%
X83798000Y-90170000D03*
%TO.P,SW1,S1*%
%TO.N,GND*%
X83798000Y-85170000D03*
%TD*%
%TO.P,R10,2*%
%TO.N,+3V3*%
%TA.AperFunction,SMDPad,CuDef*%
G36*
G01*
X78349500Y-39318250D02*
X78349500Y-38405750D01*
G75*
G02*
X78593250Y-38162000I243750J0D01*
G01*
X79080750Y-38162000D01*
G75*
G02*
X79324500Y-38405750I0J-243750D01*
G01*
X79324500Y-39318250D01*
G75*
G02*
X79080750Y-39562000I-243750J0D01*
G01*
X78593250Y-39562000D01*
G75*
G02*
X78349500Y-39318250I0J243750D01*
G01*
G37*
%TD.AperFunction*%
%TO.P,R10,1*%
%TO.N,Net-(R10-Pad1)*%
%TA.AperFunction,SMDPad,CuDef*%
G36*
G01*
X76474500Y-39318250D02*
X76474500Y-38405750D01*
G75*
G02*
X76718250Y-38162000I243750J0D01*
G01*
X77205750Y-38162000D01*
G75*
G02*
X77449500Y-38405750I0J-243750D01*
G01*
X77449500Y-39318250D01*
G75*
G02*
X77205750Y-39562000I-243750J0D01*
G01*
X76718250Y-39562000D01*
G75*
G02*
X76474500Y-39318250I0J243750D01*
G01*
G37*
%TD.AperFunction*%
%TD*%
%TO.P,R9,2*%
%TO.N,+3V3*%
%TA.AperFunction,SMDPad,CuDef*%
G36*
G01*
X66496250Y-75925500D02*
X65583750Y-75925500D01*
G75*
G02*
X65340000Y-75681750I0J243750D01*
G01*
X65340000Y-75194250D01*
G75*
G02*
X65583750Y-74950500I243750J0D01*
G01*
X66496250Y-74950500D01*
G75*
G02*
X66740000Y-75194250I0J-243750D01*
G01*
X66740000Y-75681750D01*
G75*
G02*
X66496250Y-75925500I-243750J0D01*
G01*
G37*
%TD.AperFunction*%
%TO.P,R9,1*%
%TO.N,Net-(R9-Pad1)*%
%TA.AperFunction,SMDPad,CuDef*%
G36*
G01*
X66496250Y-77800500D02*
X65583750Y-77800500D01*
G75*
G02*
X65340000Y-77556750I0J243750D01*
G01*
X65340000Y-77069250D01*
G75*
G02*
X65583750Y-76825500I243750J0D01*
G01*
X66496250Y-76825500D01*
G75*
G02*
X66740000Y-77069250I0J-243750D01*
G01*
X66740000Y-77556750D01*
G75*
G02*
X66496250Y-77800500I-243750J0D01*
G01*
G37*
%TD.AperFunction*%
%TD*%
D22*
%TO.P,U1,38*%
%TO.N,GND*%
X106000000Y-95855000D03*
%TO.P,U1,37*%
%TO.N,LEDDown*%
X106000000Y-94585000D03*
%TO.P,U1,36*%
%TO.N,SCL*%
X106000000Y-93315000D03*
%TO.P,U1,35*%
%TO.N,Net-(R2-Pad2)*%
X106000000Y-92045000D03*
%TO.P,U1,34*%
%TO.N,Net-(R3-Pad2)*%
X106000000Y-90775000D03*
%TO.P,U1,33*%
%TO.N,SDA*%
X106000000Y-89505000D03*
%TO.P,U1,32*%
%TO.N,Net-(U1-Pad32)*%
X106000000Y-88235000D03*
%TO.P,U1,31*%
%TO.N,ROTA*%
X106000000Y-86965000D03*
%TO.P,U1,30*%
%TO.N,ROTB*%
X106000000Y-85695000D03*
%TO.P,U1,29*%
%TO.N,DHT*%
X106000000Y-84425000D03*
%TO.P,U1,28*%
%TO.N,RotarySwitch*%
X106000000Y-83155000D03*
%TO.P,U1,27*%
%TO.N,SSR*%
X106000000Y-81885000D03*
%TO.P,U1,26*%
%TO.N,GPIO4*%
X106000000Y-80615000D03*
%TO.P,U1,25*%
%TO.N,BOOT*%
X106000000Y-79345000D03*
D23*
%TO.P,U1,24*%
%TO.N,GPIO2*%
X108785000Y-78345000D03*
%TO.P,U1,23*%
%TO.N,GPIO15*%
X110055000Y-78345000D03*
%TO.P,U1,22*%
%TO.N,Net-(U1-Pad22)*%
X111325000Y-78345000D03*
%TO.P,U1,21*%
%TO.N,Net-(U1-Pad21)*%
X112595000Y-78345000D03*
%TO.P,U1,20*%
%TO.N,Net-(U1-Pad20)*%
X113865000Y-78345000D03*
%TO.P,U1,19*%
%TO.N,Net-(U1-Pad19)*%
X115135000Y-78345000D03*
%TO.P,U1,18*%
%TO.N,Net-(U1-Pad18)*%
X116405000Y-78345000D03*
%TO.P,U1,17*%
%TO.N,Net-(U1-Pad17)*%
X117675000Y-78345000D03*
%TO.P,U1,16*%
%TO.N,DOWN*%
X118945000Y-78345000D03*
%TO.P,U1,15*%
%TO.N,GND*%
X120215000Y-78345000D03*
D22*
%TO.P,U1,14*%
%TO.N,GPIO12*%
X123000000Y-79345000D03*
%TO.P,U1,13*%
%TO.N,UP*%
X123000000Y-80615000D03*
%TO.P,U1,12*%
%TO.N,GPIO27*%
X123000000Y-81885000D03*
%TO.P,U1,11*%
%TO.N,GPIO26*%
X123000000Y-83155000D03*
%TO.P,U1,10*%
%TO.N,LEDUP*%
X123000000Y-84425000D03*
%TO.P,U1,9*%
%TO.N,GPIO33*%
X123000000Y-85695000D03*
%TO.P,U1,8*%
%TO.N,GPIO32*%
X123000000Y-86965000D03*
%TO.P,U1,7*%
%TO.N,GPIO35*%
X123000000Y-88235000D03*
%TO.P,U1,6*%
%TO.N,GPIO34*%
X123000000Y-89505000D03*
%TO.P,U1,5*%
%TO.N,GPIO39*%
X123000000Y-90775000D03*
%TO.P,U1,4*%
%TO.N,GPIO36*%
X123000000Y-92045000D03*
%TO.P,U1,3*%
%TO.N,RESET*%
X123000000Y-93315000D03*
%TO.P,U1,2*%
%TO.N,+3V3*%
X123000000Y-94585000D03*
%TO.P,U1,1*%
%TO.N,GND*%
X123000000Y-95855000D03*
D24*
%TO.P,U1,39*%
X115500000Y-88355000D03*
%TD*%
%TO.P,R8,2*%
%TO.N,+3V3*%
%TA.AperFunction,SMDPad,CuDef*%
G36*
G01*
X124003750Y-70300000D02*
X124916250Y-70300000D01*
G75*
G02*
X125160000Y-70543750I0J-243750D01*
G01*
X125160000Y-71031250D01*
G75*
G02*
X124916250Y-71275000I-243750J0D01*
G01*
X124003750Y-71275000D01*
G75*
G02*
X123760000Y-71031250I0J243750D01*
G01*
X123760000Y-70543750D01*
G75*
G02*
X124003750Y-70300000I243750J0D01*
G01*
G37*
%TD.AperFunction*%
%TO.P,R8,1*%
%TO.N,Net-(IC3-Pad1)*%
%TA.AperFunction,SMDPad,CuDef*%
G36*
G01*
X124003750Y-68425000D02*
X124916250Y-68425000D01*
G75*
G02*
X125160000Y-68668750I0J-243750D01*
G01*
X125160000Y-69156250D01*
G75*
G02*
X124916250Y-69400000I-243750J0D01*
G01*
X124003750Y-69400000D01*
G75*
G02*
X123760000Y-69156250I0J243750D01*
G01*
X123760000Y-68668750D01*
G75*
G02*
X124003750Y-68425000I243750J0D01*
G01*
G37*
%TD.AperFunction*%
%TD*%
%TO.P,R7,2*%
%TO.N,DTR*%
%TA.AperFunction,SMDPad,CuDef*%
G36*
G01*
X86112500Y-64143750D02*
X86112500Y-65056250D01*
G75*
G02*
X85868750Y-65300000I-243750J0D01*
G01*
X85381250Y-65300000D01*
G75*
G02*
X85137500Y-65056250I0J243750D01*
G01*
X85137500Y-64143750D01*
G75*
G02*
X85381250Y-63900000I243750J0D01*
G01*
X85868750Y-63900000D01*
G75*
G02*
X86112500Y-64143750I0J-243750D01*
G01*
G37*
%TD.AperFunction*%
%TO.P,R7,1*%
%TO.N,Net-(Q1-Pad1)*%
%TA.AperFunction,SMDPad,CuDef*%
G36*
G01*
X87987500Y-64143750D02*
X87987500Y-65056250D01*
G75*
G02*
X87743750Y-65300000I-243750J0D01*
G01*
X87256250Y-65300000D01*
G75*
G02*
X87012500Y-65056250I0J243750D01*
G01*
X87012500Y-64143750D01*
G75*
G02*
X87256250Y-63900000I243750J0D01*
G01*
X87743750Y-63900000D01*
G75*
G02*
X87987500Y-64143750I0J-243750D01*
G01*
G37*
%TD.AperFunction*%
%TD*%
%TO.P,R6,2*%
%TO.N,RTS*%
%TA.AperFunction,SMDPad,CuDef*%
G36*
G01*
X86950000Y-67056250D02*
X86950000Y-66143750D01*
G75*
G02*
X87193750Y-65900000I243750J0D01*
G01*
X87681250Y-65900000D01*
G75*
G02*
X87925000Y-66143750I0J-243750D01*
G01*
X87925000Y-67056250D01*
G75*
G02*
X87681250Y-67300000I-243750J0D01*
G01*
X87193750Y-67300000D01*
G75*
G02*
X86950000Y-67056250I0J243750D01*
G01*
G37*
%TD.AperFunction*%
%TO.P,R6,1*%
%TO.N,Net-(Q2-Pad1)*%
%TA.AperFunction,SMDPad,CuDef*%
G36*
G01*
X85075000Y-67056250D02*
X85075000Y-66143750D01*
G75*
G02*
X85318750Y-65900000I243750J0D01*
G01*
X85806250Y-65900000D01*
G75*
G02*
X86050000Y-66143750I0J-243750D01*
G01*
X86050000Y-67056250D01*
G75*
G02*
X85806250Y-67300000I-243750J0D01*
G01*
X85318750Y-67300000D01*
G75*
G02*
X85075000Y-67056250I0J243750D01*
G01*
G37*
%TD.AperFunction*%
%TD*%
%TO.P,R5,2*%
%TO.N,RESET*%
%TA.AperFunction,SMDPad,CuDef*%
G36*
G01*
X87318000Y-97484250D02*
X87318000Y-96571750D01*
G75*
G02*
X87561750Y-96328000I243750J0D01*
G01*
X88049250Y-96328000D01*
G75*
G02*
X88293000Y-96571750I0J-243750D01*
G01*
X88293000Y-97484250D01*
G75*
G02*
X88049250Y-97728000I-243750J0D01*
G01*
X87561750Y-97728000D01*
G75*
G02*
X87318000Y-97484250I0J243750D01*
G01*
G37*
%TD.AperFunction*%
%TO.P,R5,1*%
%TO.N,Net-(R5-Pad1)*%
%TA.AperFunction,SMDPad,CuDef*%
G36*
G01*
X85443000Y-97484250D02*
X85443000Y-96571750D01*
G75*
G02*
X85686750Y-96328000I243750J0D01*
G01*
X86174250Y-96328000D01*
G75*
G02*
X86418000Y-96571750I0J-243750D01*
G01*
X86418000Y-97484250D01*
G75*
G02*
X86174250Y-97728000I-243750J0D01*
G01*
X85686750Y-97728000D01*
G75*
G02*
X85443000Y-97484250I0J243750D01*
G01*
G37*
%TD.AperFunction*%
%TD*%
%TO.P,R4,2*%
%TO.N,BOOT*%
%TA.AperFunction,SMDPad,CuDef*%
G36*
G01*
X98525250Y-76650000D02*
X99437750Y-76650000D01*
G75*
G02*
X99681500Y-76893750I0J-243750D01*
G01*
X99681500Y-77381250D01*
G75*
G02*
X99437750Y-77625000I-243750J0D01*
G01*
X98525250Y-77625000D01*
G75*
G02*
X98281500Y-77381250I0J243750D01*
G01*
X98281500Y-76893750D01*
G75*
G02*
X98525250Y-76650000I243750J0D01*
G01*
G37*
%TD.AperFunction*%
%TO.P,R4,1*%
%TO.N,Net-(R4-Pad1)*%
%TA.AperFunction,SMDPad,CuDef*%
G36*
G01*
X98525250Y-74775000D02*
X99437750Y-74775000D01*
G75*
G02*
X99681500Y-75018750I0J-243750D01*
G01*
X99681500Y-75506250D01*
G75*
G02*
X99437750Y-75750000I-243750J0D01*
G01*
X98525250Y-75750000D01*
G75*
G02*
X98281500Y-75506250I0J243750D01*
G01*
X98281500Y-75018750D01*
G75*
G02*
X98525250Y-74775000I243750J0D01*
G01*
G37*
%TD.AperFunction*%
%TD*%
%TO.P,R3,2*%
%TO.N,Net-(R3-Pad2)*%
%TA.AperFunction,SMDPad,CuDef*%
G36*
G01*
X102304000Y-91056250D02*
X102304000Y-90143750D01*
G75*
G02*
X102547750Y-89900000I243750J0D01*
G01*
X103035250Y-89900000D01*
G75*
G02*
X103279000Y-90143750I0J-243750D01*
G01*
X103279000Y-91056250D01*
G75*
G02*
X103035250Y-91300000I-243750J0D01*
G01*
X102547750Y-91300000D01*
G75*
G02*
X102304000Y-91056250I0J243750D01*
G01*
G37*
%TD.AperFunction*%
%TO.P,R3,1*%
%TO.N,USART_RX*%
%TA.AperFunction,SMDPad,CuDef*%
G36*
G01*
X100429000Y-91056250D02*
X100429000Y-90143750D01*
G75*
G02*
X100672750Y-89900000I243750J0D01*
G01*
X101160250Y-89900000D01*
G75*
G02*
X101404000Y-90143750I0J-243750D01*
G01*
X101404000Y-91056250D01*
G75*
G02*
X101160250Y-91300000I-243750J0D01*
G01*
X100672750Y-91300000D01*
G75*
G02*
X100429000Y-91056250I0J243750D01*
G01*
G37*
%TD.AperFunction*%
%TD*%
%TO.P,R2,2*%
%TO.N,Net-(R2-Pad2)*%
%TA.AperFunction,SMDPad,CuDef*%
G36*
G01*
X102304000Y-93056250D02*
X102304000Y-92143750D01*
G75*
G02*
X102547750Y-91900000I243750J0D01*
G01*
X103035250Y-91900000D01*
G75*
G02*
X103279000Y-92143750I0J-243750D01*
G01*
X103279000Y-93056250D01*
G75*
G02*
X103035250Y-93300000I-243750J0D01*
G01*
X102547750Y-93300000D01*
G75*
G02*
X102304000Y-93056250I0J243750D01*
G01*
G37*
%TD.AperFunction*%
%TO.P,R2,1*%
%TO.N,USART_TX*%
%TA.AperFunction,SMDPad,CuDef*%
G36*
G01*
X100429000Y-93056250D02*
X100429000Y-92143750D01*
G75*
G02*
X100672750Y-91900000I243750J0D01*
G01*
X101160250Y-91900000D01*
G75*
G02*
X101404000Y-92143750I0J-243750D01*
G01*
X101404000Y-93056250D01*
G75*
G02*
X101160250Y-93300000I-243750J0D01*
G01*
X100672750Y-93300000D01*
G75*
G02*
X100429000Y-93056250I0J243750D01*
G01*
G37*
%TD.AperFunction*%
%TD*%
%TO.P,R1,2*%
%TO.N,RESET*%
%TA.AperFunction,SMDPad,CuDef*%
G36*
G01*
X131376250Y-90050000D02*
X132288750Y-90050000D01*
G75*
G02*
X132532500Y-90293750I0J-243750D01*
G01*
X132532500Y-90781250D01*
G75*
G02*
X132288750Y-91025000I-243750J0D01*
G01*
X131376250Y-91025000D01*
G75*
G02*
X131132500Y-90781250I0J243750D01*
G01*
X131132500Y-90293750D01*
G75*
G02*
X131376250Y-90050000I243750J0D01*
G01*
G37*
%TD.AperFunction*%
%TO.P,R1,1*%
%TO.N,+3V3*%
%TA.AperFunction,SMDPad,CuDef*%
G36*
G01*
X131376250Y-88175000D02*
X132288750Y-88175000D01*
G75*
G02*
X132532500Y-88418750I0J-243750D01*
G01*
X132532500Y-88906250D01*
G75*
G02*
X132288750Y-89150000I-243750J0D01*
G01*
X131376250Y-89150000D01*
G75*
G02*
X131132500Y-88906250I0J243750D01*
G01*
X131132500Y-88418750D01*
G75*
G02*
X131376250Y-88175000I243750J0D01*
G01*
G37*
%TD.AperFunction*%
%TD*%
D25*
%TO.P,Q2,3*%
%TO.N,BOOT*%
X81500000Y-65600000D03*
%TO.P,Q2,2*%
%TO.N,DTR*%
X83500000Y-64650000D03*
%TO.P,Q2,1*%
%TO.N,Net-(Q2-Pad1)*%
X83500000Y-66550000D03*
%TD*%
%TO.P,Q1,3*%
%TO.N,RESET*%
X91500000Y-65600000D03*
%TO.P,Q1,2*%
%TO.N,RTS*%
X89500000Y-66550000D03*
%TO.P,Q1,1*%
%TO.N,Net-(Q1-Pad1)*%
X89500000Y-64650000D03*
%TD*%
D16*
%TO.P,J3,6*%
%TO.N,GND*%
X75500000Y-76300000D03*
%TO.P,J3,5*%
%TO.N,RTS*%
X75500000Y-73760000D03*
%TO.P,J3,4*%
%TO.N,+3V3*%
X75500000Y-71220000D03*
%TO.P,J3,3*%
%TO.N,USART_RX*%
X75500000Y-68680000D03*
%TO.P,J3,2*%
%TO.N,USART_TX*%
X75500000Y-66140000D03*
D17*
%TO.P,J3,1*%
%TO.N,DTR*%
X75500000Y-63600000D03*
%TD*%
D16*
%TO.P,J2,4*%
%TO.N,GND*%
X104120000Y-45600000D03*
%TO.P,J2,3*%
%TO.N,+3V3*%
X101580000Y-45600000D03*
%TO.P,J2,2*%
%TO.N,SCL*%
X99040000Y-45600000D03*
D17*
%TO.P,J2,1*%
%TO.N,SDA*%
X96500000Y-45600000D03*
%TD*%
D26*
%TO.P,J1,5*%
%TO.N,Load_N*%
X110500000Y-66840000D03*
%TO.P,J1,4*%
%TO.N,Load_L*%
X110500000Y-63030000D03*
%TO.P,J1,3*%
%TO.N,Earth*%
X110500000Y-59220000D03*
%TO.P,J1,2*%
%TO.N,AC_N*%
X110500000Y-55410000D03*
%TO.P,J1,1*%
%TO.N,AC_L*%
%TA.AperFunction,ComponentPad*%
G36*
G01*
X108950000Y-50700000D02*
X112050000Y-50700000D01*
G75*
G02*
X112300000Y-50950000I0J-250000D01*
G01*
X112300000Y-52250000D01*
G75*
G02*
X112050000Y-52500000I-250000J0D01*
G01*
X108950000Y-52500000D01*
G75*
G02*
X108700000Y-52250000I0J250000D01*
G01*
X108700000Y-50950000D01*
G75*
G02*
X108950000Y-50700000I250000J0D01*
G01*
G37*
%TD.AperFunction*%
%TD*%
%TO.P,C3,2*%
%TO.N,GND*%
%TA.AperFunction,SMDPad,CuDef*%
G36*
G01*
X128395000Y-88825000D02*
X127145000Y-88825000D01*
G75*
G02*
X126895000Y-88575000I0J250000D01*
G01*
X126895000Y-87825000D01*
G75*
G02*
X127145000Y-87575000I250000J0D01*
G01*
X128395000Y-87575000D01*
G75*
G02*
X128645000Y-87825000I0J-250000D01*
G01*
X128645000Y-88575000D01*
G75*
G02*
X128395000Y-88825000I-250000J0D01*
G01*
G37*
%TD.AperFunction*%
%TO.P,C3,1*%
%TO.N,RESET*%
%TA.AperFunction,SMDPad,CuDef*%
G36*
G01*
X128395000Y-91625000D02*
X127145000Y-91625000D01*
G75*
G02*
X126895000Y-91375000I0J250000D01*
G01*
X126895000Y-90625000D01*
G75*
G02*
X127145000Y-90375000I250000J0D01*
G01*
X128395000Y-90375000D01*
G75*
G02*
X128645000Y-90625000I0J-250000D01*
G01*
X128645000Y-91375000D01*
G75*
G02*
X128395000Y-91625000I-250000J0D01*
G01*
G37*
%TD.AperFunction*%
%TD*%
%TO.P,C2,2*%
%TO.N,GND*%
%TA.AperFunction,SMDPad,CuDef*%
G36*
G01*
X127313750Y-94987500D02*
X128226250Y-94987500D01*
G75*
G02*
X128470000Y-95231250I0J-243750D01*
G01*
X128470000Y-95718750D01*
G75*
G02*
X128226250Y-95962500I-243750J0D01*
G01*
X127313750Y-95962500D01*
G75*
G02*
X127070000Y-95718750I0J243750D01*
G01*
X127070000Y-95231250D01*
G75*
G02*
X127313750Y-94987500I243750J0D01*
G01*
G37*
%TD.AperFunction*%
%TO.P,C2,1*%
%TO.N,+3V3*%
%TA.AperFunction,SMDPad,CuDef*%
G36*
G01*
X127313750Y-93112500D02*
X128226250Y-93112500D01*
G75*
G02*
X128470000Y-93356250I0J-243750D01*
G01*
X128470000Y-93843750D01*
G75*
G02*
X128226250Y-94087500I-243750J0D01*
G01*
X127313750Y-94087500D01*
G75*
G02*
X127070000Y-93843750I0J243750D01*
G01*
X127070000Y-93356250D01*
G75*
G02*
X127313750Y-93112500I243750J0D01*
G01*
G37*
%TD.AperFunction*%
%TD*%
%TO.P,C1,2*%
%TO.N,GND*%
%TA.AperFunction,SMDPad,CuDef*%
G36*
G01*
X131145000Y-94775000D02*
X132395000Y-94775000D01*
G75*
G02*
X132645000Y-95025000I0J-250000D01*
G01*
X132645000Y-95775000D01*
G75*
G02*
X132395000Y-96025000I-250000J0D01*
G01*
X131145000Y-96025000D01*
G75*
G02*
X130895000Y-95775000I0J250000D01*
G01*
X130895000Y-95025000D01*
G75*
G02*
X131145000Y-94775000I250000J0D01*
G01*
G37*
%TD.AperFunction*%
%TO.P,C1,1*%
%TO.N,+3V3*%
%TA.AperFunction,SMDPad,CuDef*%
G36*
G01*
X131145000Y-91975000D02*
X132395000Y-91975000D01*
G75*
G02*
X132645000Y-92225000I0J-250000D01*
G01*
X132645000Y-92975000D01*
G75*
G02*
X132395000Y-93225000I-250000J0D01*
G01*
X131145000Y-93225000D01*
G75*
G02*
X130895000Y-92975000I0J250000D01*
G01*
X130895000Y-92225000D01*
G75*
G02*
X131145000Y-91975000I250000J0D01*
G01*
G37*
%TD.AperFunction*%
%TD*%
D27*
%TO.N,GND*%
X129726000Y-94746000D03*
X129726000Y-88396000D03*
X119126000Y-80264000D03*
X120396000Y-81788000D03*
X87630000Y-86614000D03*
X90170000Y-88646000D03*
X93472000Y-94213001D03*
X94234000Y-91694000D03*
X69088000Y-77978000D03*
X66040000Y-73152000D03*
X116586000Y-45720000D03*
X113284000Y-46990000D03*
X70104000Y-77470000D03*
X69850000Y-78740000D03*
X69088000Y-78994000D03*
X65786000Y-72136000D03*
X65786000Y-71120000D03*
X112014000Y-46990000D03*
X118110000Y-44958000D03*
X120396000Y-44958000D03*
X109982000Y-84328000D03*
X111252000Y-84328000D03*
X113030000Y-84328000D03*
X114554000Y-84328000D03*
X109728000Y-85598000D03*
X108966000Y-87630000D03*
X108966000Y-90424000D03*
X108966000Y-92710000D03*
X109172500Y-93932500D03*
X110998000Y-94234000D03*
X114046000Y-94234000D03*
X116332000Y-93726000D03*
X118872000Y-94234000D03*
X120142000Y-93472000D03*
X119634000Y-89662000D03*
X118872000Y-87884000D03*
X111760000Y-87376000D03*
X111252000Y-90932000D03*
X111252000Y-92710000D03*
X115062000Y-91948000D03*
X117348000Y-92202000D03*
%TO.N,+3V3*%
X82804000Y-47752000D03*
X78486000Y-58928000D03*
X83566000Y-78232000D03*
X89662000Y-84836000D03*
X132080000Y-93980000D03*
X133604000Y-89408000D03*
X84074000Y-79248000D03*
X89154000Y-84328000D03*
X84582000Y-78232000D03*
X133795020Y-93726000D03*
%TO.N,RESET*%
X85090000Y-75692000D03*
X86360000Y-93472000D03*
%TO.N,Load_L*%
X115050000Y-60060000D03*
%TO.N,SCL*%
X104140000Y-93218000D03*
X102804989Y-66159471D03*
%TO.N,SDA*%
X102362000Y-67056000D03*
X104072000Y-89412000D03*
%TO.N,USART_RX*%
X100330000Y-89154000D03*
%TO.N,USART_TX*%
X101854000Y-88392000D03*
%TO.N,BOOT*%
X79248000Y-71374000D03*
X78486000Y-69596000D03*
%TO.N,Net-(R4-Pad1)*%
X120396000Y-52832000D03*
X121412000Y-51308000D03*
%TO.N,DOWN*%
X100838000Y-75438000D03*
X98044000Y-79248000D03*
X85635000Y-79248000D03*
%TO.N,UP*%
X124968000Y-81534000D03*
%TO.N,GPIO39*%
X125196460Y-89636460D03*
X127254000Y-84328000D03*
%TO.N,GPIO35*%
X121158000Y-88138000D03*
%TO.N,GPIO33*%
X121158000Y-85598000D03*
%TO.N,GPIO32*%
X121158000Y-86868000D03*
%TO.N,GPIO27*%
X125948979Y-82077021D03*
%TO.N,GPIO26*%
X127000000Y-83312000D03*
%TO.N,LEDUP*%
X121412000Y-84328000D03*
%TO.N,Earth*%
X115316000Y-57658000D03*
X115062000Y-61468000D03*
X106934000Y-58420000D03*
X106680000Y-60452000D03*
%TO.N,DHT*%
X125984000Y-59182000D03*
X120396000Y-73914000D03*
X107950000Y-83566000D03*
%TD*%
D28*
%TO.N,GND*%
X131695000Y-95475000D02*
X131770000Y-95400000D01*
X127770000Y-95475000D02*
X131695000Y-95475000D01*
X127390000Y-95855000D02*
X127770000Y-95475000D01*
X123000000Y-95855000D02*
X127390000Y-95855000D01*
X114750000Y-88355000D02*
X115500000Y-88355000D01*
X107250000Y-95855000D02*
X109172500Y-93932500D01*
X106000000Y-95855000D02*
X107250000Y-95855000D01*
X113506999Y-90348001D02*
X115500000Y-88355000D01*
X113506999Y-95094001D02*
X113506999Y-90348001D01*
X114267998Y-95855000D02*
X113506999Y-95094001D01*
X123000000Y-95855000D02*
X114267998Y-95855000D01*
X127770000Y-95475000D02*
X128997000Y-95475000D01*
X128997000Y-95475000D02*
X129726000Y-94746000D01*
X127966000Y-88396000D02*
X127770000Y-88200000D01*
X129726000Y-88396000D02*
X127966000Y-88396000D01*
X120215000Y-78345000D02*
X120215000Y-79175000D01*
X120215000Y-79175000D02*
X119126000Y-80264000D01*
X120396000Y-83459000D02*
X115500000Y-88355000D01*
X120396000Y-81788000D02*
X120396000Y-83459000D01*
X83798000Y-85170000D02*
X86186000Y-85170000D01*
X86186000Y-85170000D02*
X87630000Y-86614000D01*
X97322000Y-88646000D02*
X98298000Y-87670000D01*
X90170000Y-88646000D02*
X97322000Y-88646000D01*
X106000000Y-95855000D02*
X95113999Y-95855000D01*
X95113999Y-95855000D02*
X93472000Y-94213001D01*
X98258000Y-87670000D02*
X98298000Y-87670000D01*
X94234000Y-91694000D02*
X98258000Y-87670000D01*
X71306000Y-81538000D02*
X69088000Y-79320000D01*
X66040000Y-73152000D02*
X66040000Y-54102000D01*
X66040000Y-54102000D02*
X67056000Y-53086000D01*
X68687002Y-53086000D02*
X68941002Y-52832000D01*
X67056000Y-53086000D02*
X68687002Y-53086000D01*
X68230999Y-47529001D02*
X71306000Y-44454000D01*
X68230999Y-52121997D02*
X68230999Y-47529001D01*
X68941002Y-52832000D02*
X68230999Y-52121997D01*
X119936000Y-46385000D02*
X117251000Y-46385000D01*
X117251000Y-46385000D02*
X116586000Y-45720000D01*
X105510000Y-46990000D02*
X104120000Y-45600000D01*
D29*
X70104000Y-77470000D02*
X70104000Y-78486000D01*
X70104000Y-78486000D02*
X69850000Y-78740000D01*
D28*
X69088000Y-79320000D02*
X69088000Y-78994000D01*
X69088000Y-78994000D02*
X69088000Y-77978000D01*
X113284000Y-46990000D02*
X112014000Y-46990000D01*
X112014000Y-46990000D02*
X105510000Y-46990000D01*
D29*
X118110000Y-44958000D02*
X119126000Y-43942000D01*
X119126000Y-43942000D02*
X119380000Y-43942000D01*
X119380000Y-43942000D02*
X120396000Y-44958000D01*
D28*
X109172500Y-93932500D02*
X114750000Y-88355000D01*
D30*
%TO.N,+3V3*%
X66525527Y-75923527D02*
X70796473Y-75923527D01*
X70796473Y-75923527D02*
X75500000Y-71220000D01*
X66040000Y-75438000D02*
X66525527Y-75923527D01*
D29*
X127610320Y-93600000D02*
X127770000Y-93600000D01*
X126625320Y-94585000D02*
X127610320Y-93600000D01*
X123000000Y-94585000D02*
X126625320Y-94585000D01*
X130770000Y-93600000D02*
X131770000Y-92600000D01*
X127770000Y-93600000D02*
X130770000Y-93600000D01*
X83566000Y-78740000D02*
X83820000Y-78994000D01*
X83566000Y-78232000D02*
X83566000Y-78740000D01*
X83820000Y-78994000D02*
X89154000Y-84328000D01*
X82804000Y-54610000D02*
X82804000Y-47752000D01*
X78486000Y-58928000D02*
X82804000Y-54610000D01*
X98404227Y-42424227D02*
X82399227Y-42424227D01*
X82399227Y-42424227D02*
X78837000Y-38862000D01*
X101580000Y-45600000D02*
X98404227Y-42424227D01*
X130393000Y-58075000D02*
X131572000Y-56896000D01*
X126837000Y-58075000D02*
X130393000Y-58075000D01*
X126837000Y-54900998D02*
X126837000Y-58075000D01*
X101580000Y-45600000D02*
X103130001Y-44049999D01*
X120996001Y-49059999D02*
X126837000Y-54900998D01*
X103130001Y-44049999D02*
X105691511Y-44049999D01*
X106351511Y-44709999D02*
X113947997Y-44709999D01*
X105691511Y-44049999D02*
X106351511Y-44709999D01*
X118297997Y-49059999D02*
X120996001Y-49059999D01*
X113947997Y-44709999D02*
X118297997Y-49059999D01*
X127084001Y-64177999D02*
X125641001Y-65620999D01*
X127084001Y-58653999D02*
X127084001Y-64177999D01*
X126837000Y-58406998D02*
X127084001Y-58653999D01*
X126837000Y-58075000D02*
X126837000Y-58406998D01*
X124610259Y-76585866D02*
X124610259Y-78381840D01*
X124798001Y-76398124D02*
X124610259Y-76585866D01*
X132858500Y-88662500D02*
X133604000Y-89408000D01*
X131832500Y-88662500D02*
X132858500Y-88662500D01*
X131770000Y-93670000D02*
X132080000Y-93980000D01*
X131770000Y-92600000D02*
X131770000Y-93670000D01*
X133795020Y-89599020D02*
X133795020Y-93726000D01*
X133604000Y-89408000D02*
X133795020Y-89599020D01*
X125160000Y-70787500D02*
X124460000Y-70787500D01*
X125860010Y-70087490D02*
X125160000Y-70787500D01*
X125860010Y-68202010D02*
X125860010Y-70087490D01*
X125641001Y-67983001D02*
X125860010Y-68202010D01*
X125641001Y-65620999D02*
X125641001Y-67983001D01*
X124460000Y-78231581D02*
X124610259Y-78381840D01*
X124460000Y-70787500D02*
X124460000Y-78231581D01*
X131832500Y-84518498D02*
X131832500Y-88662500D01*
X131537001Y-84222999D02*
X131832500Y-84518498D01*
X129650592Y-84222999D02*
X131537001Y-84222999D01*
X124708339Y-79280746D02*
X129650592Y-84222999D01*
X124708339Y-78479920D02*
X124708339Y-79280746D01*
X124460000Y-78231581D02*
X124708339Y-78479920D01*
D28*
%TO.N,RESET*%
X92922602Y-95085959D02*
X89175541Y-95085959D01*
X94868643Y-97032000D02*
X92922602Y-95085959D01*
X131951190Y-97032000D02*
X94868643Y-97032000D01*
X132970010Y-96013180D02*
X131951190Y-97032000D01*
X132970010Y-91675010D02*
X132970010Y-96013180D01*
X131832500Y-90537500D02*
X132970010Y-91675010D01*
D30*
X85090000Y-72910000D02*
X85090000Y-75692000D01*
X91500000Y-66500000D02*
X85090000Y-72910000D01*
X91500000Y-65600000D02*
X91500000Y-66500000D01*
X125455000Y-93315000D02*
X127770000Y-91000000D01*
X123000000Y-93315000D02*
X125455000Y-93315000D01*
X131370000Y-91000000D02*
X131832500Y-90537500D01*
X127770000Y-91000000D02*
X131370000Y-91000000D01*
X87805500Y-94917500D02*
X86360000Y-93472000D01*
X87805500Y-97028000D02*
X87805500Y-94917500D01*
X89175541Y-95657959D02*
X89175541Y-95085959D01*
X87805500Y-97028000D02*
X89175541Y-95657959D01*
D31*
%TO.N,Load_L*%
X113470000Y-60060000D02*
X115050000Y-60060000D01*
X110500000Y-63030000D02*
X113470000Y-60060000D01*
X115050000Y-60060000D02*
X115050000Y-60060000D01*
%TO.N,Load_N*%
X113350000Y-66840000D02*
X115050000Y-65140000D01*
X110500000Y-66840000D02*
X113350000Y-66840000D01*
D30*
%TO.N,SCL*%
X97416000Y-47224000D02*
X87904000Y-47224000D01*
X99040000Y-45600000D02*
X97416000Y-47224000D01*
X87904000Y-47224000D02*
X85090000Y-50038000D01*
X85090000Y-50038000D02*
X85090000Y-56388000D01*
X87251000Y-58549000D02*
X88771000Y-58549000D01*
X85090000Y-56388000D02*
X87251000Y-58549000D01*
X90703739Y-58549000D02*
X98448739Y-66294000D01*
X88771000Y-58549000D02*
X90703739Y-58549000D01*
X98448739Y-66294000D02*
X101865998Y-66294000D01*
X101953999Y-66205999D02*
X102781999Y-66205999D01*
X101865998Y-66294000D02*
X101953999Y-66205999D01*
X104237000Y-93315000D02*
X104140000Y-93218000D01*
X106000000Y-93315000D02*
X104237000Y-93315000D01*
%TO.N,SDA*%
X86681010Y-59249010D02*
X84328000Y-56896000D01*
X90413786Y-59249010D02*
X86681010Y-59249010D01*
X98220776Y-67056000D02*
X90413786Y-59249010D01*
X102362000Y-67056000D02*
X98220776Y-67056000D01*
X87698814Y-45600000D02*
X96500000Y-45600000D01*
X84328000Y-48970814D02*
X87698814Y-45600000D01*
X84328000Y-56896000D02*
X84328000Y-48970814D01*
X104165000Y-89505000D02*
X104072000Y-89412000D01*
X106000000Y-89505000D02*
X104165000Y-89505000D01*
%TO.N,RTS*%
X83513501Y-70523999D02*
X87437500Y-66600000D01*
X78736001Y-70523999D02*
X83513501Y-70523999D01*
X75500000Y-73760000D02*
X78736001Y-70523999D01*
X89450000Y-66600000D02*
X89500000Y-66550000D01*
X87437500Y-66600000D02*
X89450000Y-66600000D01*
D28*
%TO.N,USART_RX*%
X100500000Y-90600000D02*
X100434000Y-90600000D01*
D30*
X100500000Y-89324000D02*
X100330000Y-89154000D01*
X100500000Y-90600000D02*
X100500000Y-89324000D01*
D28*
%TO.N,USART_TX*%
X100916500Y-92600000D02*
X101854000Y-91662500D01*
X101854000Y-91662500D02*
X101854000Y-88392000D01*
%TO.N,DTR*%
X82450000Y-63600000D02*
X83500000Y-64650000D01*
X75500000Y-63600000D02*
X82450000Y-63600000D01*
X85575000Y-64650000D02*
X85625000Y-64600000D01*
X83500000Y-64650000D02*
X85575000Y-64650000D01*
D30*
%TO.N,Net-(Q1-Pad1)*%
X89450000Y-64600000D02*
X89500000Y-64650000D01*
X87500000Y-64600000D02*
X89450000Y-64600000D01*
%TO.N,BOOT*%
X81500000Y-66582000D02*
X78486000Y-69596000D01*
X81500000Y-65600000D02*
X81500000Y-66582000D01*
X79248000Y-72898000D02*
X83487500Y-77137500D01*
X79248000Y-71374000D02*
X79248000Y-72898000D01*
X98981500Y-77137500D02*
X83487500Y-77137500D01*
X103792500Y-77137500D02*
X106000000Y-79345000D01*
X98981500Y-77137500D02*
X103792500Y-77137500D01*
D28*
%TO.N,Net-(Q2-Pad1)*%
X85512500Y-66550000D02*
X85562500Y-66600000D01*
X83500000Y-66550000D02*
X85512500Y-66550000D01*
%TO.N,SSR*%
X124650000Y-62600000D02*
X123950000Y-62600000D01*
D30*
X122541000Y-62488000D02*
X123991000Y-62488000D01*
X121219000Y-63810000D02*
X122541000Y-62488000D01*
X121219000Y-71578998D02*
X121219000Y-63810000D01*
X119545999Y-73251999D02*
X121219000Y-71578998D01*
X106000000Y-81885000D02*
X119040998Y-81885000D01*
X119040998Y-81885000D02*
X121549999Y-79375999D01*
X121549999Y-76591999D02*
X119545999Y-74587999D01*
X121549999Y-79375999D02*
X121549999Y-76591999D01*
X119545999Y-74587999D02*
X119545999Y-73251999D01*
%TO.N,Net-(R2-Pad2)*%
X102930000Y-92045000D02*
X102375000Y-92600000D01*
X106000000Y-92045000D02*
X102930000Y-92045000D01*
%TO.N,Net-(R3-Pad2)*%
X106000000Y-90775000D02*
X102550000Y-90775000D01*
%TO.N,Net-(R4-Pad1)*%
X120239000Y-50135000D02*
X121412000Y-51308000D01*
X119936000Y-50135000D02*
X120239000Y-50135000D01*
X117911012Y-70798990D02*
X103445010Y-70798990D01*
X120396000Y-68314002D02*
X117911012Y-70798990D01*
X103445010Y-70798990D02*
X98981500Y-75262500D01*
X120396000Y-52832000D02*
X120396000Y-68314002D01*
%TO.N,Net-(R5-Pad1)*%
X83995500Y-98963000D02*
X85930500Y-97028000D01*
X82502000Y-98963000D02*
X83995500Y-98963000D01*
%TO.N,ROTA*%
X98298000Y-89816002D02*
X98298000Y-90170000D01*
X101149002Y-86965000D02*
X98298000Y-89816002D01*
X106000000Y-86965000D02*
X101149002Y-86965000D01*
%TO.N,ROTB*%
X98823000Y-85695000D02*
X98298000Y-85170000D01*
X106000000Y-85695000D02*
X98823000Y-85695000D01*
%TO.N,RotarySwitch*%
X98701761Y-81597999D02*
X94680003Y-81597999D01*
X100258762Y-83155000D02*
X98701761Y-81597999D01*
X86108002Y-90170000D02*
X83798000Y-90170000D01*
X94680003Y-81597999D02*
X86108002Y-90170000D01*
X106000000Y-83155000D02*
X100258762Y-83155000D01*
%TO.N,DOWN*%
X104402964Y-71873036D02*
X100838000Y-75438000D01*
X118575001Y-71873036D02*
X104402964Y-71873036D01*
X118945000Y-78345000D02*
X118575001Y-77975001D01*
X118575001Y-77975001D02*
X118575001Y-71873036D01*
X98044000Y-79248000D02*
X85635000Y-79248000D01*
%TO.N,UP*%
X123000000Y-80615000D02*
X124049000Y-80615000D01*
X124049000Y-80615000D02*
X124968000Y-81534000D01*
%TO.N,GPIO39*%
X128270000Y-85710034D02*
X128270000Y-85090000D01*
X123000000Y-90775000D02*
X124057920Y-90775000D01*
X124057920Y-90775000D02*
X125196460Y-89636460D01*
X127254000Y-84550000D02*
X128302000Y-85598000D01*
X127254000Y-84328000D02*
X127254000Y-84550000D01*
%TO.N,GPIO36*%
X129176999Y-86723001D02*
X130302000Y-85598000D01*
X127257033Y-86723001D02*
X129176999Y-86723001D01*
X126444990Y-87535044D02*
X127257033Y-86723001D01*
X123990002Y-92045000D02*
X126444990Y-89590012D01*
X126444990Y-89590012D02*
X126444990Y-87535044D01*
X123000000Y-92045000D02*
X123990002Y-92045000D01*
%TO.N,GPIO35*%
X123000000Y-88235000D02*
X121255000Y-88235000D01*
X121255000Y-88235000D02*
X121158000Y-88138000D01*
%TO.N,GPIO34*%
X123990002Y-89505000D02*
X125222000Y-88273002D01*
X123000000Y-89505000D02*
X123990002Y-89505000D01*
X125222000Y-86678000D02*
X126302000Y-85598000D01*
X125222000Y-88273002D02*
X125222000Y-86678000D01*
%TO.N,GPIO33*%
X123000000Y-85695000D02*
X121255000Y-85695000D01*
X121255000Y-85695000D02*
X121158000Y-85598000D01*
%TO.N,GPIO32*%
X123000000Y-86965000D02*
X121255000Y-86965000D01*
X121255000Y-86965000D02*
X121158000Y-86868000D01*
%TO.N,GPIO27*%
X124559999Y-82384001D02*
X125641999Y-82384001D01*
X125641999Y-82384001D02*
X125948979Y-82077021D01*
X123000000Y-81885000D02*
X124060998Y-81885000D01*
X124060998Y-81885000D02*
X124559999Y-82384001D01*
%TO.N,GPIO26*%
X123000000Y-83155000D02*
X126843000Y-83155000D01*
X126843000Y-83155000D02*
X127000000Y-83312000D01*
D28*
%TO.N,GPIO2*%
X108785000Y-78345000D02*
X108545000Y-78345000D01*
D30*
%TO.N,GPIO15*%
X110300000Y-74463002D02*
X110300000Y-74168000D01*
X110055000Y-74953000D02*
X110332000Y-74676000D01*
X110055000Y-78345000D02*
X110055000Y-74953000D01*
%TO.N,GPIO4*%
X107450001Y-80155001D02*
X107450001Y-75794001D01*
X106990002Y-80615000D02*
X107450001Y-80155001D01*
X107450001Y-75794001D02*
X106332000Y-74676000D01*
X106000000Y-80615000D02*
X106990002Y-80615000D01*
%TO.N,GPIO2*%
X108785000Y-75129000D02*
X108332000Y-74676000D01*
X108785000Y-78345000D02*
X108785000Y-75129000D01*
D29*
%TO.N,Net-(IC3-Pad1)*%
X123991000Y-68443500D02*
X124460000Y-68912500D01*
X123991000Y-65028000D02*
X123991000Y-68443500D01*
D30*
%TO.N,Net-(R9-Pad1)*%
X67056000Y-78329000D02*
X66040000Y-77313000D01*
X67056000Y-87588000D02*
X67056000Y-78329000D01*
%TO.N,Net-(R10-Pad1)*%
X76962000Y-38862000D02*
X73152000Y-42672000D01*
X67056000Y-46594998D02*
X67056000Y-50504000D01*
X70978998Y-42672000D02*
X67056000Y-46594998D01*
X73152000Y-42672000D02*
X70978998Y-42672000D01*
%TO.N,LEDUP*%
X122903000Y-84328000D02*
X123000000Y-84425000D01*
X121412000Y-84328000D02*
X122903000Y-84328000D01*
%TO.N,LEDDown*%
X80556000Y-89074002D02*
X80556000Y-87588000D01*
X83101999Y-91620001D02*
X80556000Y-89074002D01*
X92558003Y-91620001D02*
X83101999Y-91620001D01*
X95523002Y-94585000D02*
X92558003Y-91620001D01*
X106000000Y-94585000D02*
X95523002Y-94585000D01*
D29*
%TO.N,Earth*%
X107912000Y-59220000D02*
X106680000Y-60452000D01*
X110500000Y-59220000D02*
X107912000Y-59220000D01*
X106680000Y-58674000D02*
X106934000Y-58420000D01*
X106680000Y-60452000D02*
X106680000Y-58674000D01*
X109700000Y-58420000D02*
X110500000Y-59220000D01*
X106934000Y-58420000D02*
X109700000Y-58420000D01*
X112062000Y-57658000D02*
X115316000Y-57658000D01*
X110500000Y-59220000D02*
X112062000Y-57658000D01*
X115316000Y-57658000D02*
X108458000Y-57658000D01*
X108458000Y-57658000D02*
X105664000Y-60452000D01*
X87884000Y-56134000D02*
X87376000Y-56134000D01*
X87376000Y-56134000D02*
X86106000Y-54864000D01*
X86106000Y-54864000D02*
X86106000Y-51054000D01*
X86106000Y-51054000D02*
X88138000Y-49022000D01*
X91186000Y-49022000D02*
X91440000Y-48768000D01*
X88138000Y-49022000D02*
X91186000Y-49022000D01*
X91440000Y-48768000D02*
X113538000Y-48768000D01*
X115316000Y-50546000D02*
X115316000Y-57658000D01*
X113538000Y-48768000D02*
X115316000Y-50546000D01*
D31*
X92202000Y-56134000D02*
X87884000Y-56134000D01*
X92202000Y-57658000D02*
X92202000Y-56134000D01*
X105664000Y-60452000D02*
X94996000Y-60452000D01*
X94996000Y-60452000D02*
X92202000Y-57658000D01*
X106680000Y-60452000D02*
X106680000Y-67564000D01*
D30*
X106680000Y-67564000D02*
X106680000Y-68072000D01*
X106680000Y-68072000D02*
X107442000Y-68834000D01*
X107442000Y-68834000D02*
X114808000Y-68834000D01*
X114808000Y-68834000D02*
X117348000Y-66294000D01*
X117348000Y-59690000D02*
X115316000Y-57658000D01*
X117348000Y-66294000D02*
X117348000Y-59690000D01*
%TO.N,DHT*%
X125984000Y-63934484D02*
X122974514Y-63934484D01*
X125984000Y-59182000D02*
X125984000Y-63934484D01*
X122974514Y-63934484D02*
X122349990Y-64559008D01*
X122349990Y-64559008D02*
X122349990Y-71960010D01*
X122349990Y-71960010D02*
X120396000Y-73914000D01*
X106000000Y-84425000D02*
X107091000Y-84425000D01*
X107091000Y-84425000D02*
X107950000Y-83566000D01*
%TD*%
D32*
%TO.N,GND*%
G36*
X78363001Y-72854521D02*
G01*
X78358719Y-72898000D01*
X78375805Y-73071490D01*
X78426412Y-73238313D01*
X78508590Y-73392059D01*
X78591468Y-73493046D01*
X78591471Y-73493049D01*
X78619184Y-73526817D01*
X78652951Y-73554530D01*
X82653363Y-77554942D01*
X82617716Y-77598377D01*
X82512324Y-77795554D01*
X82447423Y-78009502D01*
X82431000Y-78176249D01*
X82431000Y-78684249D01*
X82425509Y-78740000D01*
X82431000Y-78795751D01*
X82431000Y-78795752D01*
X82447423Y-78962499D01*
X82512324Y-79176447D01*
X82617717Y-79373623D01*
X82759552Y-79546449D01*
X82802860Y-79581991D01*
X82978012Y-79757143D01*
X88390856Y-85169988D01*
X88520377Y-85276283D01*
X88717553Y-85381675D01*
X88798164Y-85406129D01*
X88858063Y-85495774D01*
X89002226Y-85639937D01*
X89171744Y-85753205D01*
X89243497Y-85782926D01*
X85741424Y-89285000D01*
X85173059Y-89285000D01*
X85067987Y-89127748D01*
X84840252Y-88900013D01*
X84572463Y-88721082D01*
X84274912Y-88597832D01*
X83959033Y-88535000D01*
X83636967Y-88535000D01*
X83321088Y-88597832D01*
X83023537Y-88721082D01*
X82755748Y-88900013D01*
X82528013Y-89127748D01*
X82349082Y-89395537D01*
X82284655Y-89551078D01*
X81441000Y-88707424D01*
X81441000Y-88520265D01*
X81554125Y-88407140D01*
X81694753Y-88196676D01*
X81791619Y-87962821D01*
X81841000Y-87714561D01*
X81841000Y-87461439D01*
X81791619Y-87213179D01*
X81694753Y-86979324D01*
X81554125Y-86768860D01*
X81375140Y-86589875D01*
X81164676Y-86449247D01*
X80930821Y-86352381D01*
X80682561Y-86303000D01*
X80429439Y-86303000D01*
X80181179Y-86352381D01*
X79947324Y-86449247D01*
X79736860Y-86589875D01*
X79557875Y-86768860D01*
X79506336Y-86845994D01*
X79348312Y-86609495D01*
X79134505Y-86395688D01*
X78883095Y-86227701D01*
X78603743Y-86111989D01*
X78307184Y-86053000D01*
X78004816Y-86053000D01*
X77708257Y-86111989D01*
X77428905Y-86227701D01*
X77177495Y-86395688D01*
X76963688Y-86609495D01*
X76795701Y-86860905D01*
X76679989Y-87140257D01*
X76621000Y-87436816D01*
X76621000Y-87739184D01*
X76679989Y-88035743D01*
X76795701Y-88315095D01*
X76963688Y-88566505D01*
X77177495Y-88780312D01*
X77428905Y-88948299D01*
X77708257Y-89064011D01*
X78004816Y-89123000D01*
X78307184Y-89123000D01*
X78603743Y-89064011D01*
X78883095Y-88948299D01*
X79134505Y-88780312D01*
X79348312Y-88566505D01*
X79506336Y-88330006D01*
X79557875Y-88407140D01*
X79671000Y-88520265D01*
X79671000Y-89030532D01*
X79666719Y-89074002D01*
X79671000Y-89117471D01*
X79671000Y-89117478D01*
X79680658Y-89215537D01*
X79683805Y-89247492D01*
X79688184Y-89261928D01*
X79734411Y-89414314D01*
X79816589Y-89568060D01*
X79927183Y-89702819D01*
X79960956Y-89730536D01*
X82445469Y-92215050D01*
X82473182Y-92248818D01*
X82506950Y-92276531D01*
X82506952Y-92276533D01*
X82544995Y-92307754D01*
X82607940Y-92359412D01*
X82761686Y-92441590D01*
X82928509Y-92492196D01*
X83058522Y-92505001D01*
X83058532Y-92505001D01*
X83101998Y-92509282D01*
X83145464Y-92505001D01*
X85989956Y-92505001D01*
X85869744Y-92554795D01*
X85700226Y-92668063D01*
X85556063Y-92812226D01*
X85442795Y-92981744D01*
X85364774Y-93170102D01*
X85325000Y-93370061D01*
X85325000Y-93573939D01*
X85364774Y-93773898D01*
X85442795Y-93962256D01*
X85556063Y-94131774D01*
X85700226Y-94275937D01*
X85869744Y-94389205D01*
X86058102Y-94467226D01*
X86114957Y-94478535D01*
X86920501Y-95284080D01*
X86920501Y-95969785D01*
X86868000Y-96033756D01*
X86797792Y-95948208D01*
X86664164Y-95838542D01*
X86511709Y-95757053D01*
X86346285Y-95706872D01*
X86174250Y-95689928D01*
X85686750Y-95689928D01*
X85514715Y-95706872D01*
X85349291Y-95757053D01*
X85196836Y-95838542D01*
X85063208Y-95948208D01*
X84953542Y-96081836D01*
X84872053Y-96234291D01*
X84821872Y-96399715D01*
X84804928Y-96571750D01*
X84804928Y-96901993D01*
X83628922Y-98078000D01*
X83381518Y-98078000D01*
X83356494Y-98057463D01*
X83246180Y-97998498D01*
X83126482Y-97962188D01*
X83002000Y-97949928D01*
X82002000Y-97949928D01*
X81877518Y-97962188D01*
X81757820Y-97998498D01*
X81647506Y-98057463D01*
X81550815Y-98136815D01*
X81471463Y-98233506D01*
X81412498Y-98343820D01*
X81376188Y-98463518D01*
X81363928Y-98588000D01*
X81363928Y-99338000D01*
X81376188Y-99462482D01*
X81412498Y-99582180D01*
X81471463Y-99692494D01*
X81550815Y-99789185D01*
X81647506Y-99868537D01*
X81757820Y-99927502D01*
X81877518Y-99963812D01*
X82002000Y-99976072D01*
X83002000Y-99976072D01*
X83126482Y-99963812D01*
X83246180Y-99927502D01*
X83356494Y-99868537D01*
X83381518Y-99848000D01*
X83952031Y-99848000D01*
X83995500Y-99852281D01*
X84038969Y-99848000D01*
X84038977Y-99848000D01*
X84168990Y-99835195D01*
X84335813Y-99784589D01*
X84489559Y-99702411D01*
X84624317Y-99591817D01*
X84652034Y-99558044D01*
X85844007Y-98366072D01*
X86174250Y-98366072D01*
X86346285Y-98349128D01*
X86511709Y-98298947D01*
X86664164Y-98217458D01*
X86797792Y-98107792D01*
X86868000Y-98022244D01*
X86938208Y-98107792D01*
X87071836Y-98217458D01*
X87224291Y-98298947D01*
X87389715Y-98349128D01*
X87561750Y-98366072D01*
X87770216Y-98366072D01*
X87770460Y-98373276D01*
X87794397Y-98958285D01*
X87803608Y-99024304D01*
X87811887Y-99090363D01*
X87814218Y-99100347D01*
X87814219Y-99100355D01*
X87814221Y-99100362D01*
X87951331Y-99669574D01*
X87973189Y-99732543D01*
X87994141Y-99795736D01*
X87998368Y-99805079D01*
X87998371Y-99805088D01*
X87998375Y-99805095D01*
X88243430Y-100336831D01*
X88277108Y-100394364D01*
X88309932Y-100452279D01*
X88315897Y-100460629D01*
X88659574Y-100934648D01*
X88703783Y-100984542D01*
X88747232Y-101034979D01*
X88754706Y-101042012D01*
X88773000Y-101058986D01*
X88773000Y-104365000D01*
X68035957Y-104365000D01*
X67366512Y-104299361D01*
X66757147Y-104115383D01*
X66195130Y-103816553D01*
X65701855Y-103414249D01*
X65296116Y-102923794D01*
X64993365Y-102363868D01*
X64805140Y-101755814D01*
X64735000Y-101088478D01*
X64735000Y-97902402D01*
X65250042Y-97902402D01*
X65251008Y-97912619D01*
X65285523Y-98252410D01*
X65298693Y-98317725D01*
X65310945Y-98383193D01*
X65313876Y-98393028D01*
X65413733Y-98719644D01*
X65439352Y-98781191D01*
X65464073Y-98842996D01*
X65468855Y-98852066D01*
X65468859Y-98852076D01*
X65468864Y-98852084D01*
X65630254Y-99153076D01*
X65667335Y-99208466D01*
X65703595Y-99264303D01*
X65710053Y-99272279D01*
X65926839Y-99536198D01*
X65926850Y-99536209D01*
X65949544Y-99563862D01*
X69536137Y-103150456D01*
X69565152Y-103174268D01*
X69581204Y-103190320D01*
X69589179Y-103196779D01*
X69856100Y-103409858D01*
X69912004Y-103446162D01*
X69967325Y-103483196D01*
X69976402Y-103487983D01*
X70279626Y-103645160D01*
X70341517Y-103669914D01*
X70402982Y-103695500D01*
X70412817Y-103698432D01*
X70740796Y-103793718D01*
X70806277Y-103805972D01*
X70871575Y-103819139D01*
X70881792Y-103820105D01*
X71222032Y-103849873D01*
X71288656Y-103849175D01*
X71355265Y-103849408D01*
X71365474Y-103848371D01*
X71705018Y-103811484D01*
X71770253Y-103797855D01*
X71835616Y-103785150D01*
X71845430Y-103782150D01*
X72171342Y-103680016D01*
X72232724Y-103653961D01*
X72294342Y-103628815D01*
X72303387Y-103623966D01*
X72603253Y-103460473D01*
X72658394Y-103422999D01*
X72713963Y-103386358D01*
X72721893Y-103379845D01*
X72984293Y-103161222D01*
X73031068Y-103113788D01*
X73078502Y-103067013D01*
X73085016Y-103059083D01*
X73299954Y-102793656D01*
X73336639Y-102738020D01*
X73374069Y-102682944D01*
X73378918Y-102673900D01*
X73538207Y-102371781D01*
X73551992Y-102338000D01*
X75363928Y-102338000D01*
X75363928Y-103088000D01*
X75376188Y-103212482D01*
X75412498Y-103332180D01*
X75471463Y-103442494D01*
X75550815Y-103539185D01*
X75647506Y-103618537D01*
X75757820Y-103677502D01*
X75877518Y-103713812D01*
X76002000Y-103726072D01*
X77002000Y-103726072D01*
X77126482Y-103713812D01*
X77246180Y-103677502D01*
X77356494Y-103618537D01*
X77453185Y-103539185D01*
X77532537Y-103442494D01*
X77591502Y-103332180D01*
X77627812Y-103212482D01*
X77640072Y-103088000D01*
X77640072Y-102338000D01*
X77627812Y-102213518D01*
X77591502Y-102093820D01*
X77532537Y-101983506D01*
X77453185Y-101886815D01*
X77356494Y-101807463D01*
X77246180Y-101748498D01*
X77126482Y-101712188D01*
X77002000Y-101699928D01*
X76002000Y-101699928D01*
X75877518Y-101712188D01*
X75757820Y-101748498D01*
X75647506Y-101807463D01*
X75550815Y-101886815D01*
X75471463Y-101983506D01*
X75412498Y-102093820D01*
X75376188Y-102213518D01*
X75363928Y-102338000D01*
X73551992Y-102338000D01*
X73563398Y-102310053D01*
X73589406Y-102248781D01*
X73592407Y-102238968D01*
X73689981Y-101911662D01*
X73702695Y-101846256D01*
X73716315Y-101781061D01*
X73717352Y-101770851D01*
X73749494Y-101430827D01*
X73749261Y-101364187D01*
X73749959Y-101297597D01*
X73748993Y-101287380D01*
X73714478Y-100947588D01*
X73701307Y-100882267D01*
X73689056Y-100816806D01*
X73686125Y-100806971D01*
X73586268Y-100480355D01*
X73560649Y-100418809D01*
X73535928Y-100357003D01*
X73531143Y-100347925D01*
X73369747Y-100046924D01*
X73332688Y-99991566D01*
X73296406Y-99935696D01*
X73289948Y-99927721D01*
X73073162Y-99663801D01*
X73073157Y-99663796D01*
X73050457Y-99636136D01*
X72002321Y-98588000D01*
X75363928Y-98588000D01*
X75363928Y-99338000D01*
X75376188Y-99462482D01*
X75412498Y-99582180D01*
X75471463Y-99692494D01*
X75550815Y-99789185D01*
X75647506Y-99868537D01*
X75757820Y-99927502D01*
X75877518Y-99963812D01*
X76002000Y-99976072D01*
X77002000Y-99976072D01*
X77126482Y-99963812D01*
X77246180Y-99927502D01*
X77356494Y-99868537D01*
X77453185Y-99789185D01*
X77532537Y-99692494D01*
X77591502Y-99582180D01*
X77627812Y-99462482D01*
X77640072Y-99338000D01*
X77640072Y-98588000D01*
X77627812Y-98463518D01*
X77591502Y-98343820D01*
X77532537Y-98233506D01*
X77453185Y-98136815D01*
X77356494Y-98057463D01*
X77246180Y-97998498D01*
X77126482Y-97962188D01*
X77002000Y-97949928D01*
X76002000Y-97949928D01*
X75877518Y-97962188D01*
X75757820Y-97998498D01*
X75647506Y-98057463D01*
X75550815Y-98136815D01*
X75471463Y-98233506D01*
X75412498Y-98343820D01*
X75376188Y-98463518D01*
X75363928Y-98588000D01*
X72002321Y-98588000D01*
X69463863Y-96049543D01*
X69434856Y-96025738D01*
X69418797Y-96009679D01*
X69410822Y-96003220D01*
X69143901Y-95790141D01*
X69088015Y-95753849D01*
X69032677Y-95716803D01*
X69023599Y-95712016D01*
X68720375Y-95554839D01*
X68658471Y-95530079D01*
X68597018Y-95504499D01*
X68587184Y-95501567D01*
X68259205Y-95406281D01*
X68193724Y-95394027D01*
X68128426Y-95380860D01*
X68118210Y-95379894D01*
X67777969Y-95350126D01*
X67711346Y-95350824D01*
X67644737Y-95350591D01*
X67634527Y-95351628D01*
X67294984Y-95388515D01*
X67229762Y-95402141D01*
X67164385Y-95414849D01*
X67154571Y-95417849D01*
X66828660Y-95519983D01*
X66767291Y-95546033D01*
X66705659Y-95571184D01*
X66696614Y-95576033D01*
X66396748Y-95739526D01*
X66341622Y-95776990D01*
X66286038Y-95813641D01*
X66278108Y-95820154D01*
X66015708Y-96038777D01*
X65968896Y-96086247D01*
X65921499Y-96132987D01*
X65914990Y-96140911D01*
X65914986Y-96140915D01*
X65914985Y-96140917D01*
X65700047Y-96406343D01*
X65663362Y-96461979D01*
X65625932Y-96517055D01*
X65621083Y-96526099D01*
X65461794Y-96828218D01*
X65436617Y-96889913D01*
X65410594Y-96951218D01*
X65407594Y-96961032D01*
X65310020Y-97288337D01*
X65297308Y-97353736D01*
X65283686Y-97418938D01*
X65282649Y-97429148D01*
X65250507Y-97769172D01*
X65250740Y-97835779D01*
X65250042Y-97902402D01*
X64735000Y-97902402D01*
X64735000Y-93479429D01*
X69696000Y-93479429D01*
X69696000Y-93796571D01*
X69757871Y-94107620D01*
X69879237Y-94400621D01*
X70055431Y-94664315D01*
X70279685Y-94888569D01*
X70543379Y-95064763D01*
X70836380Y-95186129D01*
X71147429Y-95248000D01*
X71464571Y-95248000D01*
X71775620Y-95186129D01*
X72068621Y-95064763D01*
X72332315Y-94888569D01*
X72556569Y-94664315D01*
X72732763Y-94400621D01*
X72854129Y-94107620D01*
X72916000Y-93796571D01*
X72916000Y-93479429D01*
X74696000Y-93479429D01*
X74696000Y-93796571D01*
X74757871Y-94107620D01*
X74879237Y-94400621D01*
X75055431Y-94664315D01*
X75279685Y-94888569D01*
X75543379Y-95064763D01*
X75836380Y-95186129D01*
X76147429Y-95248000D01*
X76464571Y-95248000D01*
X76775620Y-95186129D01*
X77068621Y-95064763D01*
X77332315Y-94888569D01*
X77556569Y-94664315D01*
X77732763Y-94400621D01*
X77854129Y-94107620D01*
X77916000Y-93796571D01*
X77916000Y-93479429D01*
X77854129Y-93168380D01*
X77732763Y-92875379D01*
X77556569Y-92611685D01*
X77332315Y-92387431D01*
X77068621Y-92211237D01*
X76775620Y-92089871D01*
X76464571Y-92028000D01*
X76147429Y-92028000D01*
X75836380Y-92089871D01*
X75543379Y-92211237D01*
X75279685Y-92387431D01*
X75055431Y-92611685D01*
X74879237Y-92875379D01*
X74757871Y-93168380D01*
X74696000Y-93479429D01*
X72916000Y-93479429D01*
X72854129Y-93168380D01*
X72732763Y-92875379D01*
X72556569Y-92611685D01*
X72332315Y-92387431D01*
X72068621Y-92211237D01*
X71775620Y-92089871D01*
X71464571Y-92028000D01*
X71147429Y-92028000D01*
X70836380Y-92089871D01*
X70543379Y-92211237D01*
X70279685Y-92387431D01*
X70055431Y-92611685D01*
X69879237Y-92875379D01*
X69757871Y-93168380D01*
X69696000Y-93479429D01*
X64735000Y-93479429D01*
X64735000Y-77781952D01*
X64769053Y-77894209D01*
X64850542Y-78046664D01*
X64960208Y-78180292D01*
X65093836Y-78289958D01*
X65246291Y-78371447D01*
X65411715Y-78421628D01*
X65583750Y-78438572D01*
X65913994Y-78438572D01*
X66171001Y-78695580D01*
X66171000Y-86655735D01*
X66057875Y-86768860D01*
X65917247Y-86979324D01*
X65820381Y-87213179D01*
X65771000Y-87461439D01*
X65771000Y-87714561D01*
X65820381Y-87962821D01*
X65917247Y-88196676D01*
X66057875Y-88407140D01*
X66236860Y-88586125D01*
X66447324Y-88726753D01*
X66681179Y-88823619D01*
X66929439Y-88873000D01*
X67182561Y-88873000D01*
X67430821Y-88823619D01*
X67664676Y-88726753D01*
X67875140Y-88586125D01*
X68054125Y-88407140D01*
X68105664Y-88330006D01*
X68263688Y-88566505D01*
X68477495Y-88780312D01*
X68728905Y-88948299D01*
X69008257Y-89064011D01*
X69304816Y-89123000D01*
X69607184Y-89123000D01*
X69903743Y-89064011D01*
X70183095Y-88948299D01*
X70434505Y-88780312D01*
X70648312Y-88566505D01*
X70816299Y-88315095D01*
X70932011Y-88035743D01*
X70991000Y-87739184D01*
X70991000Y-87436816D01*
X70932011Y-87140257D01*
X70816299Y-86860905D01*
X70648312Y-86609495D01*
X70434505Y-86395688D01*
X70183095Y-86227701D01*
X69903743Y-86111989D01*
X69607184Y-86053000D01*
X69304816Y-86053000D01*
X69008257Y-86111989D01*
X68728905Y-86227701D01*
X68477495Y-86395688D01*
X68263688Y-86609495D01*
X68105664Y-86845994D01*
X68054125Y-86768860D01*
X67941000Y-86655735D01*
X67941000Y-78372469D01*
X67945281Y-78329000D01*
X67941000Y-78285531D01*
X67941000Y-78285523D01*
X67928195Y-78155510D01*
X67927597Y-78153537D01*
X67898560Y-78057818D01*
X67877589Y-77988687D01*
X67795411Y-77834941D01*
X67740632Y-77768193D01*
X67712532Y-77733953D01*
X67712530Y-77733951D01*
X67684817Y-77700183D01*
X67651049Y-77672470D01*
X67378072Y-77399493D01*
X67378072Y-77069250D01*
X67361128Y-76897215D01*
X67334225Y-76808527D01*
X70753004Y-76808527D01*
X70796473Y-76812808D01*
X70839942Y-76808527D01*
X70839950Y-76808527D01*
X70969963Y-76795722D01*
X71136786Y-76745116D01*
X71290532Y-76662938D01*
X71425290Y-76552344D01*
X71453007Y-76518571D01*
X74023348Y-73948230D01*
X74072068Y-74193158D01*
X74184010Y-74463411D01*
X74346525Y-74706632D01*
X74553368Y-74913475D01*
X74796589Y-75075990D01*
X75066842Y-75187932D01*
X75353740Y-75245000D01*
X75646260Y-75245000D01*
X75933158Y-75187932D01*
X76203411Y-75075990D01*
X76446632Y-74913475D01*
X76653475Y-74706632D01*
X76815990Y-74463411D01*
X76927932Y-74193158D01*
X76985000Y-73906260D01*
X76985000Y-73613740D01*
X76970539Y-73541039D01*
X78363001Y-72148578D01*
X78363001Y-72854521D01*
G37*
X78363001Y-72854521D02*
X78358719Y-72898000D01*
X78375805Y-73071490D01*
X78426412Y-73238313D01*
X78508590Y-73392059D01*
X78591468Y-73493046D01*
X78591471Y-73493049D01*
X78619184Y-73526817D01*
X78652951Y-73554530D01*
X82653363Y-77554942D01*
X82617716Y-77598377D01*
X82512324Y-77795554D01*
X82447423Y-78009502D01*
X82431000Y-78176249D01*
X82431000Y-78684249D01*
X82425509Y-78740000D01*
X82431000Y-78795751D01*
X82431000Y-78795752D01*
X82447423Y-78962499D01*
X82512324Y-79176447D01*
X82617717Y-79373623D01*
X82759552Y-79546449D01*
X82802860Y-79581991D01*
X82978012Y-79757143D01*
X88390856Y-85169988D01*
X88520377Y-85276283D01*
X88717553Y-85381675D01*
X88798164Y-85406129D01*
X88858063Y-85495774D01*
X89002226Y-85639937D01*
X89171744Y-85753205D01*
X89243497Y-85782926D01*
X85741424Y-89285000D01*
X85173059Y-89285000D01*
X85067987Y-89127748D01*
X84840252Y-88900013D01*
X84572463Y-88721082D01*
X84274912Y-88597832D01*
X83959033Y-88535000D01*
X83636967Y-88535000D01*
X83321088Y-88597832D01*
X83023537Y-88721082D01*
X82755748Y-88900013D01*
X82528013Y-89127748D01*
X82349082Y-89395537D01*
X82284655Y-89551078D01*
X81441000Y-88707424D01*
X81441000Y-88520265D01*
X81554125Y-88407140D01*
X81694753Y-88196676D01*
X81791619Y-87962821D01*
X81841000Y-87714561D01*
X81841000Y-87461439D01*
X81791619Y-87213179D01*
X81694753Y-86979324D01*
X81554125Y-86768860D01*
X81375140Y-86589875D01*
X81164676Y-86449247D01*
X80930821Y-86352381D01*
X80682561Y-86303000D01*
X80429439Y-86303000D01*
X80181179Y-86352381D01*
X79947324Y-86449247D01*
X79736860Y-86589875D01*
X79557875Y-86768860D01*
X79506336Y-86845994D01*
X79348312Y-86609495D01*
X79134505Y-86395688D01*
X78883095Y-86227701D01*
X78603743Y-86111989D01*
X78307184Y-86053000D01*
X78004816Y-86053000D01*
X77708257Y-86111989D01*
X77428905Y-86227701D01*
X77177495Y-86395688D01*
X76963688Y-86609495D01*
X76795701Y-86860905D01*
X76679989Y-87140257D01*
X76621000Y-87436816D01*
X76621000Y-87739184D01*
X76679989Y-88035743D01*
X76795701Y-88315095D01*
X76963688Y-88566505D01*
X77177495Y-88780312D01*
X77428905Y-88948299D01*
X77708257Y-89064011D01*
X78004816Y-89123000D01*
X78307184Y-89123000D01*
X78603743Y-89064011D01*
X78883095Y-88948299D01*
X79134505Y-88780312D01*
X79348312Y-88566505D01*
X79506336Y-88330006D01*
X79557875Y-88407140D01*
X79671000Y-88520265D01*
X79671000Y-89030532D01*
X79666719Y-89074002D01*
X79671000Y-89117471D01*
X79671000Y-89117478D01*
X79680658Y-89215537D01*
X79683805Y-89247492D01*
X79688184Y-89261928D01*
X79734411Y-89414314D01*
X79816589Y-89568060D01*
X79927183Y-89702819D01*
X79960956Y-89730536D01*
X82445469Y-92215050D01*
X82473182Y-92248818D01*
X82506950Y-92276531D01*
X82506952Y-92276533D01*
X82544995Y-92307754D01*
X82607940Y-92359412D01*
X82761686Y-92441590D01*
X82928509Y-92492196D01*
X83058522Y-92505001D01*
X83058532Y-92505001D01*
X83101998Y-92509282D01*
X83145464Y-92505001D01*
X85989956Y-92505001D01*
X85869744Y-92554795D01*
X85700226Y-92668063D01*
X85556063Y-92812226D01*
X85442795Y-92981744D01*
X85364774Y-93170102D01*
X85325000Y-93370061D01*
X85325000Y-93573939D01*
X85364774Y-93773898D01*
X85442795Y-93962256D01*
X85556063Y-94131774D01*
X85700226Y-94275937D01*
X85869744Y-94389205D01*
X86058102Y-94467226D01*
X86114957Y-94478535D01*
X86920501Y-95284080D01*
X86920501Y-95969785D01*
X86868000Y-96033756D01*
X86797792Y-95948208D01*
X86664164Y-95838542D01*
X86511709Y-95757053D01*
X86346285Y-95706872D01*
X86174250Y-95689928D01*
X85686750Y-95689928D01*
X85514715Y-95706872D01*
X85349291Y-95757053D01*
X85196836Y-95838542D01*
X85063208Y-95948208D01*
X84953542Y-96081836D01*
X84872053Y-96234291D01*
X84821872Y-96399715D01*
X84804928Y-96571750D01*
X84804928Y-96901993D01*
X83628922Y-98078000D01*
X83381518Y-98078000D01*
X83356494Y-98057463D01*
X83246180Y-97998498D01*
X83126482Y-97962188D01*
X83002000Y-97949928D01*
X82002000Y-97949928D01*
X81877518Y-97962188D01*
X81757820Y-97998498D01*
X81647506Y-98057463D01*
X81550815Y-98136815D01*
X81471463Y-98233506D01*
X81412498Y-98343820D01*
X81376188Y-98463518D01*
X81363928Y-98588000D01*
X81363928Y-99338000D01*
X81376188Y-99462482D01*
X81412498Y-99582180D01*
X81471463Y-99692494D01*
X81550815Y-99789185D01*
X81647506Y-99868537D01*
X81757820Y-99927502D01*
X81877518Y-99963812D01*
X82002000Y-99976072D01*
X83002000Y-99976072D01*
X83126482Y-99963812D01*
X83246180Y-99927502D01*
X83356494Y-99868537D01*
X83381518Y-99848000D01*
X83952031Y-99848000D01*
X83995500Y-99852281D01*
X84038969Y-99848000D01*
X84038977Y-99848000D01*
X84168990Y-99835195D01*
X84335813Y-99784589D01*
X84489559Y-99702411D01*
X84624317Y-99591817D01*
X84652034Y-99558044D01*
X85844007Y-98366072D01*
X86174250Y-98366072D01*
X86346285Y-98349128D01*
X86511709Y-98298947D01*
X86664164Y-98217458D01*
X86797792Y-98107792D01*
X86868000Y-98022244D01*
X86938208Y-98107792D01*
X87071836Y-98217458D01*
X87224291Y-98298947D01*
X87389715Y-98349128D01*
X87561750Y-98366072D01*
X87770216Y-98366072D01*
X87770460Y-98373276D01*
X87794397Y-98958285D01*
X87803608Y-99024304D01*
X87811887Y-99090363D01*
X87814218Y-99100347D01*
X87814219Y-99100355D01*
X87814221Y-99100362D01*
X87951331Y-99669574D01*
X87973189Y-99732543D01*
X87994141Y-99795736D01*
X87998368Y-99805079D01*
X87998371Y-99805088D01*
X87998375Y-99805095D01*
X88243430Y-100336831D01*
X88277108Y-100394364D01*
X88309932Y-100452279D01*
X88315897Y-100460629D01*
X88659574Y-100934648D01*
X88703783Y-100984542D01*
X88747232Y-101034979D01*
X88754706Y-101042012D01*
X88773000Y-101058986D01*
X88773000Y-104365000D01*
X68035957Y-104365000D01*
X67366512Y-104299361D01*
X66757147Y-104115383D01*
X66195130Y-103816553D01*
X65701855Y-103414249D01*
X65296116Y-102923794D01*
X64993365Y-102363868D01*
X64805140Y-101755814D01*
X64735000Y-101088478D01*
X64735000Y-97902402D01*
X65250042Y-97902402D01*
X65251008Y-97912619D01*
X65285523Y-98252410D01*
X65298693Y-98317725D01*
X65310945Y-98383193D01*
X65313876Y-98393028D01*
X65413733Y-98719644D01*
X65439352Y-98781191D01*
X65464073Y-98842996D01*
X65468855Y-98852066D01*
X65468859Y-98852076D01*
X65468864Y-98852084D01*
X65630254Y-99153076D01*
X65667335Y-99208466D01*
X65703595Y-99264303D01*
X65710053Y-99272279D01*
X65926839Y-99536198D01*
X65926850Y-99536209D01*
X65949544Y-99563862D01*
X69536137Y-103150456D01*
X69565152Y-103174268D01*
X69581204Y-103190320D01*
X69589179Y-103196779D01*
X69856100Y-103409858D01*
X69912004Y-103446162D01*
X69967325Y-103483196D01*
X69976402Y-103487983D01*
X70279626Y-103645160D01*
X70341517Y-103669914D01*
X70402982Y-103695500D01*
X70412817Y-103698432D01*
X70740796Y-103793718D01*
X70806277Y-103805972D01*
X70871575Y-103819139D01*
X70881792Y-103820105D01*
X71222032Y-103849873D01*
X71288656Y-103849175D01*
X71355265Y-103849408D01*
X71365474Y-103848371D01*
X71705018Y-103811484D01*
X71770253Y-103797855D01*
X71835616Y-103785150D01*
X71845430Y-103782150D01*
X72171342Y-103680016D01*
X72232724Y-103653961D01*
X72294342Y-103628815D01*
X72303387Y-103623966D01*
X72603253Y-103460473D01*
X72658394Y-103422999D01*
X72713963Y-103386358D01*
X72721893Y-103379845D01*
X72984293Y-103161222D01*
X73031068Y-103113788D01*
X73078502Y-103067013D01*
X73085016Y-103059083D01*
X73299954Y-102793656D01*
X73336639Y-102738020D01*
X73374069Y-102682944D01*
X73378918Y-102673900D01*
X73538207Y-102371781D01*
X73551992Y-102338000D01*
X75363928Y-102338000D01*
X75363928Y-103088000D01*
X75376188Y-103212482D01*
X75412498Y-103332180D01*
X75471463Y-103442494D01*
X75550815Y-103539185D01*
X75647506Y-103618537D01*
X75757820Y-103677502D01*
X75877518Y-103713812D01*
X76002000Y-103726072D01*
X77002000Y-103726072D01*
X77126482Y-103713812D01*
X77246180Y-103677502D01*
X77356494Y-103618537D01*
X77453185Y-103539185D01*
X77532537Y-103442494D01*
X77591502Y-103332180D01*
X77627812Y-103212482D01*
X77640072Y-103088000D01*
X77640072Y-102338000D01*
X77627812Y-102213518D01*
X77591502Y-102093820D01*
X77532537Y-101983506D01*
X77453185Y-101886815D01*
X77356494Y-101807463D01*
X77246180Y-101748498D01*
X77126482Y-101712188D01*
X77002000Y-101699928D01*
X76002000Y-101699928D01*
X75877518Y-101712188D01*
X75757820Y-101748498D01*
X75647506Y-101807463D01*
X75550815Y-101886815D01*
X75471463Y-101983506D01*
X75412498Y-102093820D01*
X75376188Y-102213518D01*
X75363928Y-102338000D01*
X73551992Y-102338000D01*
X73563398Y-102310053D01*
X73589406Y-102248781D01*
X73592407Y-102238968D01*
X73689981Y-101911662D01*
X73702695Y-101846256D01*
X73716315Y-101781061D01*
X73717352Y-101770851D01*
X73749494Y-101430827D01*
X73749261Y-101364187D01*
X73749959Y-101297597D01*
X73748993Y-101287380D01*
X73714478Y-100947588D01*
X73701307Y-100882267D01*
X73689056Y-100816806D01*
X73686125Y-100806971D01*
X73586268Y-100480355D01*
X73560649Y-100418809D01*
X73535928Y-100357003D01*
X73531143Y-100347925D01*
X73369747Y-100046924D01*
X73332688Y-99991566D01*
X73296406Y-99935696D01*
X73289948Y-99927721D01*
X73073162Y-99663801D01*
X73073157Y-99663796D01*
X73050457Y-99636136D01*
X72002321Y-98588000D01*
X75363928Y-98588000D01*
X75363928Y-99338000D01*
X75376188Y-99462482D01*
X75412498Y-99582180D01*
X75471463Y-99692494D01*
X75550815Y-99789185D01*
X75647506Y-99868537D01*
X75757820Y-99927502D01*
X75877518Y-99963812D01*
X76002000Y-99976072D01*
X77002000Y-99976072D01*
X77126482Y-99963812D01*
X77246180Y-99927502D01*
X77356494Y-99868537D01*
X77453185Y-99789185D01*
X77532537Y-99692494D01*
X77591502Y-99582180D01*
X77627812Y-99462482D01*
X77640072Y-99338000D01*
X77640072Y-98588000D01*
X77627812Y-98463518D01*
X77591502Y-98343820D01*
X77532537Y-98233506D01*
X77453185Y-98136815D01*
X77356494Y-98057463D01*
X77246180Y-97998498D01*
X77126482Y-97962188D01*
X77002000Y-97949928D01*
X76002000Y-97949928D01*
X75877518Y-97962188D01*
X75757820Y-97998498D01*
X75647506Y-98057463D01*
X75550815Y-98136815D01*
X75471463Y-98233506D01*
X75412498Y-98343820D01*
X75376188Y-98463518D01*
X75363928Y-98588000D01*
X72002321Y-98588000D01*
X69463863Y-96049543D01*
X69434856Y-96025738D01*
X69418797Y-96009679D01*
X69410822Y-96003220D01*
X69143901Y-95790141D01*
X69088015Y-95753849D01*
X69032677Y-95716803D01*
X69023599Y-95712016D01*
X68720375Y-95554839D01*
X68658471Y-95530079D01*
X68597018Y-95504499D01*
X68587184Y-95501567D01*
X68259205Y-95406281D01*
X68193724Y-95394027D01*
X68128426Y-95380860D01*
X68118210Y-95379894D01*
X67777969Y-95350126D01*
X67711346Y-95350824D01*
X67644737Y-95350591D01*
X67634527Y-95351628D01*
X67294984Y-95388515D01*
X67229762Y-95402141D01*
X67164385Y-95414849D01*
X67154571Y-95417849D01*
X66828660Y-95519983D01*
X66767291Y-95546033D01*
X66705659Y-95571184D01*
X66696614Y-95576033D01*
X66396748Y-95739526D01*
X66341622Y-95776990D01*
X66286038Y-95813641D01*
X66278108Y-95820154D01*
X66015708Y-96038777D01*
X65968896Y-96086247D01*
X65921499Y-96132987D01*
X65914990Y-96140911D01*
X65914986Y-96140915D01*
X65914985Y-96140917D01*
X65700047Y-96406343D01*
X65663362Y-96461979D01*
X65625932Y-96517055D01*
X65621083Y-96526099D01*
X65461794Y-96828218D01*
X65436617Y-96889913D01*
X65410594Y-96951218D01*
X65407594Y-96961032D01*
X65310020Y-97288337D01*
X65297308Y-97353736D01*
X65283686Y-97418938D01*
X65282649Y-97429148D01*
X65250507Y-97769172D01*
X65250740Y-97835779D01*
X65250042Y-97902402D01*
X64735000Y-97902402D01*
X64735000Y-93479429D01*
X69696000Y-93479429D01*
X69696000Y-93796571D01*
X69757871Y-94107620D01*
X69879237Y-94400621D01*
X70055431Y-94664315D01*
X70279685Y-94888569D01*
X70543379Y-95064763D01*
X70836380Y-95186129D01*
X71147429Y-95248000D01*
X71464571Y-95248000D01*
X71775620Y-95186129D01*
X72068621Y-95064763D01*
X72332315Y-94888569D01*
X72556569Y-94664315D01*
X72732763Y-94400621D01*
X72854129Y-94107620D01*
X72916000Y-93796571D01*
X72916000Y-93479429D01*
X74696000Y-93479429D01*
X74696000Y-93796571D01*
X74757871Y-94107620D01*
X74879237Y-94400621D01*
X75055431Y-94664315D01*
X75279685Y-94888569D01*
X75543379Y-95064763D01*
X75836380Y-95186129D01*
X76147429Y-95248000D01*
X76464571Y-95248000D01*
X76775620Y-95186129D01*
X77068621Y-95064763D01*
X77332315Y-94888569D01*
X77556569Y-94664315D01*
X77732763Y-94400621D01*
X77854129Y-94107620D01*
X77916000Y-93796571D01*
X77916000Y-93479429D01*
X77854129Y-93168380D01*
X77732763Y-92875379D01*
X77556569Y-92611685D01*
X77332315Y-92387431D01*
X77068621Y-92211237D01*
X76775620Y-92089871D01*
X76464571Y-92028000D01*
X76147429Y-92028000D01*
X75836380Y-92089871D01*
X75543379Y-92211237D01*
X75279685Y-92387431D01*
X75055431Y-92611685D01*
X74879237Y-92875379D01*
X74757871Y-93168380D01*
X74696000Y-93479429D01*
X72916000Y-93479429D01*
X72854129Y-93168380D01*
X72732763Y-92875379D01*
X72556569Y-92611685D01*
X72332315Y-92387431D01*
X72068621Y-92211237D01*
X71775620Y-92089871D01*
X71464571Y-92028000D01*
X71147429Y-92028000D01*
X70836380Y-92089871D01*
X70543379Y-92211237D01*
X70279685Y-92387431D01*
X70055431Y-92611685D01*
X69879237Y-92875379D01*
X69757871Y-93168380D01*
X69696000Y-93479429D01*
X64735000Y-93479429D01*
X64735000Y-77781952D01*
X64769053Y-77894209D01*
X64850542Y-78046664D01*
X64960208Y-78180292D01*
X65093836Y-78289958D01*
X65246291Y-78371447D01*
X65411715Y-78421628D01*
X65583750Y-78438572D01*
X65913994Y-78438572D01*
X66171001Y-78695580D01*
X66171000Y-86655735D01*
X66057875Y-86768860D01*
X65917247Y-86979324D01*
X65820381Y-87213179D01*
X65771000Y-87461439D01*
X65771000Y-87714561D01*
X65820381Y-87962821D01*
X65917247Y-88196676D01*
X66057875Y-88407140D01*
X66236860Y-88586125D01*
X66447324Y-88726753D01*
X66681179Y-88823619D01*
X66929439Y-88873000D01*
X67182561Y-88873000D01*
X67430821Y-88823619D01*
X67664676Y-88726753D01*
X67875140Y-88586125D01*
X68054125Y-88407140D01*
X68105664Y-88330006D01*
X68263688Y-88566505D01*
X68477495Y-88780312D01*
X68728905Y-88948299D01*
X69008257Y-89064011D01*
X69304816Y-89123000D01*
X69607184Y-89123000D01*
X69903743Y-89064011D01*
X70183095Y-88948299D01*
X70434505Y-88780312D01*
X70648312Y-88566505D01*
X70816299Y-88315095D01*
X70932011Y-88035743D01*
X70991000Y-87739184D01*
X70991000Y-87436816D01*
X70932011Y-87140257D01*
X70816299Y-86860905D01*
X70648312Y-86609495D01*
X70434505Y-86395688D01*
X70183095Y-86227701D01*
X69903743Y-86111989D01*
X69607184Y-86053000D01*
X69304816Y-86053000D01*
X69008257Y-86111989D01*
X68728905Y-86227701D01*
X68477495Y-86395688D01*
X68263688Y-86609495D01*
X68105664Y-86845994D01*
X68054125Y-86768860D01*
X67941000Y-86655735D01*
X67941000Y-78372469D01*
X67945281Y-78329000D01*
X67941000Y-78285531D01*
X67941000Y-78285523D01*
X67928195Y-78155510D01*
X67927597Y-78153537D01*
X67898560Y-78057818D01*
X67877589Y-77988687D01*
X67795411Y-77834941D01*
X67740632Y-77768193D01*
X67712532Y-77733953D01*
X67712530Y-77733951D01*
X67684817Y-77700183D01*
X67651049Y-77672470D01*
X67378072Y-77399493D01*
X67378072Y-77069250D01*
X67361128Y-76897215D01*
X67334225Y-76808527D01*
X70753004Y-76808527D01*
X70796473Y-76812808D01*
X70839942Y-76808527D01*
X70839950Y-76808527D01*
X70969963Y-76795722D01*
X71136786Y-76745116D01*
X71290532Y-76662938D01*
X71425290Y-76552344D01*
X71453007Y-76518571D01*
X74023348Y-73948230D01*
X74072068Y-74193158D01*
X74184010Y-74463411D01*
X74346525Y-74706632D01*
X74553368Y-74913475D01*
X74796589Y-75075990D01*
X75066842Y-75187932D01*
X75353740Y-75245000D01*
X75646260Y-75245000D01*
X75933158Y-75187932D01*
X76203411Y-75075990D01*
X76446632Y-74913475D01*
X76653475Y-74706632D01*
X76815990Y-74463411D01*
X76927932Y-74193158D01*
X76985000Y-73906260D01*
X76985000Y-73613740D01*
X76970539Y-73541039D01*
X78363001Y-72148578D01*
X78363001Y-72854521D01*
G36*
X121361928Y-81065000D02*
G01*
X121374188Y-81189482D01*
X121392546Y-81250000D01*
X121374188Y-81310518D01*
X121361928Y-81435000D01*
X121361928Y-82335000D01*
X121374188Y-82459482D01*
X121392546Y-82520000D01*
X121374188Y-82580518D01*
X121361928Y-82705000D01*
X121361928Y-83293000D01*
X121310061Y-83293000D01*
X121110102Y-83332774D01*
X120921744Y-83410795D01*
X120752226Y-83524063D01*
X120608063Y-83668226D01*
X120494795Y-83837744D01*
X120416774Y-84026102D01*
X120377000Y-84226061D01*
X120377000Y-84429939D01*
X120416774Y-84629898D01*
X120488714Y-84803575D01*
X120354063Y-84938226D01*
X120240795Y-85107744D01*
X120162774Y-85296102D01*
X120123000Y-85496061D01*
X120123000Y-85699939D01*
X120162774Y-85899898D01*
X120240795Y-86088256D01*
X120337510Y-86233000D01*
X120240795Y-86377744D01*
X120162774Y-86566102D01*
X120123000Y-86766061D01*
X120123000Y-86969939D01*
X120162774Y-87169898D01*
X120240795Y-87358256D01*
X120337510Y-87503000D01*
X120240795Y-87647744D01*
X120162774Y-87836102D01*
X120123000Y-88036061D01*
X120123000Y-88239939D01*
X120162774Y-88439898D01*
X120240795Y-88628256D01*
X120354063Y-88797774D01*
X120498226Y-88941937D01*
X120667744Y-89055205D01*
X120856102Y-89133226D01*
X121056061Y-89173000D01*
X121259939Y-89173000D01*
X121361928Y-89152713D01*
X121361928Y-89955000D01*
X121374188Y-90079482D01*
X121392546Y-90140000D01*
X121374188Y-90200518D01*
X121361928Y-90325000D01*
X121361928Y-91225000D01*
X121374188Y-91349482D01*
X121392546Y-91410000D01*
X121374188Y-91470518D01*
X121361928Y-91595000D01*
X121361928Y-92495000D01*
X121374188Y-92619482D01*
X121392546Y-92680000D01*
X121374188Y-92740518D01*
X121361928Y-92865000D01*
X121361928Y-93765000D01*
X121374188Y-93889482D01*
X121392546Y-93950000D01*
X121374188Y-94010518D01*
X121361928Y-94135000D01*
X121361928Y-95035000D01*
X121374188Y-95159482D01*
X121410498Y-95279180D01*
X121469463Y-95389494D01*
X121548815Y-95486185D01*
X121645506Y-95565537D01*
X121755820Y-95624502D01*
X121875518Y-95660812D01*
X122000000Y-95673072D01*
X122676940Y-95673072D01*
X122777501Y-95703577D01*
X122944248Y-95720000D01*
X126569569Y-95720000D01*
X126625320Y-95725491D01*
X126681071Y-95720000D01*
X126681072Y-95720000D01*
X126847819Y-95703577D01*
X127061767Y-95638676D01*
X127258943Y-95533284D01*
X127431769Y-95391449D01*
X127467316Y-95348136D01*
X128080452Y-94735000D01*
X130714249Y-94735000D01*
X130770000Y-94740491D01*
X130825751Y-94735000D01*
X130825752Y-94735000D01*
X130992499Y-94718577D01*
X131162021Y-94667152D01*
X131316857Y-94821988D01*
X131446378Y-94928283D01*
X131643554Y-95033675D01*
X131857500Y-95098577D01*
X132079999Y-95120490D01*
X132210011Y-95107686D01*
X132210011Y-95698377D01*
X131636389Y-96272000D01*
X95183445Y-96272000D01*
X93486406Y-94574962D01*
X93462603Y-94545958D01*
X93346878Y-94450985D01*
X93214849Y-94380413D01*
X93071588Y-94336956D01*
X93029882Y-94332848D01*
X93036072Y-94270000D01*
X93036072Y-93349648D01*
X94866472Y-95180049D01*
X94894185Y-95213817D01*
X94927953Y-95241530D01*
X94927955Y-95241532D01*
X94956943Y-95265322D01*
X95028943Y-95324411D01*
X95182689Y-95406589D01*
X95349512Y-95457195D01*
X95479525Y-95470000D01*
X95479533Y-95470000D01*
X95523002Y-95474281D01*
X95566471Y-95470000D01*
X104535532Y-95470000D01*
X104548815Y-95486185D01*
X104645506Y-95565537D01*
X104755820Y-95624502D01*
X104875518Y-95660812D01*
X105000000Y-95673072D01*
X107000000Y-95673072D01*
X107124482Y-95660812D01*
X107244180Y-95624502D01*
X107354494Y-95565537D01*
X107451185Y-95486185D01*
X107530537Y-95389494D01*
X107589502Y-95279180D01*
X107625812Y-95159482D01*
X107638072Y-95035000D01*
X107638072Y-94135000D01*
X107625812Y-94010518D01*
X107607454Y-93950000D01*
X107625812Y-93889482D01*
X107638072Y-93765000D01*
X107638072Y-92865000D01*
X107625812Y-92740518D01*
X107607454Y-92680000D01*
X107625812Y-92619482D01*
X107638072Y-92495000D01*
X107638072Y-91595000D01*
X107625812Y-91470518D01*
X107607454Y-91410000D01*
X107625812Y-91349482D01*
X107638072Y-91225000D01*
X107638072Y-90325000D01*
X107625812Y-90200518D01*
X107607454Y-90140000D01*
X107625812Y-90079482D01*
X107638072Y-89955000D01*
X107638072Y-89055000D01*
X107625812Y-88930518D01*
X107607454Y-88870000D01*
X107625812Y-88809482D01*
X107638072Y-88685000D01*
X107638072Y-87785000D01*
X107625812Y-87660518D01*
X107607454Y-87600000D01*
X107625812Y-87539482D01*
X107638072Y-87415000D01*
X107638072Y-86515000D01*
X107625812Y-86390518D01*
X107607454Y-86330000D01*
X107625812Y-86269482D01*
X107638072Y-86145000D01*
X107638072Y-85245000D01*
X107626764Y-85130184D01*
X107719817Y-85053817D01*
X107747534Y-85020044D01*
X108195044Y-84572535D01*
X108251898Y-84561226D01*
X108440256Y-84483205D01*
X108609774Y-84369937D01*
X108753937Y-84225774D01*
X108867205Y-84056256D01*
X108945226Y-83867898D01*
X108985000Y-83667939D01*
X108985000Y-83464061D01*
X108945226Y-83264102D01*
X108867205Y-83075744D01*
X108753937Y-82906226D01*
X108617711Y-82770000D01*
X118997529Y-82770000D01*
X119040998Y-82774281D01*
X119084467Y-82770000D01*
X119084475Y-82770000D01*
X119214488Y-82757195D01*
X119381311Y-82706589D01*
X119535057Y-82624411D01*
X119669815Y-82513817D01*
X119697532Y-82480044D01*
X121361928Y-80815649D01*
X121361928Y-81065000D01*
G37*
X121361928Y-81065000D02*
X121374188Y-81189482D01*
X121392546Y-81250000D01*
X121374188Y-81310518D01*
X121361928Y-81435000D01*
X121361928Y-82335000D01*
X121374188Y-82459482D01*
X121392546Y-82520000D01*
X121374188Y-82580518D01*
X121361928Y-82705000D01*
X121361928Y-83293000D01*
X121310061Y-83293000D01*
X121110102Y-83332774D01*
X120921744Y-83410795D01*
X120752226Y-83524063D01*
X120608063Y-83668226D01*
X120494795Y-83837744D01*
X120416774Y-84026102D01*
X120377000Y-84226061D01*
X120377000Y-84429939D01*
X120416774Y-84629898D01*
X120488714Y-84803575D01*
X120354063Y-84938226D01*
X120240795Y-85107744D01*
X120162774Y-85296102D01*
X120123000Y-85496061D01*
X120123000Y-85699939D01*
X120162774Y-85899898D01*
X120240795Y-86088256D01*
X120337510Y-86233000D01*
X120240795Y-86377744D01*
X120162774Y-86566102D01*
X120123000Y-86766061D01*
X120123000Y-86969939D01*
X120162774Y-87169898D01*
X120240795Y-87358256D01*
X120337510Y-87503000D01*
X120240795Y-87647744D01*
X120162774Y-87836102D01*
X120123000Y-88036061D01*
X120123000Y-88239939D01*
X120162774Y-88439898D01*
X120240795Y-88628256D01*
X120354063Y-88797774D01*
X120498226Y-88941937D01*
X120667744Y-89055205D01*
X120856102Y-89133226D01*
X121056061Y-89173000D01*
X121259939Y-89173000D01*
X121361928Y-89152713D01*
X121361928Y-89955000D01*
X121374188Y-90079482D01*
X121392546Y-90140000D01*
X121374188Y-90200518D01*
X121361928Y-90325000D01*
X121361928Y-91225000D01*
X121374188Y-91349482D01*
X121392546Y-91410000D01*
X121374188Y-91470518D01*
X121361928Y-91595000D01*
X121361928Y-92495000D01*
X121374188Y-92619482D01*
X121392546Y-92680000D01*
X121374188Y-92740518D01*
X121361928Y-92865000D01*
X121361928Y-93765000D01*
X121374188Y-93889482D01*
X121392546Y-93950000D01*
X121374188Y-94010518D01*
X121361928Y-94135000D01*
X121361928Y-95035000D01*
X121374188Y-95159482D01*
X121410498Y-95279180D01*
X121469463Y-95389494D01*
X121548815Y-95486185D01*
X121645506Y-95565537D01*
X121755820Y-95624502D01*
X121875518Y-95660812D01*
X122000000Y-95673072D01*
X122676940Y-95673072D01*
X122777501Y-95703577D01*
X122944248Y-95720000D01*
X126569569Y-95720000D01*
X126625320Y-95725491D01*
X126681071Y-95720000D01*
X126681072Y-95720000D01*
X126847819Y-95703577D01*
X127061767Y-95638676D01*
X127258943Y-95533284D01*
X127431769Y-95391449D01*
X127467316Y-95348136D01*
X128080452Y-94735000D01*
X130714249Y-94735000D01*
X130770000Y-94740491D01*
X130825751Y-94735000D01*
X130825752Y-94735000D01*
X130992499Y-94718577D01*
X131162021Y-94667152D01*
X131316857Y-94821988D01*
X131446378Y-94928283D01*
X131643554Y-95033675D01*
X131857500Y-95098577D01*
X132079999Y-95120490D01*
X132210011Y-95107686D01*
X132210011Y-95698377D01*
X131636389Y-96272000D01*
X95183445Y-96272000D01*
X93486406Y-94574962D01*
X93462603Y-94545958D01*
X93346878Y-94450985D01*
X93214849Y-94380413D01*
X93071588Y-94336956D01*
X93029882Y-94332848D01*
X93036072Y-94270000D01*
X93036072Y-93349648D01*
X94866472Y-95180049D01*
X94894185Y-95213817D01*
X94927953Y-95241530D01*
X94927955Y-95241532D01*
X94956943Y-95265322D01*
X95028943Y-95324411D01*
X95182689Y-95406589D01*
X95349512Y-95457195D01*
X95479525Y-95470000D01*
X95479533Y-95470000D01*
X95523002Y-95474281D01*
X95566471Y-95470000D01*
X104535532Y-95470000D01*
X104548815Y-95486185D01*
X104645506Y-95565537D01*
X104755820Y-95624502D01*
X104875518Y-95660812D01*
X105000000Y-95673072D01*
X107000000Y-95673072D01*
X107124482Y-95660812D01*
X107244180Y-95624502D01*
X107354494Y-95565537D01*
X107451185Y-95486185D01*
X107530537Y-95389494D01*
X107589502Y-95279180D01*
X107625812Y-95159482D01*
X107638072Y-95035000D01*
X107638072Y-94135000D01*
X107625812Y-94010518D01*
X107607454Y-93950000D01*
X107625812Y-93889482D01*
X107638072Y-93765000D01*
X107638072Y-92865000D01*
X107625812Y-92740518D01*
X107607454Y-92680000D01*
X107625812Y-92619482D01*
X107638072Y-92495000D01*
X107638072Y-91595000D01*
X107625812Y-91470518D01*
X107607454Y-91410000D01*
X107625812Y-91349482D01*
X107638072Y-91225000D01*
X107638072Y-90325000D01*
X107625812Y-90200518D01*
X107607454Y-90140000D01*
X107625812Y-90079482D01*
X107638072Y-89955000D01*
X107638072Y-89055000D01*
X107625812Y-88930518D01*
X107607454Y-88870000D01*
X107625812Y-88809482D01*
X107638072Y-88685000D01*
X107638072Y-87785000D01*
X107625812Y-87660518D01*
X107607454Y-87600000D01*
X107625812Y-87539482D01*
X107638072Y-87415000D01*
X107638072Y-86515000D01*
X107625812Y-86390518D01*
X107607454Y-86330000D01*
X107625812Y-86269482D01*
X107638072Y-86145000D01*
X107638072Y-85245000D01*
X107626764Y-85130184D01*
X107719817Y-85053817D01*
X107747534Y-85020044D01*
X108195044Y-84572535D01*
X108251898Y-84561226D01*
X108440256Y-84483205D01*
X108609774Y-84369937D01*
X108753937Y-84225774D01*
X108867205Y-84056256D01*
X108945226Y-83867898D01*
X108985000Y-83667939D01*
X108985000Y-83464061D01*
X108945226Y-83264102D01*
X108867205Y-83075744D01*
X108753937Y-82906226D01*
X108617711Y-82770000D01*
X118997529Y-82770000D01*
X119040998Y-82774281D01*
X119084467Y-82770000D01*
X119084475Y-82770000D01*
X119214488Y-82757195D01*
X119381311Y-82706589D01*
X119535057Y-82624411D01*
X119669815Y-82513817D01*
X119697532Y-82480044D01*
X121361928Y-80815649D01*
X121361928Y-81065000D01*
G36*
X96723000Y-82672408D02*
G01*
X96723000Y-82947592D01*
X96776686Y-83217490D01*
X96881995Y-83471727D01*
X97034880Y-83700535D01*
X97229465Y-83895120D01*
X97248154Y-83907607D01*
X97028013Y-84127748D01*
X96849082Y-84395537D01*
X96725832Y-84693088D01*
X96663000Y-85008967D01*
X96663000Y-85331033D01*
X96725832Y-85646912D01*
X96849082Y-85944463D01*
X97028013Y-86212252D01*
X97255748Y-86439987D01*
X97523537Y-86618918D01*
X97821088Y-86742168D01*
X98136967Y-86805000D01*
X98459033Y-86805000D01*
X98774912Y-86742168D01*
X99072463Y-86618918D01*
X99130708Y-86580000D01*
X100282423Y-86580000D01*
X98330496Y-88531928D01*
X97298000Y-88531928D01*
X97173518Y-88544188D01*
X97053820Y-88580498D01*
X96943506Y-88639463D01*
X96846815Y-88718815D01*
X96767463Y-88815506D01*
X96708498Y-88925820D01*
X96672188Y-89045518D01*
X96659928Y-89170000D01*
X96659928Y-91170000D01*
X96672188Y-91294482D01*
X96708498Y-91414180D01*
X96767463Y-91524494D01*
X96846815Y-91621185D01*
X96943506Y-91700537D01*
X97053820Y-91759502D01*
X97173518Y-91795812D01*
X97298000Y-91808072D01*
X99298000Y-91808072D01*
X99422482Y-91795812D01*
X99542180Y-91759502D01*
X99652494Y-91700537D01*
X99749185Y-91621185D01*
X99828537Y-91524494D01*
X99878248Y-91431492D01*
X99939542Y-91546164D01*
X99983724Y-91600000D01*
X99939542Y-91653836D01*
X99858053Y-91806291D01*
X99807872Y-91971715D01*
X99790928Y-92143750D01*
X99790928Y-93056250D01*
X99807872Y-93228285D01*
X99858053Y-93393709D01*
X99939542Y-93546164D01*
X100049208Y-93679792D01*
X100073831Y-93700000D01*
X95889581Y-93700000D01*
X93214537Y-91024957D01*
X93186820Y-90991184D01*
X93052062Y-90880590D01*
X92898316Y-90798412D01*
X92731493Y-90747806D01*
X92601480Y-90735001D01*
X92601472Y-90735001D01*
X92558003Y-90730720D01*
X92514534Y-90735001D01*
X86794579Y-90735001D01*
X95046582Y-82482999D01*
X96760676Y-82482999D01*
X96723000Y-82672408D01*
G37*
X96723000Y-82672408D02*
X96723000Y-82947592D01*
X96776686Y-83217490D01*
X96881995Y-83471727D01*
X97034880Y-83700535D01*
X97229465Y-83895120D01*
X97248154Y-83907607D01*
X97028013Y-84127748D01*
X96849082Y-84395537D01*
X96725832Y-84693088D01*
X96663000Y-85008967D01*
X96663000Y-85331033D01*
X96725832Y-85646912D01*
X96849082Y-85944463D01*
X97028013Y-86212252D01*
X97255748Y-86439987D01*
X97523537Y-86618918D01*
X97821088Y-86742168D01*
X98136967Y-86805000D01*
X98459033Y-86805000D01*
X98774912Y-86742168D01*
X99072463Y-86618918D01*
X99130708Y-86580000D01*
X100282423Y-86580000D01*
X98330496Y-88531928D01*
X97298000Y-88531928D01*
X97173518Y-88544188D01*
X97053820Y-88580498D01*
X96943506Y-88639463D01*
X96846815Y-88718815D01*
X96767463Y-88815506D01*
X96708498Y-88925820D01*
X96672188Y-89045518D01*
X96659928Y-89170000D01*
X96659928Y-91170000D01*
X96672188Y-91294482D01*
X96708498Y-91414180D01*
X96767463Y-91524494D01*
X96846815Y-91621185D01*
X96943506Y-91700537D01*
X97053820Y-91759502D01*
X97173518Y-91795812D01*
X97298000Y-91808072D01*
X99298000Y-91808072D01*
X99422482Y-91795812D01*
X99542180Y-91759502D01*
X99652494Y-91700537D01*
X99749185Y-91621185D01*
X99828537Y-91524494D01*
X99878248Y-91431492D01*
X99939542Y-91546164D01*
X99983724Y-91600000D01*
X99939542Y-91653836D01*
X99858053Y-91806291D01*
X99807872Y-91971715D01*
X99790928Y-92143750D01*
X99790928Y-93056250D01*
X99807872Y-93228285D01*
X99858053Y-93393709D01*
X99939542Y-93546164D01*
X100049208Y-93679792D01*
X100073831Y-93700000D01*
X95889581Y-93700000D01*
X93214537Y-91024957D01*
X93186820Y-90991184D01*
X93052062Y-90880590D01*
X92898316Y-90798412D01*
X92731493Y-90747806D01*
X92601480Y-90735001D01*
X92601472Y-90735001D01*
X92558003Y-90730720D01*
X92514534Y-90735001D01*
X86794579Y-90735001D01*
X95046582Y-82482999D01*
X96760676Y-82482999D01*
X96723000Y-82672408D01*
G36*
X130697501Y-87862478D02*
G01*
X130643042Y-87928836D01*
X130561553Y-88081291D01*
X130511372Y-88246715D01*
X130494428Y-88418750D01*
X130494428Y-88906250D01*
X130511372Y-89078285D01*
X130561553Y-89243709D01*
X130643042Y-89396164D01*
X130752708Y-89529792D01*
X130838256Y-89600000D01*
X130752708Y-89670208D01*
X130643042Y-89803836D01*
X130561553Y-89956291D01*
X130513409Y-90115000D01*
X129119770Y-90115000D01*
X129022962Y-89997038D01*
X128888386Y-89886595D01*
X128734850Y-89804528D01*
X128568254Y-89753992D01*
X128395000Y-89736928D01*
X127319802Y-89736928D01*
X127329990Y-89633489D01*
X127329990Y-89633479D01*
X127334271Y-89590013D01*
X127329990Y-89546547D01*
X127329990Y-87901622D01*
X127623612Y-87608001D01*
X129133530Y-87608001D01*
X129176999Y-87612282D01*
X129220468Y-87608001D01*
X129220476Y-87608001D01*
X129350489Y-87595196D01*
X129517312Y-87544590D01*
X129671058Y-87462412D01*
X129805816Y-87351818D01*
X129833533Y-87318045D01*
X130240506Y-86911072D01*
X130697501Y-86911072D01*
X130697501Y-87862478D01*
G37*
X130697501Y-87862478D02*
X130643042Y-87928836D01*
X130561553Y-88081291D01*
X130511372Y-88246715D01*
X130494428Y-88418750D01*
X130494428Y-88906250D01*
X130511372Y-89078285D01*
X130561553Y-89243709D01*
X130643042Y-89396164D01*
X130752708Y-89529792D01*
X130838256Y-89600000D01*
X130752708Y-89670208D01*
X130643042Y-89803836D01*
X130561553Y-89956291D01*
X130513409Y-90115000D01*
X129119770Y-90115000D01*
X129022962Y-89997038D01*
X128888386Y-89886595D01*
X128734850Y-89804528D01*
X128568254Y-89753992D01*
X128395000Y-89736928D01*
X127319802Y-89736928D01*
X127329990Y-89633489D01*
X127329990Y-89633479D01*
X127334271Y-89590013D01*
X127329990Y-89546547D01*
X127329990Y-87901622D01*
X127623612Y-87608001D01*
X129133530Y-87608001D01*
X129176999Y-87612282D01*
X129220468Y-87608001D01*
X129220476Y-87608001D01*
X129350489Y-87595196D01*
X129517312Y-87544590D01*
X129671058Y-87462412D01*
X129805816Y-87351818D01*
X129833533Y-87318045D01*
X130240506Y-86911072D01*
X130697501Y-86911072D01*
X130697501Y-87862478D01*
G36*
X130964054Y-34835001D02*
G01*
X131633488Y-34900639D01*
X132242854Y-35084618D01*
X132804875Y-35383450D01*
X133298147Y-35785754D01*
X133703884Y-36276206D01*
X134006634Y-36836129D01*
X134194860Y-37444189D01*
X134265001Y-38111533D01*
X134265000Y-88463869D01*
X133700496Y-87899365D01*
X133664949Y-87856051D01*
X133492123Y-87714216D01*
X133294947Y-87608824D01*
X133080999Y-87543923D01*
X132967500Y-87532744D01*
X132967500Y-84574250D01*
X132972991Y-84518498D01*
X132951077Y-84295999D01*
X132886176Y-84082051D01*
X132780784Y-83884875D01*
X132638949Y-83712049D01*
X132595640Y-83676506D01*
X132528206Y-83609072D01*
X133009000Y-83609072D01*
X133133482Y-83596812D01*
X133253180Y-83560502D01*
X133363494Y-83501537D01*
X133460185Y-83422185D01*
X133539537Y-83325494D01*
X133598502Y-83215180D01*
X133634812Y-83095482D01*
X133647072Y-82971000D01*
X133647072Y-81621000D01*
X133634812Y-81496518D01*
X133598502Y-81376820D01*
X133539537Y-81266506D01*
X133460185Y-81169815D01*
X133373303Y-81098513D01*
X133494907Y-80916518D01*
X133593658Y-80678113D01*
X133644000Y-80425024D01*
X133644000Y-80166976D01*
X133593658Y-79913887D01*
X133494907Y-79675482D01*
X133351544Y-79460923D01*
X133169077Y-79278456D01*
X132954518Y-79135093D01*
X132716113Y-79036342D01*
X132463024Y-78986000D01*
X132204976Y-78986000D01*
X131951887Y-79036342D01*
X131830185Y-79086753D01*
X132002021Y-78626099D01*
X132019114Y-78561664D01*
X132037079Y-78497564D01*
X132038801Y-78487447D01*
X132132984Y-77909575D01*
X132137234Y-77843074D01*
X132142409Y-77776681D01*
X132142133Y-77766422D01*
X132122281Y-77181261D01*
X132113535Y-77115208D01*
X132105714Y-77049063D01*
X132103450Y-77039053D01*
X131970316Y-76468892D01*
X131948902Y-76405783D01*
X131928388Y-76342434D01*
X131924224Y-76333055D01*
X131682882Y-75799611D01*
X131649617Y-75741862D01*
X131617188Y-75683702D01*
X131611281Y-75675310D01*
X131448700Y-75447743D01*
X131639039Y-74327079D01*
X131641858Y-74306063D01*
X131644924Y-74285141D01*
X131889560Y-72082567D01*
X131893441Y-72031412D01*
X131893441Y-72031382D01*
X131983834Y-69817167D01*
X131983836Y-69817138D01*
X131984138Y-69765837D01*
X131919854Y-67550651D01*
X131916577Y-67499454D01*
X131697925Y-65294149D01*
X131695734Y-65277865D01*
X131695615Y-65273753D01*
X131694247Y-65263582D01*
X131690820Y-65239388D01*
X131687217Y-65224566D01*
X131681723Y-65197951D01*
X131678482Y-65173859D01*
X131676059Y-65163887D01*
X131593073Y-64832582D01*
X131570645Y-64769812D01*
X131549121Y-64706810D01*
X131544809Y-64697504D01*
X131544807Y-64697499D01*
X131544804Y-64697495D01*
X131399049Y-64388621D01*
X131364871Y-64331428D01*
X131331505Y-64273782D01*
X131325464Y-64265486D01*
X131122490Y-63990803D01*
X131077824Y-63941306D01*
X131033926Y-63891271D01*
X131026389Y-63884306D01*
X130773927Y-63654279D01*
X130720503Y-63614403D01*
X130667716Y-63573843D01*
X130658970Y-63568475D01*
X130366636Y-63391866D01*
X130306481Y-63363125D01*
X130246828Y-63333594D01*
X130237206Y-63330027D01*
X130237204Y-63330026D01*
X130237201Y-63330025D01*
X129916137Y-63213561D01*
X129851593Y-63197064D01*
X129787289Y-63179668D01*
X129777157Y-63178038D01*
X129439580Y-63126154D01*
X129373007Y-63122505D01*
X129306604Y-63117934D01*
X129296348Y-63118303D01*
X128955124Y-63132976D01*
X128889140Y-63142322D01*
X128823085Y-63150740D01*
X128813096Y-63153094D01*
X128481219Y-63233765D01*
X128418345Y-63255737D01*
X128355142Y-63276838D01*
X128345801Y-63281087D01*
X128219001Y-63339845D01*
X128219001Y-59210000D01*
X130337249Y-59210000D01*
X130393000Y-59215491D01*
X130448751Y-59210000D01*
X130448752Y-59210000D01*
X130615499Y-59193577D01*
X130829447Y-59128676D01*
X131026623Y-59023284D01*
X131199449Y-58881449D01*
X131234996Y-58838135D01*
X131692131Y-58381000D01*
X131718260Y-58381000D01*
X132005158Y-58323932D01*
X132275411Y-58211990D01*
X132518632Y-58049475D01*
X132725475Y-57842632D01*
X132887990Y-57599411D01*
X132999932Y-57329158D01*
X133057000Y-57042260D01*
X133057000Y-56749740D01*
X132999932Y-56462842D01*
X132887990Y-56192589D01*
X132725475Y-55949368D01*
X132518632Y-55742525D01*
X132344240Y-55626000D01*
X132518632Y-55509475D01*
X132725475Y-55302632D01*
X132887990Y-55059411D01*
X132999932Y-54789158D01*
X133057000Y-54502260D01*
X133057000Y-54209740D01*
X132999932Y-53922842D01*
X132887990Y-53652589D01*
X132725475Y-53409368D01*
X132518632Y-53202525D01*
X132275411Y-53040010D01*
X132005158Y-52928068D01*
X131718260Y-52871000D01*
X131425740Y-52871000D01*
X131138842Y-52928068D01*
X130868589Y-53040010D01*
X130625368Y-53202525D01*
X130418525Y-53409368D01*
X130256010Y-53652589D01*
X130144068Y-53922842D01*
X130087000Y-54209740D01*
X130087000Y-54502260D01*
X130144068Y-54789158D01*
X130256010Y-55059411D01*
X130418525Y-55302632D01*
X130625368Y-55509475D01*
X130799760Y-55626000D01*
X130625368Y-55742525D01*
X130418525Y-55949368D01*
X130256010Y-56192589D01*
X130144068Y-56462842D01*
X130087000Y-56749740D01*
X130087000Y-56775869D01*
X129922869Y-56940000D01*
X127972000Y-56940000D01*
X127972000Y-54956749D01*
X127977491Y-54900997D01*
X127955577Y-54678499D01*
X127890676Y-54464551D01*
X127870901Y-54427554D01*
X127785284Y-54267375D01*
X127643449Y-54094549D01*
X127600141Y-54059007D01*
X123301134Y-49760000D01*
X124797928Y-49760000D01*
X124797928Y-50510000D01*
X124810188Y-50634482D01*
X124846498Y-50754180D01*
X124905463Y-50864494D01*
X124984815Y-50961185D01*
X125081506Y-51040537D01*
X125191820Y-51099502D01*
X125311518Y-51135812D01*
X125436000Y-51148072D01*
X126436000Y-51148072D01*
X126560482Y-51135812D01*
X126680180Y-51099502D01*
X126790494Y-51040537D01*
X126887185Y-50961185D01*
X126966537Y-50864494D01*
X127025502Y-50754180D01*
X127061812Y-50634482D01*
X127074072Y-50510000D01*
X127074072Y-49760000D01*
X127061812Y-49635518D01*
X127025502Y-49515820D01*
X126966537Y-49405506D01*
X126887185Y-49308815D01*
X126790494Y-49229463D01*
X126680180Y-49170498D01*
X126560482Y-49134188D01*
X126436000Y-49121928D01*
X125436000Y-49121928D01*
X125311518Y-49134188D01*
X125191820Y-49170498D01*
X125081506Y-49229463D01*
X124984815Y-49308815D01*
X124905463Y-49405506D01*
X124846498Y-49515820D01*
X124810188Y-49635518D01*
X124797928Y-49760000D01*
X123301134Y-49760000D01*
X121837997Y-48296864D01*
X121802450Y-48253550D01*
X121629624Y-48111715D01*
X121432448Y-48006323D01*
X121218500Y-47941422D01*
X121051753Y-47924999D01*
X121051752Y-47924999D01*
X120996001Y-47919508D01*
X120940250Y-47924999D01*
X118768129Y-47924999D01*
X116853130Y-46010000D01*
X124797928Y-46010000D01*
X124797928Y-46760000D01*
X124810188Y-46884482D01*
X124846498Y-47004180D01*
X124905463Y-47114494D01*
X124984815Y-47211185D01*
X125081506Y-47290537D01*
X125191820Y-47349502D01*
X125311518Y-47385812D01*
X125436000Y-47398072D01*
X126436000Y-47398072D01*
X126560482Y-47385812D01*
X126680180Y-47349502D01*
X126790494Y-47290537D01*
X126887185Y-47211185D01*
X126966537Y-47114494D01*
X127025502Y-47004180D01*
X127061812Y-46884482D01*
X127074072Y-46760000D01*
X127074072Y-46010000D01*
X127061812Y-45885518D01*
X127025502Y-45765820D01*
X126966537Y-45655506D01*
X126887185Y-45558815D01*
X126790494Y-45479463D01*
X126680180Y-45420498D01*
X126560482Y-45384188D01*
X126436000Y-45371928D01*
X125436000Y-45371928D01*
X125311518Y-45384188D01*
X125191820Y-45420498D01*
X125081506Y-45479463D01*
X124984815Y-45558815D01*
X124905463Y-45655506D01*
X124846498Y-45765820D01*
X124810188Y-45885518D01*
X124797928Y-46010000D01*
X116853130Y-46010000D01*
X114789993Y-43946864D01*
X114754446Y-43903550D01*
X114581620Y-43761715D01*
X114384444Y-43656323D01*
X114170496Y-43591422D01*
X114003749Y-43574999D01*
X114003748Y-43574999D01*
X113947997Y-43569508D01*
X113892246Y-43574999D01*
X109852125Y-43574999D01*
X109940754Y-43509792D01*
X109990311Y-43465260D01*
X110040472Y-43421435D01*
X110047452Y-43413912D01*
X110442683Y-42981940D01*
X110482666Y-42928604D01*
X110523338Y-42875899D01*
X110528724Y-42867164D01*
X110832525Y-42366653D01*
X110861383Y-42306575D01*
X110891049Y-42246962D01*
X110894636Y-42237347D01*
X111095433Y-41687358D01*
X111112071Y-41622820D01*
X111129593Y-41558583D01*
X111131244Y-41548454D01*
X111221391Y-40969939D01*
X111225176Y-40903424D01*
X111229888Y-40836981D01*
X111229541Y-40826724D01*
X111205603Y-40241716D01*
X111196398Y-40175738D01*
X111188114Y-40109638D01*
X111185782Y-40099652D01*
X111185781Y-40099646D01*
X111185779Y-40099641D01*
X111048669Y-39530427D01*
X111026819Y-39467480D01*
X111005859Y-39404263D01*
X111001629Y-39394913D01*
X110756569Y-38863169D01*
X110722923Y-38805690D01*
X110690068Y-38747721D01*
X110684103Y-38739371D01*
X110340426Y-38265352D01*
X110296231Y-38215475D01*
X110252768Y-38165021D01*
X110245294Y-38157988D01*
X109969836Y-37902403D01*
X125250041Y-37902403D01*
X125251007Y-37912620D01*
X125285522Y-38252411D01*
X125298692Y-38317726D01*
X125310944Y-38383194D01*
X125313875Y-38393029D01*
X125413732Y-38719645D01*
X125439351Y-38781192D01*
X125464072Y-38842997D01*
X125468854Y-38852067D01*
X125468858Y-38852077D01*
X125468863Y-38852085D01*
X125630253Y-39153077D01*
X125667334Y-39208467D01*
X125703594Y-39264304D01*
X125710052Y-39272280D01*
X125926838Y-39536199D01*
X125926849Y-39536210D01*
X125949543Y-39563863D01*
X129536136Y-43150457D01*
X129565151Y-43174269D01*
X129581203Y-43190321D01*
X129589178Y-43196780D01*
X129856099Y-43409859D01*
X129912003Y-43446163D01*
X129967324Y-43483197D01*
X129976401Y-43487984D01*
X130279625Y-43645161D01*
X130341516Y-43669915D01*
X130402981Y-43695501D01*
X130412816Y-43698433D01*
X130740795Y-43793719D01*
X130806276Y-43805973D01*
X130871574Y-43819140D01*
X130881791Y-43820106D01*
X131222031Y-43849874D01*
X131288655Y-43849176D01*
X131355264Y-43849409D01*
X131365473Y-43848372D01*
X131705017Y-43811485D01*
X131770252Y-43797856D01*
X131835615Y-43785151D01*
X131845429Y-43782151D01*
X132171341Y-43680017D01*
X132232723Y-43653962D01*
X132294341Y-43628816D01*
X132303386Y-43623967D01*
X132603252Y-43460474D01*
X132658393Y-43423000D01*
X132713962Y-43386359D01*
X132721892Y-43379846D01*
X132984292Y-43161223D01*
X133031067Y-43113789D01*
X133078501Y-43067014D01*
X133085015Y-43059084D01*
X133299953Y-42793657D01*
X133336638Y-42738021D01*
X133374068Y-42682945D01*
X133378917Y-42673901D01*
X133538206Y-42371782D01*
X133563397Y-42310054D01*
X133589405Y-42248782D01*
X133592406Y-42238969D01*
X133689980Y-41911663D01*
X133702694Y-41846257D01*
X133716314Y-41781062D01*
X133717351Y-41770852D01*
X133749493Y-41430828D01*
X133749260Y-41364188D01*
X133749958Y-41297598D01*
X133748992Y-41287381D01*
X133714477Y-40947589D01*
X133701306Y-40882268D01*
X133689055Y-40816807D01*
X133686124Y-40806972D01*
X133586267Y-40480356D01*
X133560648Y-40418810D01*
X133535927Y-40357004D01*
X133531142Y-40347926D01*
X133369746Y-40046925D01*
X133332687Y-39991567D01*
X133296405Y-39935697D01*
X133289947Y-39927722D01*
X133073161Y-39663802D01*
X133073156Y-39663797D01*
X133050456Y-39636137D01*
X129463862Y-36049544D01*
X129434855Y-36025739D01*
X129418796Y-36009680D01*
X129410821Y-36003221D01*
X129143900Y-35790142D01*
X129088014Y-35753850D01*
X129032676Y-35716804D01*
X129023598Y-35712017D01*
X128720374Y-35554840D01*
X128658470Y-35530080D01*
X128597017Y-35504500D01*
X128587183Y-35501568D01*
X128259204Y-35406282D01*
X128193723Y-35394028D01*
X128128425Y-35380861D01*
X128118209Y-35379895D01*
X127777968Y-35350127D01*
X127711345Y-35350825D01*
X127644736Y-35350592D01*
X127634526Y-35351629D01*
X127294983Y-35388516D01*
X127229761Y-35402142D01*
X127164384Y-35414850D01*
X127154570Y-35417850D01*
X126828659Y-35519984D01*
X126767290Y-35546034D01*
X126705658Y-35571185D01*
X126696613Y-35576034D01*
X126396747Y-35739527D01*
X126341621Y-35776991D01*
X126286037Y-35813642D01*
X126278107Y-35820155D01*
X126015707Y-36038778D01*
X125968895Y-36086248D01*
X125921498Y-36132988D01*
X125914989Y-36140912D01*
X125914985Y-36140916D01*
X125914984Y-36140918D01*
X125700046Y-36406344D01*
X125663361Y-36461980D01*
X125625931Y-36517056D01*
X125621082Y-36526100D01*
X125461793Y-36828219D01*
X125436616Y-36889914D01*
X125410593Y-36951219D01*
X125407593Y-36961033D01*
X125310019Y-37288338D01*
X125297307Y-37353737D01*
X125283685Y-37418939D01*
X125282648Y-37429149D01*
X125250506Y-37769173D01*
X125250739Y-37835780D01*
X125250041Y-37902403D01*
X109969836Y-37902403D01*
X109816092Y-37759751D01*
X109763047Y-37719404D01*
X109710616Y-37678357D01*
X109701919Y-37672910D01*
X109203540Y-37365623D01*
X109143650Y-37336339D01*
X109084263Y-37306266D01*
X109074673Y-37302612D01*
X108526099Y-37097979D01*
X108461664Y-37080886D01*
X108397564Y-37062921D01*
X108387450Y-37061199D01*
X108387446Y-37061199D01*
X107809575Y-36967016D01*
X107743072Y-36962766D01*
X107676681Y-36957591D01*
X107666422Y-36957867D01*
X107666421Y-36957867D01*
X107081261Y-36977719D01*
X107015208Y-36986465D01*
X106949063Y-36994286D01*
X106939059Y-36996549D01*
X106939056Y-36996549D01*
X106939053Y-36996550D01*
X106368892Y-37129684D01*
X106305783Y-37151098D01*
X106242434Y-37171612D01*
X106233055Y-37175776D01*
X105699611Y-37417118D01*
X105641862Y-37450383D01*
X105583702Y-37482812D01*
X105575310Y-37488719D01*
X105347743Y-37651300D01*
X104227079Y-37460961D01*
X104206063Y-37458142D01*
X104185141Y-37455076D01*
X101982567Y-37210440D01*
X101931412Y-37206559D01*
X101931382Y-37206559D01*
X99717168Y-37116166D01*
X99717138Y-37116164D01*
X99665837Y-37115862D01*
X99665835Y-37115862D01*
X97450651Y-37180146D01*
X97399454Y-37183423D01*
X95194149Y-37402075D01*
X95177865Y-37404266D01*
X95173753Y-37404385D01*
X95163582Y-37405753D01*
X95139388Y-37409180D01*
X95124566Y-37412783D01*
X95097951Y-37418277D01*
X95073859Y-37421518D01*
X95063887Y-37423941D01*
X94732582Y-37506927D01*
X94669812Y-37529355D01*
X94606810Y-37550879D01*
X94597504Y-37555191D01*
X94597499Y-37555193D01*
X94597495Y-37555196D01*
X94288621Y-37700951D01*
X94231428Y-37735129D01*
X94173782Y-37768495D01*
X94165486Y-37774536D01*
X93890803Y-37977510D01*
X93841306Y-38022176D01*
X93791271Y-38066074D01*
X93784306Y-38073611D01*
X93554279Y-38326073D01*
X93514403Y-38379497D01*
X93473843Y-38432284D01*
X93468475Y-38441030D01*
X93291866Y-38733364D01*
X93263125Y-38793519D01*
X93233594Y-38853172D01*
X93230027Y-38862794D01*
X93113561Y-39183863D01*
X93097064Y-39248407D01*
X93079668Y-39312711D01*
X93078038Y-39322843D01*
X93026154Y-39660420D01*
X93022505Y-39726993D01*
X93017934Y-39793396D01*
X93018303Y-39803652D01*
X93032976Y-40144875D01*
X93042322Y-40210855D01*
X93050740Y-40276915D01*
X93053094Y-40286904D01*
X93133765Y-40618781D01*
X93155737Y-40681655D01*
X93176838Y-40744858D01*
X93181088Y-40754199D01*
X93324685Y-41064086D01*
X93358479Y-41121543D01*
X93391425Y-41179392D01*
X93397405Y-41187725D01*
X93397408Y-41187731D01*
X93397412Y-41187736D01*
X93471319Y-41289227D01*
X82869360Y-41289227D01*
X79960025Y-38379894D01*
X79945628Y-38233715D01*
X79895447Y-38068291D01*
X79813958Y-37915836D01*
X79704292Y-37782208D01*
X79570664Y-37672542D01*
X79418209Y-37591053D01*
X79252785Y-37540872D01*
X79080750Y-37523928D01*
X78593250Y-37523928D01*
X78421215Y-37540872D01*
X78255791Y-37591053D01*
X78103336Y-37672542D01*
X77969708Y-37782208D01*
X77899500Y-37867756D01*
X77829292Y-37782208D01*
X77695664Y-37672542D01*
X77543209Y-37591053D01*
X77377785Y-37540872D01*
X77205750Y-37523928D01*
X76718250Y-37523928D01*
X76546215Y-37540872D01*
X76380791Y-37591053D01*
X76228336Y-37672542D01*
X76094708Y-37782208D01*
X75985042Y-37915836D01*
X75903553Y-38068291D01*
X75853372Y-38233715D01*
X75836428Y-38405750D01*
X75836428Y-38735993D01*
X72785422Y-41787000D01*
X71022467Y-41787000D01*
X70978998Y-41782719D01*
X70935529Y-41787000D01*
X70935521Y-41787000D01*
X70823449Y-41798038D01*
X70805507Y-41799805D01*
X70774494Y-41809213D01*
X70638685Y-41850411D01*
X70484939Y-41932589D01*
X70473903Y-41941646D01*
X70383951Y-42015468D01*
X70383949Y-42015470D01*
X70350181Y-42043183D01*
X70322468Y-42076951D01*
X66460956Y-45938464D01*
X66427183Y-45966181D01*
X66316589Y-46100940D01*
X66234411Y-46254686D01*
X66183805Y-46421509D01*
X66171000Y-46551522D01*
X66171000Y-46551529D01*
X66166719Y-46594998D01*
X66171000Y-46638467D01*
X66171001Y-49571734D01*
X66057875Y-49684860D01*
X65917247Y-49895324D01*
X65820381Y-50129179D01*
X65771000Y-50377439D01*
X65771000Y-50630561D01*
X65820381Y-50878821D01*
X65917247Y-51112676D01*
X66057875Y-51323140D01*
X66236860Y-51502125D01*
X66447324Y-51642753D01*
X66681179Y-51739619D01*
X66929439Y-51789000D01*
X67182561Y-51789000D01*
X67430821Y-51739619D01*
X67664676Y-51642753D01*
X67875140Y-51502125D01*
X68054125Y-51323140D01*
X68105664Y-51246006D01*
X68263688Y-51482505D01*
X68477495Y-51696312D01*
X68728905Y-51864299D01*
X69008257Y-51980011D01*
X69304816Y-52039000D01*
X69607184Y-52039000D01*
X69903743Y-51980011D01*
X70183095Y-51864299D01*
X70434505Y-51696312D01*
X70648312Y-51482505D01*
X70816299Y-51231095D01*
X70932011Y-50951743D01*
X70991000Y-50655184D01*
X70991000Y-50352816D01*
X70932011Y-50056257D01*
X70816299Y-49776905D01*
X70648312Y-49525495D01*
X70434505Y-49311688D01*
X70183095Y-49143701D01*
X69903743Y-49027989D01*
X69607184Y-48969000D01*
X69304816Y-48969000D01*
X69008257Y-49027989D01*
X68728905Y-49143701D01*
X68477495Y-49311688D01*
X68263688Y-49525495D01*
X68105664Y-49761994D01*
X68054125Y-49684860D01*
X67941000Y-49571735D01*
X67941000Y-46961576D01*
X71345577Y-43557000D01*
X73108531Y-43557000D01*
X73152000Y-43561281D01*
X73195469Y-43557000D01*
X73195477Y-43557000D01*
X73325490Y-43544195D01*
X73492313Y-43493589D01*
X73646059Y-43411411D01*
X73780817Y-43300817D01*
X73808534Y-43267044D01*
X76875507Y-40200072D01*
X77205750Y-40200072D01*
X77377785Y-40183128D01*
X77543209Y-40132947D01*
X77695664Y-40051458D01*
X77829292Y-39941792D01*
X77899500Y-39856244D01*
X77969708Y-39941792D01*
X78103336Y-40051458D01*
X78255791Y-40132947D01*
X78421215Y-40183128D01*
X78567394Y-40197525D01*
X81557240Y-43187373D01*
X81592778Y-43230676D01*
X81636081Y-43266214D01*
X81636083Y-43266216D01*
X81765604Y-43372511D01*
X81962780Y-43477903D01*
X82176728Y-43542804D01*
X82399227Y-43564718D01*
X82454979Y-43559227D01*
X97934096Y-43559227D01*
X98564482Y-44189614D01*
X98336589Y-44284010D01*
X98093368Y-44446525D01*
X97961513Y-44578380D01*
X97939502Y-44505820D01*
X97880537Y-44395506D01*
X97801185Y-44298815D01*
X97704494Y-44219463D01*
X97594180Y-44160498D01*
X97474482Y-44124188D01*
X97350000Y-44111928D01*
X95650000Y-44111928D01*
X95525518Y-44124188D01*
X95405820Y-44160498D01*
X95295506Y-44219463D01*
X95198815Y-44298815D01*
X95119463Y-44395506D01*
X95060498Y-44505820D01*
X95024188Y-44625518D01*
X95015375Y-44715000D01*
X87742283Y-44715000D01*
X87698814Y-44710719D01*
X87655345Y-44715000D01*
X87655337Y-44715000D01*
X87525324Y-44727805D01*
X87358501Y-44778411D01*
X87249157Y-44836856D01*
X87204755Y-44860589D01*
X87103767Y-44943468D01*
X87103765Y-44943470D01*
X87069997Y-44971183D01*
X87042284Y-45004951D01*
X83939000Y-48108236D01*
X83939000Y-47696248D01*
X83922577Y-47529501D01*
X83857676Y-47315553D01*
X83752284Y-47118377D01*
X83610449Y-46945551D01*
X83437623Y-46803716D01*
X83240447Y-46698324D01*
X83026499Y-46633423D01*
X82804000Y-46611509D01*
X82581502Y-46633423D01*
X82367554Y-46698324D01*
X82170378Y-46803716D01*
X81997552Y-46945551D01*
X81855717Y-47118377D01*
X81750325Y-47315553D01*
X81685424Y-47529501D01*
X81669001Y-47696248D01*
X81669001Y-49856783D01*
X81554125Y-49684860D01*
X81375140Y-49505875D01*
X81164676Y-49365247D01*
X80930821Y-49268381D01*
X80682561Y-49219000D01*
X80429439Y-49219000D01*
X80181179Y-49268381D01*
X79947324Y-49365247D01*
X79736860Y-49505875D01*
X79557875Y-49684860D01*
X79506336Y-49761994D01*
X79348312Y-49525495D01*
X79134505Y-49311688D01*
X78883095Y-49143701D01*
X78603743Y-49027989D01*
X78307184Y-48969000D01*
X78004816Y-48969000D01*
X77708257Y-49027989D01*
X77428905Y-49143701D01*
X77177495Y-49311688D01*
X76963688Y-49525495D01*
X76795701Y-49776905D01*
X76679989Y-50056257D01*
X76621000Y-50352816D01*
X76621000Y-50655184D01*
X76679989Y-50951743D01*
X76795701Y-51231095D01*
X76963688Y-51482505D01*
X77177495Y-51696312D01*
X77428905Y-51864299D01*
X77708257Y-51980011D01*
X78004816Y-52039000D01*
X78307184Y-52039000D01*
X78603743Y-51980011D01*
X78883095Y-51864299D01*
X79134505Y-51696312D01*
X79348312Y-51482505D01*
X79506336Y-51246006D01*
X79557875Y-51323140D01*
X79736860Y-51502125D01*
X79947324Y-51642753D01*
X80181179Y-51739619D01*
X80429439Y-51789000D01*
X80682561Y-51789000D01*
X80930821Y-51739619D01*
X81164676Y-51642753D01*
X81375140Y-51502125D01*
X81554125Y-51323140D01*
X81669001Y-51151217D01*
X81669000Y-54139868D01*
X77644012Y-58164857D01*
X77537717Y-58294378D01*
X77432324Y-58491554D01*
X77367423Y-58705502D01*
X77345509Y-58928000D01*
X77367423Y-59150498D01*
X77432324Y-59364446D01*
X77537717Y-59561622D01*
X77679552Y-59734448D01*
X77852378Y-59876283D01*
X78049554Y-59981676D01*
X78263502Y-60046577D01*
X78486000Y-60068491D01*
X78708498Y-60046577D01*
X78922446Y-59981676D01*
X79119622Y-59876283D01*
X79249143Y-59769988D01*
X83443000Y-55576132D01*
X83443000Y-56852531D01*
X83438719Y-56896000D01*
X83443000Y-56939469D01*
X83443000Y-56939476D01*
X83455805Y-57069489D01*
X83506411Y-57236312D01*
X83588589Y-57390058D01*
X83699183Y-57524817D01*
X83732956Y-57552534D01*
X86024480Y-59844059D01*
X86052193Y-59877827D01*
X86085961Y-59905540D01*
X86085963Y-59905542D01*
X86186951Y-59988421D01*
X86340696Y-60070599D01*
X86458056Y-60106200D01*
X86507520Y-60121205D01*
X86637533Y-60134010D01*
X86637541Y-60134010D01*
X86681010Y-60138291D01*
X86724479Y-60134010D01*
X90047208Y-60134010D01*
X97564246Y-67651049D01*
X97591959Y-67684817D01*
X97625727Y-67712530D01*
X97625729Y-67712532D01*
X97671969Y-67750480D01*
X97726717Y-67795411D01*
X97880463Y-67877589D01*
X98047286Y-67928195D01*
X98177299Y-67941000D01*
X98177309Y-67941000D01*
X98220775Y-67945281D01*
X98264241Y-67941000D01*
X101823546Y-67941000D01*
X101871744Y-67973205D01*
X102060102Y-68051226D01*
X102260061Y-68091000D01*
X102463939Y-68091000D01*
X102663898Y-68051226D01*
X102852256Y-67973205D01*
X103021774Y-67859937D01*
X103165937Y-67715774D01*
X103279205Y-67546256D01*
X103357226Y-67357898D01*
X103397000Y-67157939D01*
X103397000Y-67008686D01*
X103464763Y-66963408D01*
X103608926Y-66819245D01*
X103722194Y-66649727D01*
X103800215Y-66461369D01*
X103839989Y-66261410D01*
X103839989Y-66057532D01*
X103800215Y-65857573D01*
X103722194Y-65669215D01*
X103608926Y-65499697D01*
X103464763Y-65355534D01*
X103295245Y-65242266D01*
X103106887Y-65164245D01*
X102906928Y-65124471D01*
X102703050Y-65124471D01*
X102503091Y-65164245D01*
X102314733Y-65242266D01*
X102196900Y-65320999D01*
X101997464Y-65320999D01*
X101953998Y-65316718D01*
X101910532Y-65320999D01*
X101910522Y-65320999D01*
X101780509Y-65333804D01*
X101613686Y-65384410D01*
X101567681Y-65409000D01*
X98815318Y-65409000D01*
X95243318Y-61837000D01*
X105295000Y-61837000D01*
X105295001Y-67632037D01*
X105315041Y-67835507D01*
X105394237Y-68096581D01*
X105522844Y-68337188D01*
X105695920Y-68548081D01*
X105906813Y-68721157D01*
X106147420Y-68849764D01*
X106231774Y-68875353D01*
X106785470Y-69429049D01*
X106813183Y-69462817D01*
X106846951Y-69490530D01*
X106846953Y-69490532D01*
X106919183Y-69549810D01*
X106947941Y-69573411D01*
X107101687Y-69655589D01*
X107268510Y-69706195D01*
X107398523Y-69719000D01*
X107398531Y-69719000D01*
X107442000Y-69723281D01*
X107485469Y-69719000D01*
X114764531Y-69719000D01*
X114808000Y-69723281D01*
X114851469Y-69719000D01*
X114851477Y-69719000D01*
X114981490Y-69706195D01*
X115148313Y-69655589D01*
X115302059Y-69573411D01*
X115436817Y-69462817D01*
X115464534Y-69429044D01*
X117943050Y-66950529D01*
X117976817Y-66922817D01*
X118009897Y-66882510D01*
X118063210Y-66817548D01*
X118087411Y-66788059D01*
X118169589Y-66634313D01*
X118220195Y-66467490D01*
X118233000Y-66337477D01*
X118233000Y-66337467D01*
X118237281Y-66294001D01*
X118233000Y-66250535D01*
X118233000Y-59733469D01*
X118237281Y-59690000D01*
X118233000Y-59646531D01*
X118233000Y-59646523D01*
X118220195Y-59516510D01*
X118212410Y-59490845D01*
X118194988Y-59433416D01*
X118169589Y-59349687D01*
X118087411Y-59195941D01*
X118043795Y-59142795D01*
X118004532Y-59094953D01*
X118004530Y-59094951D01*
X117976817Y-59061183D01*
X117943049Y-59033470D01*
X116451000Y-57541422D01*
X116451000Y-50601752D01*
X116456491Y-50546000D01*
X116434577Y-50323501D01*
X116369676Y-50109553D01*
X116264284Y-49912377D01*
X116157989Y-49782856D01*
X116157987Y-49782854D01*
X116122449Y-49739551D01*
X116079146Y-49704013D01*
X114379995Y-48004864D01*
X114344449Y-47961551D01*
X114171623Y-47819716D01*
X113974447Y-47714324D01*
X113760499Y-47649423D01*
X113593752Y-47633000D01*
X113593751Y-47633000D01*
X113538000Y-47627509D01*
X113482249Y-47633000D01*
X98258578Y-47633000D01*
X98821040Y-47070539D01*
X98893740Y-47085000D01*
X99186260Y-47085000D01*
X99473158Y-47027932D01*
X99743411Y-46915990D01*
X99986632Y-46753475D01*
X100193475Y-46546632D01*
X100310000Y-46372240D01*
X100426525Y-46546632D01*
X100633368Y-46753475D01*
X100876589Y-46915990D01*
X101146842Y-47027932D01*
X101433740Y-47085000D01*
X101726260Y-47085000D01*
X102013158Y-47027932D01*
X102283411Y-46915990D01*
X102526632Y-46753475D01*
X102733475Y-46546632D01*
X102895990Y-46303411D01*
X103007932Y-46033158D01*
X103065000Y-45746260D01*
X103065000Y-45720131D01*
X103600133Y-45184999D01*
X105221380Y-45184999D01*
X105509515Y-45473134D01*
X105545062Y-45516448D01*
X105717888Y-45658283D01*
X105882483Y-45746260D01*
X105915064Y-45763675D01*
X106129012Y-45828576D01*
X106351511Y-45850490D01*
X106407262Y-45844999D01*
X113477866Y-45844999D01*
X117456006Y-49823140D01*
X117491548Y-49866448D01*
X117664374Y-50008283D01*
X117846660Y-50105716D01*
X117861550Y-50113675D01*
X118075498Y-50178576D01*
X118297997Y-50200490D01*
X118353748Y-50194999D01*
X118797928Y-50194999D01*
X118797928Y-50510000D01*
X118810188Y-50634482D01*
X118846498Y-50754180D01*
X118905463Y-50864494D01*
X118984815Y-50961185D01*
X119081506Y-51040537D01*
X119191820Y-51099502D01*
X119311518Y-51135812D01*
X119436000Y-51148072D01*
X120000494Y-51148072D01*
X120405465Y-51553044D01*
X120416774Y-51609898D01*
X120494275Y-51797000D01*
X120294061Y-51797000D01*
X120094102Y-51836774D01*
X119905744Y-51914795D01*
X119736226Y-52028063D01*
X119592063Y-52172226D01*
X119478795Y-52341744D01*
X119400774Y-52530102D01*
X119361000Y-52730061D01*
X119361000Y-52933939D01*
X119400774Y-53133898D01*
X119478795Y-53322256D01*
X119511000Y-53370454D01*
X119511001Y-67947422D01*
X117544434Y-69913990D01*
X103488475Y-69913990D01*
X103445009Y-69909709D01*
X103401543Y-69913990D01*
X103401533Y-69913990D01*
X103271520Y-69926795D01*
X103104697Y-69977401D01*
X102950951Y-70059579D01*
X102928640Y-70077889D01*
X102849963Y-70142458D01*
X102849961Y-70142460D01*
X102816193Y-70170173D01*
X102788480Y-70203941D01*
X98855494Y-74136928D01*
X98525250Y-74136928D01*
X98353215Y-74153872D01*
X98187791Y-74204053D01*
X98035336Y-74285542D01*
X97901708Y-74395208D01*
X97792042Y-74528836D01*
X97710553Y-74681291D01*
X97660372Y-74846715D01*
X97643428Y-75018750D01*
X97643428Y-75506250D01*
X97660372Y-75678285D01*
X97710553Y-75843709D01*
X97792042Y-75996164D01*
X97901708Y-76129792D01*
X97987256Y-76200000D01*
X97923285Y-76252500D01*
X85960270Y-76252500D01*
X86007205Y-76182256D01*
X86085226Y-75993898D01*
X86125000Y-75793939D01*
X86125000Y-75590061D01*
X86085226Y-75390102D01*
X86007205Y-75201744D01*
X85975000Y-75153546D01*
X85975000Y-73276578D01*
X92095049Y-67156530D01*
X92128817Y-67128817D01*
X92157343Y-67094059D01*
X92239411Y-66994059D01*
X92268138Y-66940314D01*
X92321589Y-66840313D01*
X92357391Y-66722290D01*
X92372195Y-66673491D01*
X92374535Y-66649727D01*
X92385000Y-66543477D01*
X92385000Y-66543469D01*
X92389281Y-66500000D01*
X92385723Y-66463874D01*
X92401185Y-66451185D01*
X92480537Y-66354494D01*
X92539502Y-66244180D01*
X92575812Y-66124482D01*
X92588072Y-66000000D01*
X92588072Y-65200000D01*
X92575812Y-65075518D01*
X92539502Y-64955820D01*
X92480537Y-64845506D01*
X92401185Y-64748815D01*
X92304494Y-64669463D01*
X92194180Y-64610498D01*
X92074482Y-64574188D01*
X91950000Y-64561928D01*
X91050000Y-64561928D01*
X90925518Y-64574188D01*
X90805820Y-64610498D01*
X90695506Y-64669463D01*
X90598815Y-64748815D01*
X90588072Y-64761905D01*
X90588072Y-64250000D01*
X90575812Y-64125518D01*
X90539502Y-64005820D01*
X90480537Y-63895506D01*
X90401185Y-63798815D01*
X90304494Y-63719463D01*
X90194180Y-63660498D01*
X90074482Y-63624188D01*
X89950000Y-63611928D01*
X89050000Y-63611928D01*
X88925518Y-63624188D01*
X88805820Y-63660498D01*
X88703856Y-63715000D01*
X88509651Y-63715000D01*
X88476958Y-63653836D01*
X88367292Y-63520208D01*
X88233664Y-63410542D01*
X88081209Y-63329053D01*
X87915785Y-63278872D01*
X87743750Y-63261928D01*
X87256250Y-63261928D01*
X87084215Y-63278872D01*
X86918791Y-63329053D01*
X86766336Y-63410542D01*
X86632708Y-63520208D01*
X86562500Y-63605756D01*
X86492292Y-63520208D01*
X86358664Y-63410542D01*
X86206209Y-63329053D01*
X86040785Y-63278872D01*
X85868750Y-63261928D01*
X85381250Y-63261928D01*
X85209215Y-63278872D01*
X85043791Y-63329053D01*
X84891336Y-63410542D01*
X84757708Y-63520208D01*
X84648042Y-63653836D01*
X84566553Y-63806291D01*
X84541160Y-63890000D01*
X84476018Y-63890000D01*
X84401185Y-63798815D01*
X84304494Y-63719463D01*
X84194180Y-63660498D01*
X84074482Y-63624188D01*
X83950000Y-63611928D01*
X83536730Y-63611928D01*
X83013804Y-63089002D01*
X82990001Y-63059999D01*
X82874276Y-62965026D01*
X82742247Y-62894454D01*
X82598986Y-62850997D01*
X82487333Y-62840000D01*
X82487322Y-62840000D01*
X82450000Y-62836324D01*
X82412678Y-62840000D01*
X76988072Y-62840000D01*
X76988072Y-62750000D01*
X76975812Y-62625518D01*
X76939502Y-62505820D01*
X76880537Y-62395506D01*
X76801185Y-62298815D01*
X76704494Y-62219463D01*
X76594180Y-62160498D01*
X76474482Y-62124188D01*
X76350000Y-62111928D01*
X74650000Y-62111928D01*
X74525518Y-62124188D01*
X74405820Y-62160498D01*
X74295506Y-62219463D01*
X74250300Y-62256562D01*
X74309616Y-61857616D01*
X74312937Y-61791065D01*
X74317185Y-61724601D01*
X74316766Y-61714347D01*
X74288745Y-61129520D01*
X74279075Y-61063582D01*
X74270333Y-60997568D01*
X74267931Y-60987591D01*
X74126849Y-60419345D01*
X74104560Y-60356553D01*
X74083159Y-60293482D01*
X74078864Y-60284162D01*
X73830097Y-59754141D01*
X73796028Y-59696861D01*
X73762792Y-59639162D01*
X73756769Y-59630854D01*
X73409792Y-59159246D01*
X73365243Y-59109671D01*
X73321435Y-59059529D01*
X73313913Y-59052548D01*
X72881940Y-58657317D01*
X72828625Y-58617350D01*
X72775899Y-58576662D01*
X72767164Y-58571276D01*
X72767163Y-58571275D01*
X72767160Y-58571274D01*
X72266652Y-58267475D01*
X72206572Y-58238616D01*
X72146962Y-58208952D01*
X72137356Y-58205368D01*
X72137349Y-58205365D01*
X72137342Y-58205363D01*
X71812612Y-58086806D01*
X72068621Y-57980763D01*
X72332315Y-57804569D01*
X72556569Y-57580315D01*
X72732763Y-57316621D01*
X72854129Y-57023620D01*
X72916000Y-56712571D01*
X72916000Y-56395429D01*
X74696000Y-56395429D01*
X74696000Y-56712571D01*
X74757871Y-57023620D01*
X74879237Y-57316621D01*
X75055431Y-57580315D01*
X75279685Y-57804569D01*
X75543379Y-57980763D01*
X75836380Y-58102129D01*
X76147429Y-58164000D01*
X76464571Y-58164000D01*
X76775620Y-58102129D01*
X77068621Y-57980763D01*
X77332315Y-57804569D01*
X77556569Y-57580315D01*
X77732763Y-57316621D01*
X77854129Y-57023620D01*
X77916000Y-56712571D01*
X77916000Y-56395429D01*
X77854129Y-56084380D01*
X77732763Y-55791379D01*
X77556569Y-55527685D01*
X77332315Y-55303431D01*
X77068621Y-55127237D01*
X76775620Y-55005871D01*
X76464571Y-54944000D01*
X76147429Y-54944000D01*
X75836380Y-55005871D01*
X75543379Y-55127237D01*
X75279685Y-55303431D01*
X75055431Y-55527685D01*
X74879237Y-55791379D01*
X74757871Y-56084380D01*
X74696000Y-56395429D01*
X72916000Y-56395429D01*
X72854129Y-56084380D01*
X72732763Y-55791379D01*
X72556569Y-55527685D01*
X72332315Y-55303431D01*
X72068621Y-55127237D01*
X71775620Y-55005871D01*
X71464571Y-54944000D01*
X71147429Y-54944000D01*
X70836380Y-55005871D01*
X70543379Y-55127237D01*
X70279685Y-55303431D01*
X70055431Y-55527685D01*
X69879237Y-55791379D01*
X69757871Y-56084380D01*
X69696000Y-56395429D01*
X69696000Y-56712571D01*
X69757871Y-57023620D01*
X69879237Y-57316621D01*
X70055431Y-57580315D01*
X70279685Y-57804569D01*
X70398403Y-57883894D01*
X70141716Y-57894397D01*
X70075738Y-57903602D01*
X70009638Y-57911886D01*
X69999652Y-57914218D01*
X69999646Y-57914219D01*
X69999641Y-57914221D01*
X69430427Y-58051331D01*
X69367480Y-58073181D01*
X69304263Y-58094141D01*
X69294916Y-58098370D01*
X69294912Y-58098371D01*
X69294908Y-58098373D01*
X68763169Y-58343431D01*
X68705690Y-58377077D01*
X68647721Y-58409932D01*
X68639371Y-58415897D01*
X68165352Y-58759574D01*
X68115475Y-58803769D01*
X68065021Y-58847232D01*
X68057988Y-58854706D01*
X67659751Y-59283908D01*
X67619404Y-59336953D01*
X67578357Y-59389384D01*
X67572910Y-59398081D01*
X67265623Y-59896460D01*
X67236339Y-59956350D01*
X67206266Y-60015737D01*
X67202612Y-60025327D01*
X66997979Y-60573901D01*
X66980886Y-60638336D01*
X66962921Y-60702436D01*
X66961199Y-60712553D01*
X66867016Y-61290425D01*
X66862766Y-61356931D01*
X66857591Y-61423320D01*
X66857867Y-61433578D01*
X66877719Y-62018739D01*
X66886466Y-62084800D01*
X66894286Y-62150937D01*
X66896548Y-62160939D01*
X66896549Y-62160945D01*
X66896550Y-62160947D01*
X67029683Y-62731107D01*
X67051102Y-62794228D01*
X67071612Y-62857567D01*
X67075776Y-62866946D01*
X67317118Y-63400389D01*
X67350391Y-63458153D01*
X67382812Y-63516298D01*
X67388713Y-63524681D01*
X67388718Y-63524689D01*
X67388723Y-63524695D01*
X67551300Y-63752257D01*
X67360961Y-64872921D01*
X67358142Y-64893937D01*
X67355076Y-64914859D01*
X67110440Y-67117433D01*
X67106559Y-67168588D01*
X67106559Y-67168618D01*
X67016166Y-69382832D01*
X67016164Y-69382862D01*
X67015862Y-69434164D01*
X67080146Y-71649349D01*
X67083423Y-71700546D01*
X67302075Y-73905851D01*
X67304266Y-73922135D01*
X67304385Y-73926248D01*
X67305753Y-73936419D01*
X67309180Y-73960612D01*
X67312783Y-73975433D01*
X67318277Y-74002052D01*
X67321518Y-74026141D01*
X67323941Y-74036113D01*
X67406927Y-74367418D01*
X67429363Y-74430210D01*
X67450880Y-74493191D01*
X67455191Y-74502496D01*
X67455193Y-74502501D01*
X67455194Y-74502502D01*
X67600951Y-74811379D01*
X67635129Y-74868572D01*
X67668495Y-74926218D01*
X67674535Y-74934514D01*
X67751395Y-75038527D01*
X67362735Y-75038527D01*
X67361128Y-75022215D01*
X67310947Y-74856791D01*
X67229458Y-74704336D01*
X67119792Y-74570708D01*
X66986164Y-74461042D01*
X66833709Y-74379553D01*
X66668285Y-74329372D01*
X66496250Y-74312428D01*
X65583750Y-74312428D01*
X65411715Y-74329372D01*
X65246291Y-74379553D01*
X65093836Y-74461042D01*
X64960208Y-74570708D01*
X64850542Y-74704336D01*
X64769053Y-74856791D01*
X64735000Y-74969048D01*
X64735000Y-39354467D01*
X67007062Y-39354467D01*
X67007062Y-39845533D01*
X67102864Y-40327163D01*
X67290787Y-40780849D01*
X67563609Y-41189155D01*
X67910845Y-41536391D01*
X68319151Y-41809213D01*
X68772837Y-41997136D01*
X69254467Y-42092938D01*
X69745533Y-42092938D01*
X70227163Y-41997136D01*
X70680849Y-41809213D01*
X71089155Y-41536391D01*
X71436391Y-41189155D01*
X71709213Y-40780849D01*
X71897136Y-40327163D01*
X71992938Y-39845533D01*
X71992938Y-39354467D01*
X71897136Y-38872837D01*
X71709213Y-38419151D01*
X71436391Y-38010845D01*
X71089155Y-37663609D01*
X70680849Y-37390787D01*
X70227163Y-37202864D01*
X69745533Y-37107062D01*
X69254467Y-37107062D01*
X68772837Y-37202864D01*
X68319151Y-37390787D01*
X67910845Y-37663609D01*
X67563609Y-38010845D01*
X67290787Y-38419151D01*
X67102864Y-38872837D01*
X67007062Y-39354467D01*
X64735000Y-39354467D01*
X64735000Y-38135945D01*
X64800638Y-37466512D01*
X64984617Y-36857146D01*
X65283449Y-36295125D01*
X65685753Y-35801853D01*
X66176205Y-35396116D01*
X66736128Y-35093366D01*
X67344188Y-34905140D01*
X68011532Y-34834999D01*
X130964054Y-34835001D01*
G37*
X130964054Y-34835001D02*
X131633488Y-34900639D01*
X132242854Y-35084618D01*
X132804875Y-35383450D01*
X133298147Y-35785754D01*
X133703884Y-36276206D01*
X134006634Y-36836129D01*
X134194860Y-37444189D01*
X134265001Y-38111533D01*
X134265000Y-88463869D01*
X133700496Y-87899365D01*
X133664949Y-87856051D01*
X133492123Y-87714216D01*
X133294947Y-87608824D01*
X133080999Y-87543923D01*
X132967500Y-87532744D01*
X132967500Y-84574250D01*
X132972991Y-84518498D01*
X132951077Y-84295999D01*
X132886176Y-84082051D01*
X132780784Y-83884875D01*
X132638949Y-83712049D01*
X132595640Y-83676506D01*
X132528206Y-83609072D01*
X133009000Y-83609072D01*
X133133482Y-83596812D01*
X133253180Y-83560502D01*
X133363494Y-83501537D01*
X133460185Y-83422185D01*
X133539537Y-83325494D01*
X133598502Y-83215180D01*
X133634812Y-83095482D01*
X133647072Y-82971000D01*
X133647072Y-81621000D01*
X133634812Y-81496518D01*
X133598502Y-81376820D01*
X133539537Y-81266506D01*
X133460185Y-81169815D01*
X133373303Y-81098513D01*
X133494907Y-80916518D01*
X133593658Y-80678113D01*
X133644000Y-80425024D01*
X133644000Y-80166976D01*
X133593658Y-79913887D01*
X133494907Y-79675482D01*
X133351544Y-79460923D01*
X133169077Y-79278456D01*
X132954518Y-79135093D01*
X132716113Y-79036342D01*
X132463024Y-78986000D01*
X132204976Y-78986000D01*
X131951887Y-79036342D01*
X131830185Y-79086753D01*
X132002021Y-78626099D01*
X132019114Y-78561664D01*
X132037079Y-78497564D01*
X132038801Y-78487447D01*
X132132984Y-77909575D01*
X132137234Y-77843074D01*
X132142409Y-77776681D01*
X132142133Y-77766422D01*
X132122281Y-77181261D01*
X132113535Y-77115208D01*
X132105714Y-77049063D01*
X132103450Y-77039053D01*
X131970316Y-76468892D01*
X131948902Y-76405783D01*
X131928388Y-76342434D01*
X131924224Y-76333055D01*
X131682882Y-75799611D01*
X131649617Y-75741862D01*
X131617188Y-75683702D01*
X131611281Y-75675310D01*
X131448700Y-75447743D01*
X131639039Y-74327079D01*
X131641858Y-74306063D01*
X131644924Y-74285141D01*
X131889560Y-72082567D01*
X131893441Y-72031412D01*
X131893441Y-72031382D01*
X131983834Y-69817167D01*
X131983836Y-69817138D01*
X131984138Y-69765837D01*
X131919854Y-67550651D01*
X131916577Y-67499454D01*
X131697925Y-65294149D01*
X131695734Y-65277865D01*
X131695615Y-65273753D01*
X131694247Y-65263582D01*
X131690820Y-65239388D01*
X131687217Y-65224566D01*
X131681723Y-65197951D01*
X131678482Y-65173859D01*
X131676059Y-65163887D01*
X131593073Y-64832582D01*
X131570645Y-64769812D01*
X131549121Y-64706810D01*
X131544809Y-64697504D01*
X131544807Y-64697499D01*
X131544804Y-64697495D01*
X131399049Y-64388621D01*
X131364871Y-64331428D01*
X131331505Y-64273782D01*
X131325464Y-64265486D01*
X131122490Y-63990803D01*
X131077824Y-63941306D01*
X131033926Y-63891271D01*
X131026389Y-63884306D01*
X130773927Y-63654279D01*
X130720503Y-63614403D01*
X130667716Y-63573843D01*
X130658970Y-63568475D01*
X130366636Y-63391866D01*
X130306481Y-63363125D01*
X130246828Y-63333594D01*
X130237206Y-63330027D01*
X130237204Y-63330026D01*
X130237201Y-63330025D01*
X129916137Y-63213561D01*
X129851593Y-63197064D01*
X129787289Y-63179668D01*
X129777157Y-63178038D01*
X129439580Y-63126154D01*
X129373007Y-63122505D01*
X129306604Y-63117934D01*
X129296348Y-63118303D01*
X128955124Y-63132976D01*
X128889140Y-63142322D01*
X128823085Y-63150740D01*
X128813096Y-63153094D01*
X128481219Y-63233765D01*
X128418345Y-63255737D01*
X128355142Y-63276838D01*
X128345801Y-63281087D01*
X128219001Y-63339845D01*
X128219001Y-59210000D01*
X130337249Y-59210000D01*
X130393000Y-59215491D01*
X130448751Y-59210000D01*
X130448752Y-59210000D01*
X130615499Y-59193577D01*
X130829447Y-59128676D01*
X131026623Y-59023284D01*
X131199449Y-58881449D01*
X131234996Y-58838135D01*
X131692131Y-58381000D01*
X131718260Y-58381000D01*
X132005158Y-58323932D01*
X132275411Y-58211990D01*
X132518632Y-58049475D01*
X132725475Y-57842632D01*
X132887990Y-57599411D01*
X132999932Y-57329158D01*
X133057000Y-57042260D01*
X133057000Y-56749740D01*
X132999932Y-56462842D01*
X132887990Y-56192589D01*
X132725475Y-55949368D01*
X132518632Y-55742525D01*
X132344240Y-55626000D01*
X132518632Y-55509475D01*
X132725475Y-55302632D01*
X132887990Y-55059411D01*
X132999932Y-54789158D01*
X133057000Y-54502260D01*
X133057000Y-54209740D01*
X132999932Y-53922842D01*
X132887990Y-53652589D01*
X132725475Y-53409368D01*
X132518632Y-53202525D01*
X132275411Y-53040010D01*
X132005158Y-52928068D01*
X131718260Y-52871000D01*
X131425740Y-52871000D01*
X131138842Y-52928068D01*
X130868589Y-53040010D01*
X130625368Y-53202525D01*
X130418525Y-53409368D01*
X130256010Y-53652589D01*
X130144068Y-53922842D01*
X130087000Y-54209740D01*
X130087000Y-54502260D01*
X130144068Y-54789158D01*
X130256010Y-55059411D01*
X130418525Y-55302632D01*
X130625368Y-55509475D01*
X130799760Y-55626000D01*
X130625368Y-55742525D01*
X130418525Y-55949368D01*
X130256010Y-56192589D01*
X130144068Y-56462842D01*
X130087000Y-56749740D01*
X130087000Y-56775869D01*
X129922869Y-56940000D01*
X127972000Y-56940000D01*
X127972000Y-54956749D01*
X127977491Y-54900997D01*
X127955577Y-54678499D01*
X127890676Y-54464551D01*
X127870901Y-54427554D01*
X127785284Y-54267375D01*
X127643449Y-54094549D01*
X127600141Y-54059007D01*
X123301134Y-49760000D01*
X124797928Y-49760000D01*
X124797928Y-50510000D01*
X124810188Y-50634482D01*
X124846498Y-50754180D01*
X124905463Y-50864494D01*
X124984815Y-50961185D01*
X125081506Y-51040537D01*
X125191820Y-51099502D01*
X125311518Y-51135812D01*
X125436000Y-51148072D01*
X126436000Y-51148072D01*
X126560482Y-51135812D01*
X126680180Y-51099502D01*
X126790494Y-51040537D01*
X126887185Y-50961185D01*
X126966537Y-50864494D01*
X127025502Y-50754180D01*
X127061812Y-50634482D01*
X127074072Y-50510000D01*
X127074072Y-49760000D01*
X127061812Y-49635518D01*
X127025502Y-49515820D01*
X126966537Y-49405506D01*
X126887185Y-49308815D01*
X126790494Y-49229463D01*
X126680180Y-49170498D01*
X126560482Y-49134188D01*
X126436000Y-49121928D01*
X125436000Y-49121928D01*
X125311518Y-49134188D01*
X125191820Y-49170498D01*
X125081506Y-49229463D01*
X124984815Y-49308815D01*
X124905463Y-49405506D01*
X124846498Y-49515820D01*
X124810188Y-49635518D01*
X124797928Y-49760000D01*
X123301134Y-49760000D01*
X121837997Y-48296864D01*
X121802450Y-48253550D01*
X121629624Y-48111715D01*
X121432448Y-48006323D01*
X121218500Y-47941422D01*
X121051753Y-47924999D01*
X121051752Y-47924999D01*
X120996001Y-47919508D01*
X120940250Y-47924999D01*
X118768129Y-47924999D01*
X116853130Y-46010000D01*
X124797928Y-46010000D01*
X124797928Y-46760000D01*
X124810188Y-46884482D01*
X124846498Y-47004180D01*
X124905463Y-47114494D01*
X124984815Y-47211185D01*
X125081506Y-47290537D01*
X125191820Y-47349502D01*
X125311518Y-47385812D01*
X125436000Y-47398072D01*
X126436000Y-47398072D01*
X126560482Y-47385812D01*
X126680180Y-47349502D01*
X126790494Y-47290537D01*
X126887185Y-47211185D01*
X126966537Y-47114494D01*
X127025502Y-47004180D01*
X127061812Y-46884482D01*
X127074072Y-46760000D01*
X127074072Y-46010000D01*
X127061812Y-45885518D01*
X127025502Y-45765820D01*
X126966537Y-45655506D01*
X126887185Y-45558815D01*
X126790494Y-45479463D01*
X126680180Y-45420498D01*
X126560482Y-45384188D01*
X126436000Y-45371928D01*
X125436000Y-45371928D01*
X125311518Y-45384188D01*
X125191820Y-45420498D01*
X125081506Y-45479463D01*
X124984815Y-45558815D01*
X124905463Y-45655506D01*
X124846498Y-45765820D01*
X124810188Y-45885518D01*
X124797928Y-46010000D01*
X116853130Y-46010000D01*
X114789993Y-43946864D01*
X114754446Y-43903550D01*
X114581620Y-43761715D01*
X114384444Y-43656323D01*
X114170496Y-43591422D01*
X114003749Y-43574999D01*
X114003748Y-43574999D01*
X113947997Y-43569508D01*
X113892246Y-43574999D01*
X109852125Y-43574999D01*
X109940754Y-43509792D01*
X109990311Y-43465260D01*
X110040472Y-43421435D01*
X110047452Y-43413912D01*
X110442683Y-42981940D01*
X110482666Y-42928604D01*
X110523338Y-42875899D01*
X110528724Y-42867164D01*
X110832525Y-42366653D01*
X110861383Y-42306575D01*
X110891049Y-42246962D01*
X110894636Y-42237347D01*
X111095433Y-41687358D01*
X111112071Y-41622820D01*
X111129593Y-41558583D01*
X111131244Y-41548454D01*
X111221391Y-40969939D01*
X111225176Y-40903424D01*
X111229888Y-40836981D01*
X111229541Y-40826724D01*
X111205603Y-40241716D01*
X111196398Y-40175738D01*
X111188114Y-40109638D01*
X111185782Y-40099652D01*
X111185781Y-40099646D01*
X111185779Y-40099641D01*
X111048669Y-39530427D01*
X111026819Y-39467480D01*
X111005859Y-39404263D01*
X111001629Y-39394913D01*
X110756569Y-38863169D01*
X110722923Y-38805690D01*
X110690068Y-38747721D01*
X110684103Y-38739371D01*
X110340426Y-38265352D01*
X110296231Y-38215475D01*
X110252768Y-38165021D01*
X110245294Y-38157988D01*
X109969836Y-37902403D01*
X125250041Y-37902403D01*
X125251007Y-37912620D01*
X125285522Y-38252411D01*
X125298692Y-38317726D01*
X125310944Y-38383194D01*
X125313875Y-38393029D01*
X125413732Y-38719645D01*
X125439351Y-38781192D01*
X125464072Y-38842997D01*
X125468854Y-38852067D01*
X125468858Y-38852077D01*
X125468863Y-38852085D01*
X125630253Y-39153077D01*
X125667334Y-39208467D01*
X125703594Y-39264304D01*
X125710052Y-39272280D01*
X125926838Y-39536199D01*
X125926849Y-39536210D01*
X125949543Y-39563863D01*
X129536136Y-43150457D01*
X129565151Y-43174269D01*
X129581203Y-43190321D01*
X129589178Y-43196780D01*
X129856099Y-43409859D01*
X129912003Y-43446163D01*
X129967324Y-43483197D01*
X129976401Y-43487984D01*
X130279625Y-43645161D01*
X130341516Y-43669915D01*
X130402981Y-43695501D01*
X130412816Y-43698433D01*
X130740795Y-43793719D01*
X130806276Y-43805973D01*
X130871574Y-43819140D01*
X130881791Y-43820106D01*
X131222031Y-43849874D01*
X131288655Y-43849176D01*
X131355264Y-43849409D01*
X131365473Y-43848372D01*
X131705017Y-43811485D01*
X131770252Y-43797856D01*
X131835615Y-43785151D01*
X131845429Y-43782151D01*
X132171341Y-43680017D01*
X132232723Y-43653962D01*
X132294341Y-43628816D01*
X132303386Y-43623967D01*
X132603252Y-43460474D01*
X132658393Y-43423000D01*
X132713962Y-43386359D01*
X132721892Y-43379846D01*
X132984292Y-43161223D01*
X133031067Y-43113789D01*
X133078501Y-43067014D01*
X133085015Y-43059084D01*
X133299953Y-42793657D01*
X133336638Y-42738021D01*
X133374068Y-42682945D01*
X133378917Y-42673901D01*
X133538206Y-42371782D01*
X133563397Y-42310054D01*
X133589405Y-42248782D01*
X133592406Y-42238969D01*
X133689980Y-41911663D01*
X133702694Y-41846257D01*
X133716314Y-41781062D01*
X133717351Y-41770852D01*
X133749493Y-41430828D01*
X133749260Y-41364188D01*
X133749958Y-41297598D01*
X133748992Y-41287381D01*
X133714477Y-40947589D01*
X133701306Y-40882268D01*
X133689055Y-40816807D01*
X133686124Y-40806972D01*
X133586267Y-40480356D01*
X133560648Y-40418810D01*
X133535927Y-40357004D01*
X133531142Y-40347926D01*
X133369746Y-40046925D01*
X133332687Y-39991567D01*
X133296405Y-39935697D01*
X133289947Y-39927722D01*
X133073161Y-39663802D01*
X133073156Y-39663797D01*
X133050456Y-39636137D01*
X129463862Y-36049544D01*
X129434855Y-36025739D01*
X129418796Y-36009680D01*
X129410821Y-36003221D01*
X129143900Y-35790142D01*
X129088014Y-35753850D01*
X129032676Y-35716804D01*
X129023598Y-35712017D01*
X128720374Y-35554840D01*
X128658470Y-35530080D01*
X128597017Y-35504500D01*
X128587183Y-35501568D01*
X128259204Y-35406282D01*
X128193723Y-35394028D01*
X128128425Y-35380861D01*
X128118209Y-35379895D01*
X127777968Y-35350127D01*
X127711345Y-35350825D01*
X127644736Y-35350592D01*
X127634526Y-35351629D01*
X127294983Y-35388516D01*
X127229761Y-35402142D01*
X127164384Y-35414850D01*
X127154570Y-35417850D01*
X126828659Y-35519984D01*
X126767290Y-35546034D01*
X126705658Y-35571185D01*
X126696613Y-35576034D01*
X126396747Y-35739527D01*
X126341621Y-35776991D01*
X126286037Y-35813642D01*
X126278107Y-35820155D01*
X126015707Y-36038778D01*
X125968895Y-36086248D01*
X125921498Y-36132988D01*
X125914989Y-36140912D01*
X125914985Y-36140916D01*
X125914984Y-36140918D01*
X125700046Y-36406344D01*
X125663361Y-36461980D01*
X125625931Y-36517056D01*
X125621082Y-36526100D01*
X125461793Y-36828219D01*
X125436616Y-36889914D01*
X125410593Y-36951219D01*
X125407593Y-36961033D01*
X125310019Y-37288338D01*
X125297307Y-37353737D01*
X125283685Y-37418939D01*
X125282648Y-37429149D01*
X125250506Y-37769173D01*
X125250739Y-37835780D01*
X125250041Y-37902403D01*
X109969836Y-37902403D01*
X109816092Y-37759751D01*
X109763047Y-37719404D01*
X109710616Y-37678357D01*
X109701919Y-37672910D01*
X109203540Y-37365623D01*
X109143650Y-37336339D01*
X109084263Y-37306266D01*
X109074673Y-37302612D01*
X108526099Y-37097979D01*
X108461664Y-37080886D01*
X108397564Y-37062921D01*
X108387450Y-37061199D01*
X108387446Y-37061199D01*
X107809575Y-36967016D01*
X107743072Y-36962766D01*
X107676681Y-36957591D01*
X107666422Y-36957867D01*
X107666421Y-36957867D01*
X107081261Y-36977719D01*
X107015208Y-36986465D01*
X106949063Y-36994286D01*
X106939059Y-36996549D01*
X106939056Y-36996549D01*
X106939053Y-36996550D01*
X106368892Y-37129684D01*
X106305783Y-37151098D01*
X106242434Y-37171612D01*
X106233055Y-37175776D01*
X105699611Y-37417118D01*
X105641862Y-37450383D01*
X105583702Y-37482812D01*
X105575310Y-37488719D01*
X105347743Y-37651300D01*
X104227079Y-37460961D01*
X104206063Y-37458142D01*
X104185141Y-37455076D01*
X101982567Y-37210440D01*
X101931412Y-37206559D01*
X101931382Y-37206559D01*
X99717168Y-37116166D01*
X99717138Y-37116164D01*
X99665837Y-37115862D01*
X99665835Y-37115862D01*
X97450651Y-37180146D01*
X97399454Y-37183423D01*
X95194149Y-37402075D01*
X95177865Y-37404266D01*
X95173753Y-37404385D01*
X95163582Y-37405753D01*
X95139388Y-37409180D01*
X95124566Y-37412783D01*
X95097951Y-37418277D01*
X95073859Y-37421518D01*
X95063887Y-37423941D01*
X94732582Y-37506927D01*
X94669812Y-37529355D01*
X94606810Y-37550879D01*
X94597504Y-37555191D01*
X94597499Y-37555193D01*
X94597495Y-37555196D01*
X94288621Y-37700951D01*
X94231428Y-37735129D01*
X94173782Y-37768495D01*
X94165486Y-37774536D01*
X93890803Y-37977510D01*
X93841306Y-38022176D01*
X93791271Y-38066074D01*
X93784306Y-38073611D01*
X93554279Y-38326073D01*
X93514403Y-38379497D01*
X93473843Y-38432284D01*
X93468475Y-38441030D01*
X93291866Y-38733364D01*
X93263125Y-38793519D01*
X93233594Y-38853172D01*
X93230027Y-38862794D01*
X93113561Y-39183863D01*
X93097064Y-39248407D01*
X93079668Y-39312711D01*
X93078038Y-39322843D01*
X93026154Y-39660420D01*
X93022505Y-39726993D01*
X93017934Y-39793396D01*
X93018303Y-39803652D01*
X93032976Y-40144875D01*
X93042322Y-40210855D01*
X93050740Y-40276915D01*
X93053094Y-40286904D01*
X93133765Y-40618781D01*
X93155737Y-40681655D01*
X93176838Y-40744858D01*
X93181088Y-40754199D01*
X93324685Y-41064086D01*
X93358479Y-41121543D01*
X93391425Y-41179392D01*
X93397405Y-41187725D01*
X93397408Y-41187731D01*
X93397412Y-41187736D01*
X93471319Y-41289227D01*
X82869360Y-41289227D01*
X79960025Y-38379894D01*
X79945628Y-38233715D01*
X79895447Y-38068291D01*
X79813958Y-37915836D01*
X79704292Y-37782208D01*
X79570664Y-37672542D01*
X79418209Y-37591053D01*
X79252785Y-37540872D01*
X79080750Y-37523928D01*
X78593250Y-37523928D01*
X78421215Y-37540872D01*
X78255791Y-37591053D01*
X78103336Y-37672542D01*
X77969708Y-37782208D01*
X77899500Y-37867756D01*
X77829292Y-37782208D01*
X77695664Y-37672542D01*
X77543209Y-37591053D01*
X77377785Y-37540872D01*
X77205750Y-37523928D01*
X76718250Y-37523928D01*
X76546215Y-37540872D01*
X76380791Y-37591053D01*
X76228336Y-37672542D01*
X76094708Y-37782208D01*
X75985042Y-37915836D01*
X75903553Y-38068291D01*
X75853372Y-38233715D01*
X75836428Y-38405750D01*
X75836428Y-38735993D01*
X72785422Y-41787000D01*
X71022467Y-41787000D01*
X70978998Y-41782719D01*
X70935529Y-41787000D01*
X70935521Y-41787000D01*
X70823449Y-41798038D01*
X70805507Y-41799805D01*
X70774494Y-41809213D01*
X70638685Y-41850411D01*
X70484939Y-41932589D01*
X70473903Y-41941646D01*
X70383951Y-42015468D01*
X70383949Y-42015470D01*
X70350181Y-42043183D01*
X70322468Y-42076951D01*
X66460956Y-45938464D01*
X66427183Y-45966181D01*
X66316589Y-46100940D01*
X66234411Y-46254686D01*
X66183805Y-46421509D01*
X66171000Y-46551522D01*
X66171000Y-46551529D01*
X66166719Y-46594998D01*
X66171000Y-46638467D01*
X66171001Y-49571734D01*
X66057875Y-49684860D01*
X65917247Y-49895324D01*
X65820381Y-50129179D01*
X65771000Y-50377439D01*
X65771000Y-50630561D01*
X65820381Y-50878821D01*
X65917247Y-51112676D01*
X66057875Y-51323140D01*
X66236860Y-51502125D01*
X66447324Y-51642753D01*
X66681179Y-51739619D01*
X66929439Y-51789000D01*
X67182561Y-51789000D01*
X67430821Y-51739619D01*
X67664676Y-51642753D01*
X67875140Y-51502125D01*
X68054125Y-51323140D01*
X68105664Y-51246006D01*
X68263688Y-51482505D01*
X68477495Y-51696312D01*
X68728905Y-51864299D01*
X69008257Y-51980011D01*
X69304816Y-52039000D01*
X69607184Y-52039000D01*
X69903743Y-51980011D01*
X70183095Y-51864299D01*
X70434505Y-51696312D01*
X70648312Y-51482505D01*
X70816299Y-51231095D01*
X70932011Y-50951743D01*
X70991000Y-50655184D01*
X70991000Y-50352816D01*
X70932011Y-50056257D01*
X70816299Y-49776905D01*
X70648312Y-49525495D01*
X70434505Y-49311688D01*
X70183095Y-49143701D01*
X69903743Y-49027989D01*
X69607184Y-48969000D01*
X69304816Y-48969000D01*
X69008257Y-49027989D01*
X68728905Y-49143701D01*
X68477495Y-49311688D01*
X68263688Y-49525495D01*
X68105664Y-49761994D01*
X68054125Y-49684860D01*
X67941000Y-49571735D01*
X67941000Y-46961576D01*
X71345577Y-43557000D01*
X73108531Y-43557000D01*
X73152000Y-43561281D01*
X73195469Y-43557000D01*
X73195477Y-43557000D01*
X73325490Y-43544195D01*
X73492313Y-43493589D01*
X73646059Y-43411411D01*
X73780817Y-43300817D01*
X73808534Y-43267044D01*
X76875507Y-40200072D01*
X77205750Y-40200072D01*
X77377785Y-40183128D01*
X77543209Y-40132947D01*
X77695664Y-40051458D01*
X77829292Y-39941792D01*
X77899500Y-39856244D01*
X77969708Y-39941792D01*
X78103336Y-40051458D01*
X78255791Y-40132947D01*
X78421215Y-40183128D01*
X78567394Y-40197525D01*
X81557240Y-43187373D01*
X81592778Y-43230676D01*
X81636081Y-43266214D01*
X81636083Y-43266216D01*
X81765604Y-43372511D01*
X81962780Y-43477903D01*
X82176728Y-43542804D01*
X82399227Y-43564718D01*
X82454979Y-43559227D01*
X97934096Y-43559227D01*
X98564482Y-44189614D01*
X98336589Y-44284010D01*
X98093368Y-44446525D01*
X97961513Y-44578380D01*
X97939502Y-44505820D01*
X97880537Y-44395506D01*
X97801185Y-44298815D01*
X97704494Y-44219463D01*
X97594180Y-44160498D01*
X97474482Y-44124188D01*
X97350000Y-44111928D01*
X95650000Y-44111928D01*
X95525518Y-44124188D01*
X95405820Y-44160498D01*
X95295506Y-44219463D01*
X95198815Y-44298815D01*
X95119463Y-44395506D01*
X95060498Y-44505820D01*
X95024188Y-44625518D01*
X95015375Y-44715000D01*
X87742283Y-44715000D01*
X87698814Y-44710719D01*
X87655345Y-44715000D01*
X87655337Y-44715000D01*
X87525324Y-44727805D01*
X87358501Y-44778411D01*
X87249157Y-44836856D01*
X87204755Y-44860589D01*
X87103767Y-44943468D01*
X87103765Y-44943470D01*
X87069997Y-44971183D01*
X87042284Y-45004951D01*
X83939000Y-48108236D01*
X83939000Y-47696248D01*
X83922577Y-47529501D01*
X83857676Y-47315553D01*
X83752284Y-47118377D01*
X83610449Y-46945551D01*
X83437623Y-46803716D01*
X83240447Y-46698324D01*
X83026499Y-46633423D01*
X82804000Y-46611509D01*
X82581502Y-46633423D01*
X82367554Y-46698324D01*
X82170378Y-46803716D01*
X81997552Y-46945551D01*
X81855717Y-47118377D01*
X81750325Y-47315553D01*
X81685424Y-47529501D01*
X81669001Y-47696248D01*
X81669001Y-49856783D01*
X81554125Y-49684860D01*
X81375140Y-49505875D01*
X81164676Y-49365247D01*
X80930821Y-49268381D01*
X80682561Y-49219000D01*
X80429439Y-49219000D01*
X80181179Y-49268381D01*
X79947324Y-49365247D01*
X79736860Y-49505875D01*
X79557875Y-49684860D01*
X79506336Y-49761994D01*
X79348312Y-49525495D01*
X79134505Y-49311688D01*
X78883095Y-49143701D01*
X78603743Y-49027989D01*
X78307184Y-48969000D01*
X78004816Y-48969000D01*
X77708257Y-49027989D01*
X77428905Y-49143701D01*
X77177495Y-49311688D01*
X76963688Y-49525495D01*
X76795701Y-49776905D01*
X76679989Y-50056257D01*
X76621000Y-50352816D01*
X76621000Y-50655184D01*
X76679989Y-50951743D01*
X76795701Y-51231095D01*
X76963688Y-51482505D01*
X77177495Y-51696312D01*
X77428905Y-51864299D01*
X77708257Y-51980011D01*
X78004816Y-52039000D01*
X78307184Y-52039000D01*
X78603743Y-51980011D01*
X78883095Y-51864299D01*
X79134505Y-51696312D01*
X79348312Y-51482505D01*
X79506336Y-51246006D01*
X79557875Y-51323140D01*
X79736860Y-51502125D01*
X79947324Y-51642753D01*
X80181179Y-51739619D01*
X80429439Y-51789000D01*
X80682561Y-51789000D01*
X80930821Y-51739619D01*
X81164676Y-51642753D01*
X81375140Y-51502125D01*
X81554125Y-51323140D01*
X81669001Y-51151217D01*
X81669000Y-54139868D01*
X77644012Y-58164857D01*
X77537717Y-58294378D01*
X77432324Y-58491554D01*
X77367423Y-58705502D01*
X77345509Y-58928000D01*
X77367423Y-59150498D01*
X77432324Y-59364446D01*
X77537717Y-59561622D01*
X77679552Y-59734448D01*
X77852378Y-59876283D01*
X78049554Y-59981676D01*
X78263502Y-60046577D01*
X78486000Y-60068491D01*
X78708498Y-60046577D01*
X78922446Y-59981676D01*
X79119622Y-59876283D01*
X79249143Y-59769988D01*
X83443000Y-55576132D01*
X83443000Y-56852531D01*
X83438719Y-56896000D01*
X83443000Y-56939469D01*
X83443000Y-56939476D01*
X83455805Y-57069489D01*
X83506411Y-57236312D01*
X83588589Y-57390058D01*
X83699183Y-57524817D01*
X83732956Y-57552534D01*
X86024480Y-59844059D01*
X86052193Y-59877827D01*
X86085961Y-59905540D01*
X86085963Y-59905542D01*
X86186951Y-59988421D01*
X86340696Y-60070599D01*
X86458056Y-60106200D01*
X86507520Y-60121205D01*
X86637533Y-60134010D01*
X86637541Y-60134010D01*
X86681010Y-60138291D01*
X86724479Y-60134010D01*
X90047208Y-60134010D01*
X97564246Y-67651049D01*
X97591959Y-67684817D01*
X97625727Y-67712530D01*
X97625729Y-67712532D01*
X97671969Y-67750480D01*
X97726717Y-67795411D01*
X97880463Y-67877589D01*
X98047286Y-67928195D01*
X98177299Y-67941000D01*
X98177309Y-67941000D01*
X98220775Y-67945281D01*
X98264241Y-67941000D01*
X101823546Y-67941000D01*
X101871744Y-67973205D01*
X102060102Y-68051226D01*
X102260061Y-68091000D01*
X102463939Y-68091000D01*
X102663898Y-68051226D01*
X102852256Y-67973205D01*
X103021774Y-67859937D01*
X103165937Y-67715774D01*
X103279205Y-67546256D01*
X103357226Y-67357898D01*
X103397000Y-67157939D01*
X103397000Y-67008686D01*
X103464763Y-66963408D01*
X103608926Y-66819245D01*
X103722194Y-66649727D01*
X103800215Y-66461369D01*
X103839989Y-66261410D01*
X103839989Y-66057532D01*
X103800215Y-65857573D01*
X103722194Y-65669215D01*
X103608926Y-65499697D01*
X103464763Y-65355534D01*
X103295245Y-65242266D01*
X103106887Y-65164245D01*
X102906928Y-65124471D01*
X102703050Y-65124471D01*
X102503091Y-65164245D01*
X102314733Y-65242266D01*
X102196900Y-65320999D01*
X101997464Y-65320999D01*
X101953998Y-65316718D01*
X101910532Y-65320999D01*
X101910522Y-65320999D01*
X101780509Y-65333804D01*
X101613686Y-65384410D01*
X101567681Y-65409000D01*
X98815318Y-65409000D01*
X95243318Y-61837000D01*
X105295000Y-61837000D01*
X105295001Y-67632037D01*
X105315041Y-67835507D01*
X105394237Y-68096581D01*
X105522844Y-68337188D01*
X105695920Y-68548081D01*
X105906813Y-68721157D01*
X106147420Y-68849764D01*
X106231774Y-68875353D01*
X106785470Y-69429049D01*
X106813183Y-69462817D01*
X106846951Y-69490530D01*
X106846953Y-69490532D01*
X106919183Y-69549810D01*
X106947941Y-69573411D01*
X107101687Y-69655589D01*
X107268510Y-69706195D01*
X107398523Y-69719000D01*
X107398531Y-69719000D01*
X107442000Y-69723281D01*
X107485469Y-69719000D01*
X114764531Y-69719000D01*
X114808000Y-69723281D01*
X114851469Y-69719000D01*
X114851477Y-69719000D01*
X114981490Y-69706195D01*
X115148313Y-69655589D01*
X115302059Y-69573411D01*
X115436817Y-69462817D01*
X115464534Y-69429044D01*
X117943050Y-66950529D01*
X117976817Y-66922817D01*
X118009897Y-66882510D01*
X118063210Y-66817548D01*
X118087411Y-66788059D01*
X118169589Y-66634313D01*
X118220195Y-66467490D01*
X118233000Y-66337477D01*
X118233000Y-66337467D01*
X118237281Y-66294001D01*
X118233000Y-66250535D01*
X118233000Y-59733469D01*
X118237281Y-59690000D01*
X118233000Y-59646531D01*
X118233000Y-59646523D01*
X118220195Y-59516510D01*
X118212410Y-59490845D01*
X118194988Y-59433416D01*
X118169589Y-59349687D01*
X118087411Y-59195941D01*
X118043795Y-59142795D01*
X118004532Y-59094953D01*
X118004530Y-59094951D01*
X117976817Y-59061183D01*
X117943049Y-59033470D01*
X116451000Y-57541422D01*
X116451000Y-50601752D01*
X116456491Y-50546000D01*
X116434577Y-50323501D01*
X116369676Y-50109553D01*
X116264284Y-49912377D01*
X116157989Y-49782856D01*
X116157987Y-49782854D01*
X116122449Y-49739551D01*
X116079146Y-49704013D01*
X114379995Y-48004864D01*
X114344449Y-47961551D01*
X114171623Y-47819716D01*
X113974447Y-47714324D01*
X113760499Y-47649423D01*
X113593752Y-47633000D01*
X113593751Y-47633000D01*
X113538000Y-47627509D01*
X113482249Y-47633000D01*
X98258578Y-47633000D01*
X98821040Y-47070539D01*
X98893740Y-47085000D01*
X99186260Y-47085000D01*
X99473158Y-47027932D01*
X99743411Y-46915990D01*
X99986632Y-46753475D01*
X100193475Y-46546632D01*
X100310000Y-46372240D01*
X100426525Y-46546632D01*
X100633368Y-46753475D01*
X100876589Y-46915990D01*
X101146842Y-47027932D01*
X101433740Y-47085000D01*
X101726260Y-47085000D01*
X102013158Y-47027932D01*
X102283411Y-46915990D01*
X102526632Y-46753475D01*
X102733475Y-46546632D01*
X102895990Y-46303411D01*
X103007932Y-46033158D01*
X103065000Y-45746260D01*
X103065000Y-45720131D01*
X103600133Y-45184999D01*
X105221380Y-45184999D01*
X105509515Y-45473134D01*
X105545062Y-45516448D01*
X105717888Y-45658283D01*
X105882483Y-45746260D01*
X105915064Y-45763675D01*
X106129012Y-45828576D01*
X106351511Y-45850490D01*
X106407262Y-45844999D01*
X113477866Y-45844999D01*
X117456006Y-49823140D01*
X117491548Y-49866448D01*
X117664374Y-50008283D01*
X117846660Y-50105716D01*
X117861550Y-50113675D01*
X118075498Y-50178576D01*
X118297997Y-50200490D01*
X118353748Y-50194999D01*
X118797928Y-50194999D01*
X118797928Y-50510000D01*
X118810188Y-50634482D01*
X118846498Y-50754180D01*
X118905463Y-50864494D01*
X118984815Y-50961185D01*
X119081506Y-51040537D01*
X119191820Y-51099502D01*
X119311518Y-51135812D01*
X119436000Y-51148072D01*
X120000494Y-51148072D01*
X120405465Y-51553044D01*
X120416774Y-51609898D01*
X120494275Y-51797000D01*
X120294061Y-51797000D01*
X120094102Y-51836774D01*
X119905744Y-51914795D01*
X119736226Y-52028063D01*
X119592063Y-52172226D01*
X119478795Y-52341744D01*
X119400774Y-52530102D01*
X119361000Y-52730061D01*
X119361000Y-52933939D01*
X119400774Y-53133898D01*
X119478795Y-53322256D01*
X119511000Y-53370454D01*
X119511001Y-67947422D01*
X117544434Y-69913990D01*
X103488475Y-69913990D01*
X103445009Y-69909709D01*
X103401543Y-69913990D01*
X103401533Y-69913990D01*
X103271520Y-69926795D01*
X103104697Y-69977401D01*
X102950951Y-70059579D01*
X102928640Y-70077889D01*
X102849963Y-70142458D01*
X102849961Y-70142460D01*
X102816193Y-70170173D01*
X102788480Y-70203941D01*
X98855494Y-74136928D01*
X98525250Y-74136928D01*
X98353215Y-74153872D01*
X98187791Y-74204053D01*
X98035336Y-74285542D01*
X97901708Y-74395208D01*
X97792042Y-74528836D01*
X97710553Y-74681291D01*
X97660372Y-74846715D01*
X97643428Y-75018750D01*
X97643428Y-75506250D01*
X97660372Y-75678285D01*
X97710553Y-75843709D01*
X97792042Y-75996164D01*
X97901708Y-76129792D01*
X97987256Y-76200000D01*
X97923285Y-76252500D01*
X85960270Y-76252500D01*
X86007205Y-76182256D01*
X86085226Y-75993898D01*
X86125000Y-75793939D01*
X86125000Y-75590061D01*
X86085226Y-75390102D01*
X86007205Y-75201744D01*
X85975000Y-75153546D01*
X85975000Y-73276578D01*
X92095049Y-67156530D01*
X92128817Y-67128817D01*
X92157343Y-67094059D01*
X92239411Y-66994059D01*
X92268138Y-66940314D01*
X92321589Y-66840313D01*
X92357391Y-66722290D01*
X92372195Y-66673491D01*
X92374535Y-66649727D01*
X92385000Y-66543477D01*
X92385000Y-66543469D01*
X92389281Y-66500000D01*
X92385723Y-66463874D01*
X92401185Y-66451185D01*
X92480537Y-66354494D01*
X92539502Y-66244180D01*
X92575812Y-66124482D01*
X92588072Y-66000000D01*
X92588072Y-65200000D01*
X92575812Y-65075518D01*
X92539502Y-64955820D01*
X92480537Y-64845506D01*
X92401185Y-64748815D01*
X92304494Y-64669463D01*
X92194180Y-64610498D01*
X92074482Y-64574188D01*
X91950000Y-64561928D01*
X91050000Y-64561928D01*
X90925518Y-64574188D01*
X90805820Y-64610498D01*
X90695506Y-64669463D01*
X90598815Y-64748815D01*
X90588072Y-64761905D01*
X90588072Y-64250000D01*
X90575812Y-64125518D01*
X90539502Y-64005820D01*
X90480537Y-63895506D01*
X90401185Y-63798815D01*
X90304494Y-63719463D01*
X90194180Y-63660498D01*
X90074482Y-63624188D01*
X89950000Y-63611928D01*
X89050000Y-63611928D01*
X88925518Y-63624188D01*
X88805820Y-63660498D01*
X88703856Y-63715000D01*
X88509651Y-63715000D01*
X88476958Y-63653836D01*
X88367292Y-63520208D01*
X88233664Y-63410542D01*
X88081209Y-63329053D01*
X87915785Y-63278872D01*
X87743750Y-63261928D01*
X87256250Y-63261928D01*
X87084215Y-63278872D01*
X86918791Y-63329053D01*
X86766336Y-63410542D01*
X86632708Y-63520208D01*
X86562500Y-63605756D01*
X86492292Y-63520208D01*
X86358664Y-63410542D01*
X86206209Y-63329053D01*
X86040785Y-63278872D01*
X85868750Y-63261928D01*
X85381250Y-63261928D01*
X85209215Y-63278872D01*
X85043791Y-63329053D01*
X84891336Y-63410542D01*
X84757708Y-63520208D01*
X84648042Y-63653836D01*
X84566553Y-63806291D01*
X84541160Y-63890000D01*
X84476018Y-63890000D01*
X84401185Y-63798815D01*
X84304494Y-63719463D01*
X84194180Y-63660498D01*
X84074482Y-63624188D01*
X83950000Y-63611928D01*
X83536730Y-63611928D01*
X83013804Y-63089002D01*
X82990001Y-63059999D01*
X82874276Y-62965026D01*
X82742247Y-62894454D01*
X82598986Y-62850997D01*
X82487333Y-62840000D01*
X82487322Y-62840000D01*
X82450000Y-62836324D01*
X82412678Y-62840000D01*
X76988072Y-62840000D01*
X76988072Y-62750000D01*
X76975812Y-62625518D01*
X76939502Y-62505820D01*
X76880537Y-62395506D01*
X76801185Y-62298815D01*
X76704494Y-62219463D01*
X76594180Y-62160498D01*
X76474482Y-62124188D01*
X76350000Y-62111928D01*
X74650000Y-62111928D01*
X74525518Y-62124188D01*
X74405820Y-62160498D01*
X74295506Y-62219463D01*
X74250300Y-62256562D01*
X74309616Y-61857616D01*
X74312937Y-61791065D01*
X74317185Y-61724601D01*
X74316766Y-61714347D01*
X74288745Y-61129520D01*
X74279075Y-61063582D01*
X74270333Y-60997568D01*
X74267931Y-60987591D01*
X74126849Y-60419345D01*
X74104560Y-60356553D01*
X74083159Y-60293482D01*
X74078864Y-60284162D01*
X73830097Y-59754141D01*
X73796028Y-59696861D01*
X73762792Y-59639162D01*
X73756769Y-59630854D01*
X73409792Y-59159246D01*
X73365243Y-59109671D01*
X73321435Y-59059529D01*
X73313913Y-59052548D01*
X72881940Y-58657317D01*
X72828625Y-58617350D01*
X72775899Y-58576662D01*
X72767164Y-58571276D01*
X72767163Y-58571275D01*
X72767160Y-58571274D01*
X72266652Y-58267475D01*
X72206572Y-58238616D01*
X72146962Y-58208952D01*
X72137356Y-58205368D01*
X72137349Y-58205365D01*
X72137342Y-58205363D01*
X71812612Y-58086806D01*
X72068621Y-57980763D01*
X72332315Y-57804569D01*
X72556569Y-57580315D01*
X72732763Y-57316621D01*
X72854129Y-57023620D01*
X72916000Y-56712571D01*
X72916000Y-56395429D01*
X74696000Y-56395429D01*
X74696000Y-56712571D01*
X74757871Y-57023620D01*
X74879237Y-57316621D01*
X75055431Y-57580315D01*
X75279685Y-57804569D01*
X75543379Y-57980763D01*
X75836380Y-58102129D01*
X76147429Y-58164000D01*
X76464571Y-58164000D01*
X76775620Y-58102129D01*
X77068621Y-57980763D01*
X77332315Y-57804569D01*
X77556569Y-57580315D01*
X77732763Y-57316621D01*
X77854129Y-57023620D01*
X77916000Y-56712571D01*
X77916000Y-56395429D01*
X77854129Y-56084380D01*
X77732763Y-55791379D01*
X77556569Y-55527685D01*
X77332315Y-55303431D01*
X77068621Y-55127237D01*
X76775620Y-55005871D01*
X76464571Y-54944000D01*
X76147429Y-54944000D01*
X75836380Y-55005871D01*
X75543379Y-55127237D01*
X75279685Y-55303431D01*
X75055431Y-55527685D01*
X74879237Y-55791379D01*
X74757871Y-56084380D01*
X74696000Y-56395429D01*
X72916000Y-56395429D01*
X72854129Y-56084380D01*
X72732763Y-55791379D01*
X72556569Y-55527685D01*
X72332315Y-55303431D01*
X72068621Y-55127237D01*
X71775620Y-55005871D01*
X71464571Y-54944000D01*
X71147429Y-54944000D01*
X70836380Y-55005871D01*
X70543379Y-55127237D01*
X70279685Y-55303431D01*
X70055431Y-55527685D01*
X69879237Y-55791379D01*
X69757871Y-56084380D01*
X69696000Y-56395429D01*
X69696000Y-56712571D01*
X69757871Y-57023620D01*
X69879237Y-57316621D01*
X70055431Y-57580315D01*
X70279685Y-57804569D01*
X70398403Y-57883894D01*
X70141716Y-57894397D01*
X70075738Y-57903602D01*
X70009638Y-57911886D01*
X69999652Y-57914218D01*
X69999646Y-57914219D01*
X69999641Y-57914221D01*
X69430427Y-58051331D01*
X69367480Y-58073181D01*
X69304263Y-58094141D01*
X69294916Y-58098370D01*
X69294912Y-58098371D01*
X69294908Y-58098373D01*
X68763169Y-58343431D01*
X68705690Y-58377077D01*
X68647721Y-58409932D01*
X68639371Y-58415897D01*
X68165352Y-58759574D01*
X68115475Y-58803769D01*
X68065021Y-58847232D01*
X68057988Y-58854706D01*
X67659751Y-59283908D01*
X67619404Y-59336953D01*
X67578357Y-59389384D01*
X67572910Y-59398081D01*
X67265623Y-59896460D01*
X67236339Y-59956350D01*
X67206266Y-60015737D01*
X67202612Y-60025327D01*
X66997979Y-60573901D01*
X66980886Y-60638336D01*
X66962921Y-60702436D01*
X66961199Y-60712553D01*
X66867016Y-61290425D01*
X66862766Y-61356931D01*
X66857591Y-61423320D01*
X66857867Y-61433578D01*
X66877719Y-62018739D01*
X66886466Y-62084800D01*
X66894286Y-62150937D01*
X66896548Y-62160939D01*
X66896549Y-62160945D01*
X66896550Y-62160947D01*
X67029683Y-62731107D01*
X67051102Y-62794228D01*
X67071612Y-62857567D01*
X67075776Y-62866946D01*
X67317118Y-63400389D01*
X67350391Y-63458153D01*
X67382812Y-63516298D01*
X67388713Y-63524681D01*
X67388718Y-63524689D01*
X67388723Y-63524695D01*
X67551300Y-63752257D01*
X67360961Y-64872921D01*
X67358142Y-64893937D01*
X67355076Y-64914859D01*
X67110440Y-67117433D01*
X67106559Y-67168588D01*
X67106559Y-67168618D01*
X67016166Y-69382832D01*
X67016164Y-69382862D01*
X67015862Y-69434164D01*
X67080146Y-71649349D01*
X67083423Y-71700546D01*
X67302075Y-73905851D01*
X67304266Y-73922135D01*
X67304385Y-73926248D01*
X67305753Y-73936419D01*
X67309180Y-73960612D01*
X67312783Y-73975433D01*
X67318277Y-74002052D01*
X67321518Y-74026141D01*
X67323941Y-74036113D01*
X67406927Y-74367418D01*
X67429363Y-74430210D01*
X67450880Y-74493191D01*
X67455191Y-74502496D01*
X67455193Y-74502501D01*
X67455194Y-74502502D01*
X67600951Y-74811379D01*
X67635129Y-74868572D01*
X67668495Y-74926218D01*
X67674535Y-74934514D01*
X67751395Y-75038527D01*
X67362735Y-75038527D01*
X67361128Y-75022215D01*
X67310947Y-74856791D01*
X67229458Y-74704336D01*
X67119792Y-74570708D01*
X66986164Y-74461042D01*
X66833709Y-74379553D01*
X66668285Y-74329372D01*
X66496250Y-74312428D01*
X65583750Y-74312428D01*
X65411715Y-74329372D01*
X65246291Y-74379553D01*
X65093836Y-74461042D01*
X64960208Y-74570708D01*
X64850542Y-74704336D01*
X64769053Y-74856791D01*
X64735000Y-74969048D01*
X64735000Y-39354467D01*
X67007062Y-39354467D01*
X67007062Y-39845533D01*
X67102864Y-40327163D01*
X67290787Y-40780849D01*
X67563609Y-41189155D01*
X67910845Y-41536391D01*
X68319151Y-41809213D01*
X68772837Y-41997136D01*
X69254467Y-42092938D01*
X69745533Y-42092938D01*
X70227163Y-41997136D01*
X70680849Y-41809213D01*
X71089155Y-41536391D01*
X71436391Y-41189155D01*
X71709213Y-40780849D01*
X71897136Y-40327163D01*
X71992938Y-39845533D01*
X71992938Y-39354467D01*
X71897136Y-38872837D01*
X71709213Y-38419151D01*
X71436391Y-38010845D01*
X71089155Y-37663609D01*
X70680849Y-37390787D01*
X70227163Y-37202864D01*
X69745533Y-37107062D01*
X69254467Y-37107062D01*
X68772837Y-37202864D01*
X68319151Y-37390787D01*
X67910845Y-37663609D01*
X67563609Y-38010845D01*
X67290787Y-38419151D01*
X67102864Y-38872837D01*
X67007062Y-39354467D01*
X64735000Y-39354467D01*
X64735000Y-38135945D01*
X64800638Y-37466512D01*
X64984617Y-36857146D01*
X65283449Y-36295125D01*
X65685753Y-35801853D01*
X66176205Y-35396116D01*
X66736128Y-35093366D01*
X67344188Y-34905140D01*
X68011532Y-34834999D01*
X130964054Y-34835001D01*
G36*
X120665000Y-76958579D02*
G01*
X120664999Y-79009420D01*
X118674420Y-81000000D01*
X107856580Y-81000000D01*
X108045046Y-80811534D01*
X108078818Y-80783818D01*
X108189412Y-80649060D01*
X108271590Y-80495314D01*
X108322196Y-80328491D01*
X108335001Y-80198478D01*
X108335001Y-80198470D01*
X108339282Y-80155001D01*
X108335001Y-80111532D01*
X108335001Y-79983072D01*
X109235000Y-79983072D01*
X109359482Y-79970812D01*
X109420000Y-79952454D01*
X109480518Y-79970812D01*
X109605000Y-79983072D01*
X110505000Y-79983072D01*
X110629482Y-79970812D01*
X110690000Y-79952454D01*
X110750518Y-79970812D01*
X110875000Y-79983072D01*
X111775000Y-79983072D01*
X111899482Y-79970812D01*
X111960000Y-79952454D01*
X112020518Y-79970812D01*
X112145000Y-79983072D01*
X113045000Y-79983072D01*
X113169482Y-79970812D01*
X113230000Y-79952454D01*
X113290518Y-79970812D01*
X113415000Y-79983072D01*
X114315000Y-79983072D01*
X114439482Y-79970812D01*
X114500000Y-79952454D01*
X114560518Y-79970812D01*
X114685000Y-79983072D01*
X115585000Y-79983072D01*
X115709482Y-79970812D01*
X115770000Y-79952454D01*
X115830518Y-79970812D01*
X115955000Y-79983072D01*
X116855000Y-79983072D01*
X116979482Y-79970812D01*
X117040000Y-79952454D01*
X117100518Y-79970812D01*
X117225000Y-79983072D01*
X118125000Y-79983072D01*
X118249482Y-79970812D01*
X118310000Y-79952454D01*
X118370518Y-79970812D01*
X118495000Y-79983072D01*
X119395000Y-79983072D01*
X119519482Y-79970812D01*
X119639180Y-79934502D01*
X119749494Y-79875537D01*
X119846185Y-79796185D01*
X119925537Y-79699494D01*
X119984502Y-79589180D01*
X120020812Y-79469482D01*
X120033072Y-79345000D01*
X120033072Y-77345000D01*
X120020812Y-77220518D01*
X119984502Y-77100820D01*
X119925537Y-76990506D01*
X119846185Y-76893815D01*
X119749494Y-76814463D01*
X119639180Y-76755498D01*
X119519482Y-76719188D01*
X119460001Y-76713330D01*
X119460001Y-75753579D01*
X120665000Y-76958579D01*
G37*
X120665000Y-76958579D02*
X120664999Y-79009420D01*
X118674420Y-81000000D01*
X107856580Y-81000000D01*
X108045046Y-80811534D01*
X108078818Y-80783818D01*
X108189412Y-80649060D01*
X108271590Y-80495314D01*
X108322196Y-80328491D01*
X108335001Y-80198478D01*
X108335001Y-80198470D01*
X108339282Y-80155001D01*
X108335001Y-80111532D01*
X108335001Y-79983072D01*
X109235000Y-79983072D01*
X109359482Y-79970812D01*
X109420000Y-79952454D01*
X109480518Y-79970812D01*
X109605000Y-79983072D01*
X110505000Y-79983072D01*
X110629482Y-79970812D01*
X110690000Y-79952454D01*
X110750518Y-79970812D01*
X110875000Y-79983072D01*
X111775000Y-79983072D01*
X111899482Y-79970812D01*
X111960000Y-79952454D01*
X112020518Y-79970812D01*
X112145000Y-79983072D01*
X113045000Y-79983072D01*
X113169482Y-79970812D01*
X113230000Y-79952454D01*
X113290518Y-79970812D01*
X113415000Y-79983072D01*
X114315000Y-79983072D01*
X114439482Y-79970812D01*
X114500000Y-79952454D01*
X114560518Y-79970812D01*
X114685000Y-79983072D01*
X115585000Y-79983072D01*
X115709482Y-79970812D01*
X115770000Y-79952454D01*
X115830518Y-79970812D01*
X115955000Y-79983072D01*
X116855000Y-79983072D01*
X116979482Y-79970812D01*
X117040000Y-79952454D01*
X117100518Y-79970812D01*
X117225000Y-79983072D01*
X118125000Y-79983072D01*
X118249482Y-79970812D01*
X118310000Y-79952454D01*
X118370518Y-79970812D01*
X118495000Y-79983072D01*
X119395000Y-79983072D01*
X119519482Y-79970812D01*
X119639180Y-79934502D01*
X119749494Y-79875537D01*
X119846185Y-79796185D01*
X119925537Y-79699494D01*
X119984502Y-79589180D01*
X120020812Y-79469482D01*
X120033072Y-79345000D01*
X120033072Y-77345000D01*
X120020812Y-77220518D01*
X119984502Y-77100820D01*
X119925537Y-76990506D01*
X119846185Y-76893815D01*
X119749494Y-76814463D01*
X119639180Y-76755498D01*
X119519482Y-76719188D01*
X119460001Y-76713330D01*
X119460001Y-75753579D01*
X120665000Y-76958579D01*
%TD*%
M02*
