M48
; DRILL file {KiCad (5.1.6)-1} date 02/08/22 04:04:16
; FORMAT={-:-/ absolute / metric / decimal}
; #@! TF.CreationDate,2022-02-08T04:04:16+01:00
; #@! TF.GenerationSoftware,Kicad,Pcbnew,(5.1.6)-1
; #@! TF.FileFunction,Plated,1,2,PTH
FMAT,2
METRIC
T1C0.400
T2C0.762
T3C0.800
T4C1.000
T5C1.200
T6C1.300
T7C1.500
%
G90
G05
T1
X65.786Y-71.12
X65.786Y-72.136
X66.04Y-73.152
X69.088Y-77.978
X69.088Y-78.994
X69.85Y-78.74
X70.104Y-77.47
X78.486Y-58.928
X78.486Y-69.596
X79.248Y-71.374
X82.804Y-47.752
X83.566Y-78.232
X84.074Y-79.248
X84.582Y-78.232
X85.09Y-75.692
X85.635Y-79.248
X86.36Y-93.472
X87.63Y-86.614
X89.154Y-84.328
X89.662Y-84.836
X90.17Y-88.646
X93.472Y-94.213
X94.234Y-91.694
X98.044Y-79.248
X100.33Y-89.154
X100.838Y-75.438
X101.854Y-88.392
X102.362Y-67.056
X102.805Y-66.159
X104.072Y-89.412
X104.14Y-93.218
X106.68Y-60.452
X106.934Y-58.42
X107.95Y-83.566
X108.966Y-87.63
X108.966Y-90.424
X108.966Y-92.71
X109.172Y-93.932
X109.728Y-85.598
X109.982Y-84.328
X110.998Y-94.234
X111.252Y-84.328
X111.252Y-90.932
X111.252Y-92.71
X111.76Y-87.376
X112.014Y-46.99
X113.03Y-84.328
X113.284Y-46.99
X114.046Y-94.234
X114.554Y-84.328
X115.05Y-60.06
X115.062Y-61.468
X115.062Y-91.948
X115.316Y-57.658
X116.332Y-93.726
X116.586Y-45.72
X117.348Y-92.202
X118.11Y-44.958
X118.872Y-87.884
X118.872Y-94.234
X119.126Y-80.264
X119.634Y-89.662
X120.142Y-93.472
X120.396Y-44.958
X120.396Y-52.832
X120.396Y-73.914
X120.396Y-81.788
X121.158Y-85.598
X121.158Y-86.868
X121.158Y-88.138
X121.412Y-51.308
X121.412Y-84.328
X124.968Y-81.534
X125.196Y-89.636
X125.949Y-82.077
X125.984Y-59.182
X127.0Y-83.312
X127.254Y-84.328
X129.726Y-88.396
X129.726Y-94.746
X132.08Y-93.98
X133.604Y-89.408
X133.795Y-93.726
T2
X82.88Y-82.81
X87.96Y-53.6
X93.04Y-53.6
X98.12Y-82.81
T3
X67.056Y-87.588
X80.556Y-87.588
X67.056Y-50.504
X80.556Y-50.504
X126.302Y-85.598
X128.302Y-85.598
X130.302Y-85.598
X104.332Y-74.676
X106.332Y-74.676
X108.332Y-74.676
X110.332Y-74.676
X112.332Y-74.676
X114.332Y-74.676
X116.332Y-74.676
X132.334Y-80.296
X132.334Y-82.296
T4
X83.798Y-85.17
X83.798Y-90.17
X98.298Y-85.17
X98.298Y-87.67
X98.298Y-90.17
X131.572Y-51.816
X131.572Y-54.356
X131.572Y-56.896
X96.5Y-45.6
X99.04Y-45.6
X101.58Y-45.6
X104.12Y-45.6
X75.5Y-63.6
X75.5Y-66.14
X75.5Y-68.68
X75.5Y-71.22
X75.5Y-73.76
X75.5Y-76.3
T5
X110.5Y-51.6
X110.5Y-55.41
X110.5Y-59.22
X110.5Y-63.03
X110.5Y-66.84
T6
X71.306Y-81.538
X71.306Y-93.638
X76.306Y-81.538
X76.306Y-93.638
X71.306Y-44.454
X71.306Y-56.554
X76.306Y-44.454
X76.306Y-56.554
T7
G00X91.448Y-82.07
M15
G01X90.148Y-82.07
M16
G05
G00X91.448Y-93.27
M15
G01X90.148Y-93.27
M16
G05
T0
M30
