%TF.GenerationSoftware,KiCad,Pcbnew,(5.1.6)-1*%
%TF.CreationDate,2022-02-08T04:05:35+01:00*%
%TF.ProjectId,Thermostat,54686572-6d6f-4737-9461-742e6b696361,rev?*%
%TF.SameCoordinates,Original*%
%TF.FileFunction,Soldermask,Bot*%
%TF.FilePolarity,Negative*%
%FSLAX46Y46*%
G04 Gerber Fmt 4.6, Leading zero omitted, Abs format (unit mm)*
G04 Created by KiCad (PCBNEW (5.1.6)-1) date 2022-02-08 04:05:35*
%MOMM*%
%LPD*%
G01*
G04 APERTURE LIST*
%ADD10C,1.300000*%
%ADD11C,1.950000*%
%ADD12O,1.350000X1.350000*%
%ADD13R,1.350000X1.350000*%
%ADD14O,1.700000X1.700000*%
%ADD15R,1.700000X1.700000*%
%ADD16C,1.524000*%
%ADD17R,2.000000X2.000000*%
%ADD18C,2.000000*%
%ADD19R,3.200000X2.000000*%
%ADD20O,3.600000X1.800000*%
G04 APERTURE END LIST*
D10*
%TO.C,S2*%
X80556000Y-87588000D03*
X67056000Y-87588000D03*
D11*
X76306000Y-93638000D03*
X71306000Y-93638000D03*
X76306000Y-81538000D03*
X71306000Y-81538000D03*
%TD*%
D10*
%TO.C,S1*%
X80556000Y-50504000D03*
X67056000Y-50504000D03*
D11*
X76306000Y-56554000D03*
X71306000Y-56554000D03*
X76306000Y-44454000D03*
X71306000Y-44454000D03*
%TD*%
D12*
%TO.C,J6*%
X126302000Y-85598000D03*
X128302000Y-85598000D03*
D13*
X130302000Y-85598000D03*
%TD*%
D12*
%TO.C,J5*%
X132334000Y-80296000D03*
D13*
X132334000Y-82296000D03*
%TD*%
D12*
%TO.C,J4*%
X104332000Y-74676000D03*
X106332000Y-74676000D03*
X108332000Y-74676000D03*
X110332000Y-74676000D03*
X112332000Y-74676000D03*
X114332000Y-74676000D03*
D13*
X116332000Y-74676000D03*
%TD*%
D14*
%TO.C,J7*%
X131572000Y-56896000D03*
X131572000Y-54356000D03*
D15*
X131572000Y-51816000D03*
%TD*%
D16*
%TO.C,U2*%
X82880000Y-82810000D03*
X98120000Y-82810000D03*
X87960000Y-53600000D03*
X93040000Y-53600000D03*
%TD*%
D17*
%TO.C,SW1*%
X98298000Y-90170000D03*
D18*
X98298000Y-87670000D03*
X98298000Y-85170000D03*
D19*
X90798000Y-93270000D03*
X90798000Y-82070000D03*
D18*
X83798000Y-90170000D03*
X83798000Y-85170000D03*
%TD*%
D14*
%TO.C,J3*%
X75500000Y-76300000D03*
X75500000Y-73760000D03*
X75500000Y-71220000D03*
X75500000Y-68680000D03*
X75500000Y-66140000D03*
D15*
X75500000Y-63600000D03*
%TD*%
D14*
%TO.C,J2*%
X104120000Y-45600000D03*
X101580000Y-45600000D03*
X99040000Y-45600000D03*
D15*
X96500000Y-45600000D03*
%TD*%
D20*
%TO.C,J1*%
X110500000Y-66840000D03*
X110500000Y-63030000D03*
X110500000Y-59220000D03*
X110500000Y-55410000D03*
G36*
G01*
X108950000Y-50700000D02*
X112050000Y-50700000D01*
G75*
G02*
X112300000Y-50950000I0J-250000D01*
G01*
X112300000Y-52250000D01*
G75*
G02*
X112050000Y-52500000I-250000J0D01*
G01*
X108950000Y-52500000D01*
G75*
G02*
X108700000Y-52250000I0J250000D01*
G01*
X108700000Y-50950000D01*
G75*
G02*
X108950000Y-50700000I250000J0D01*
G01*
G37*
%TD*%
M02*
