%TF.GenerationSoftware,KiCad,Pcbnew,(5.1.6)-1*%
%TF.CreationDate,2022-02-08T04:05:35+01:00*%
%TF.ProjectId,Thermostat,54686572-6d6f-4737-9461-742e6b696361,rev?*%
%TF.SameCoordinates,Original*%
%TF.FileFunction,Paste,Top*%
%TF.FilePolarity,Positive*%
%FSLAX46Y46*%
G04 Gerber Fmt 4.6, Leading zero omitted, Abs format (unit mm)*
G04 Created by KiCad (PCBNEW (5.1.6)-1) date 2022-02-08 04:05:35*
%MOMM*%
%LPD*%
G01*
G04 APERTURE LIST*
%ADD10R,1.000000X0.750000*%
%ADD11R,1.900000X0.700000*%
%ADD12R,2.000000X0.900000*%
%ADD13R,0.900000X2.000000*%
%ADD14R,5.000000X5.000000*%
%ADD15R,0.900000X0.800000*%
G04 APERTURE END LIST*
D10*
%TO.C,S5*%
X125936000Y-50135000D03*
X119936000Y-50135000D03*
X125936000Y-46385000D03*
X119936000Y-46385000D03*
%TD*%
%TO.C,S4*%
X76502000Y-98963000D03*
X82502000Y-98963000D03*
X76502000Y-102713000D03*
X82502000Y-102713000D03*
%TD*%
D11*
%TO.C,IC3*%
X115141000Y-65028000D03*
X115141000Y-62488000D03*
X115141000Y-59948000D03*
X123991000Y-59948000D03*
X123991000Y-62488000D03*
X123991000Y-65028000D03*
%TD*%
%TO.C,R10*%
G36*
G01*
X78349500Y-39318250D02*
X78349500Y-38405750D01*
G75*
G02*
X78593250Y-38162000I243750J0D01*
G01*
X79080750Y-38162000D01*
G75*
G02*
X79324500Y-38405750I0J-243750D01*
G01*
X79324500Y-39318250D01*
G75*
G02*
X79080750Y-39562000I-243750J0D01*
G01*
X78593250Y-39562000D01*
G75*
G02*
X78349500Y-39318250I0J243750D01*
G01*
G37*
G36*
G01*
X76474500Y-39318250D02*
X76474500Y-38405750D01*
G75*
G02*
X76718250Y-38162000I243750J0D01*
G01*
X77205750Y-38162000D01*
G75*
G02*
X77449500Y-38405750I0J-243750D01*
G01*
X77449500Y-39318250D01*
G75*
G02*
X77205750Y-39562000I-243750J0D01*
G01*
X76718250Y-39562000D01*
G75*
G02*
X76474500Y-39318250I0J243750D01*
G01*
G37*
%TD*%
%TO.C,R9*%
G36*
G01*
X66496250Y-75925500D02*
X65583750Y-75925500D01*
G75*
G02*
X65340000Y-75681750I0J243750D01*
G01*
X65340000Y-75194250D01*
G75*
G02*
X65583750Y-74950500I243750J0D01*
G01*
X66496250Y-74950500D01*
G75*
G02*
X66740000Y-75194250I0J-243750D01*
G01*
X66740000Y-75681750D01*
G75*
G02*
X66496250Y-75925500I-243750J0D01*
G01*
G37*
G36*
G01*
X66496250Y-77800500D02*
X65583750Y-77800500D01*
G75*
G02*
X65340000Y-77556750I0J243750D01*
G01*
X65340000Y-77069250D01*
G75*
G02*
X65583750Y-76825500I243750J0D01*
G01*
X66496250Y-76825500D01*
G75*
G02*
X66740000Y-77069250I0J-243750D01*
G01*
X66740000Y-77556750D01*
G75*
G02*
X66496250Y-77800500I-243750J0D01*
G01*
G37*
%TD*%
D12*
%TO.C,U1*%
X106000000Y-95855000D03*
X106000000Y-94585000D03*
X106000000Y-93315000D03*
X106000000Y-92045000D03*
X106000000Y-90775000D03*
X106000000Y-89505000D03*
X106000000Y-88235000D03*
X106000000Y-86965000D03*
X106000000Y-85695000D03*
X106000000Y-84425000D03*
X106000000Y-83155000D03*
X106000000Y-81885000D03*
X106000000Y-80615000D03*
X106000000Y-79345000D03*
D13*
X108785000Y-78345000D03*
X110055000Y-78345000D03*
X111325000Y-78345000D03*
X112595000Y-78345000D03*
X113865000Y-78345000D03*
X115135000Y-78345000D03*
X116405000Y-78345000D03*
X117675000Y-78345000D03*
X118945000Y-78345000D03*
X120215000Y-78345000D03*
D12*
X123000000Y-79345000D03*
X123000000Y-80615000D03*
X123000000Y-81885000D03*
X123000000Y-83155000D03*
X123000000Y-84425000D03*
X123000000Y-85695000D03*
X123000000Y-86965000D03*
X123000000Y-88235000D03*
X123000000Y-89505000D03*
X123000000Y-90775000D03*
X123000000Y-92045000D03*
X123000000Y-93315000D03*
X123000000Y-94585000D03*
X123000000Y-95855000D03*
D14*
X115500000Y-88355000D03*
%TD*%
%TO.C,R8*%
G36*
G01*
X124003750Y-70300000D02*
X124916250Y-70300000D01*
G75*
G02*
X125160000Y-70543750I0J-243750D01*
G01*
X125160000Y-71031250D01*
G75*
G02*
X124916250Y-71275000I-243750J0D01*
G01*
X124003750Y-71275000D01*
G75*
G02*
X123760000Y-71031250I0J243750D01*
G01*
X123760000Y-70543750D01*
G75*
G02*
X124003750Y-70300000I243750J0D01*
G01*
G37*
G36*
G01*
X124003750Y-68425000D02*
X124916250Y-68425000D01*
G75*
G02*
X125160000Y-68668750I0J-243750D01*
G01*
X125160000Y-69156250D01*
G75*
G02*
X124916250Y-69400000I-243750J0D01*
G01*
X124003750Y-69400000D01*
G75*
G02*
X123760000Y-69156250I0J243750D01*
G01*
X123760000Y-68668750D01*
G75*
G02*
X124003750Y-68425000I243750J0D01*
G01*
G37*
%TD*%
%TO.C,R7*%
G36*
G01*
X86112500Y-64143750D02*
X86112500Y-65056250D01*
G75*
G02*
X85868750Y-65300000I-243750J0D01*
G01*
X85381250Y-65300000D01*
G75*
G02*
X85137500Y-65056250I0J243750D01*
G01*
X85137500Y-64143750D01*
G75*
G02*
X85381250Y-63900000I243750J0D01*
G01*
X85868750Y-63900000D01*
G75*
G02*
X86112500Y-64143750I0J-243750D01*
G01*
G37*
G36*
G01*
X87987500Y-64143750D02*
X87987500Y-65056250D01*
G75*
G02*
X87743750Y-65300000I-243750J0D01*
G01*
X87256250Y-65300000D01*
G75*
G02*
X87012500Y-65056250I0J243750D01*
G01*
X87012500Y-64143750D01*
G75*
G02*
X87256250Y-63900000I243750J0D01*
G01*
X87743750Y-63900000D01*
G75*
G02*
X87987500Y-64143750I0J-243750D01*
G01*
G37*
%TD*%
%TO.C,R6*%
G36*
G01*
X86950000Y-67056250D02*
X86950000Y-66143750D01*
G75*
G02*
X87193750Y-65900000I243750J0D01*
G01*
X87681250Y-65900000D01*
G75*
G02*
X87925000Y-66143750I0J-243750D01*
G01*
X87925000Y-67056250D01*
G75*
G02*
X87681250Y-67300000I-243750J0D01*
G01*
X87193750Y-67300000D01*
G75*
G02*
X86950000Y-67056250I0J243750D01*
G01*
G37*
G36*
G01*
X85075000Y-67056250D02*
X85075000Y-66143750D01*
G75*
G02*
X85318750Y-65900000I243750J0D01*
G01*
X85806250Y-65900000D01*
G75*
G02*
X86050000Y-66143750I0J-243750D01*
G01*
X86050000Y-67056250D01*
G75*
G02*
X85806250Y-67300000I-243750J0D01*
G01*
X85318750Y-67300000D01*
G75*
G02*
X85075000Y-67056250I0J243750D01*
G01*
G37*
%TD*%
%TO.C,R5*%
G36*
G01*
X87318000Y-97484250D02*
X87318000Y-96571750D01*
G75*
G02*
X87561750Y-96328000I243750J0D01*
G01*
X88049250Y-96328000D01*
G75*
G02*
X88293000Y-96571750I0J-243750D01*
G01*
X88293000Y-97484250D01*
G75*
G02*
X88049250Y-97728000I-243750J0D01*
G01*
X87561750Y-97728000D01*
G75*
G02*
X87318000Y-97484250I0J243750D01*
G01*
G37*
G36*
G01*
X85443000Y-97484250D02*
X85443000Y-96571750D01*
G75*
G02*
X85686750Y-96328000I243750J0D01*
G01*
X86174250Y-96328000D01*
G75*
G02*
X86418000Y-96571750I0J-243750D01*
G01*
X86418000Y-97484250D01*
G75*
G02*
X86174250Y-97728000I-243750J0D01*
G01*
X85686750Y-97728000D01*
G75*
G02*
X85443000Y-97484250I0J243750D01*
G01*
G37*
%TD*%
%TO.C,R4*%
G36*
G01*
X98525250Y-76650000D02*
X99437750Y-76650000D01*
G75*
G02*
X99681500Y-76893750I0J-243750D01*
G01*
X99681500Y-77381250D01*
G75*
G02*
X99437750Y-77625000I-243750J0D01*
G01*
X98525250Y-77625000D01*
G75*
G02*
X98281500Y-77381250I0J243750D01*
G01*
X98281500Y-76893750D01*
G75*
G02*
X98525250Y-76650000I243750J0D01*
G01*
G37*
G36*
G01*
X98525250Y-74775000D02*
X99437750Y-74775000D01*
G75*
G02*
X99681500Y-75018750I0J-243750D01*
G01*
X99681500Y-75506250D01*
G75*
G02*
X99437750Y-75750000I-243750J0D01*
G01*
X98525250Y-75750000D01*
G75*
G02*
X98281500Y-75506250I0J243750D01*
G01*
X98281500Y-75018750D01*
G75*
G02*
X98525250Y-74775000I243750J0D01*
G01*
G37*
%TD*%
%TO.C,R3*%
G36*
G01*
X102304000Y-91056250D02*
X102304000Y-90143750D01*
G75*
G02*
X102547750Y-89900000I243750J0D01*
G01*
X103035250Y-89900000D01*
G75*
G02*
X103279000Y-90143750I0J-243750D01*
G01*
X103279000Y-91056250D01*
G75*
G02*
X103035250Y-91300000I-243750J0D01*
G01*
X102547750Y-91300000D01*
G75*
G02*
X102304000Y-91056250I0J243750D01*
G01*
G37*
G36*
G01*
X100429000Y-91056250D02*
X100429000Y-90143750D01*
G75*
G02*
X100672750Y-89900000I243750J0D01*
G01*
X101160250Y-89900000D01*
G75*
G02*
X101404000Y-90143750I0J-243750D01*
G01*
X101404000Y-91056250D01*
G75*
G02*
X101160250Y-91300000I-243750J0D01*
G01*
X100672750Y-91300000D01*
G75*
G02*
X100429000Y-91056250I0J243750D01*
G01*
G37*
%TD*%
%TO.C,R2*%
G36*
G01*
X102304000Y-93056250D02*
X102304000Y-92143750D01*
G75*
G02*
X102547750Y-91900000I243750J0D01*
G01*
X103035250Y-91900000D01*
G75*
G02*
X103279000Y-92143750I0J-243750D01*
G01*
X103279000Y-93056250D01*
G75*
G02*
X103035250Y-93300000I-243750J0D01*
G01*
X102547750Y-93300000D01*
G75*
G02*
X102304000Y-93056250I0J243750D01*
G01*
G37*
G36*
G01*
X100429000Y-93056250D02*
X100429000Y-92143750D01*
G75*
G02*
X100672750Y-91900000I243750J0D01*
G01*
X101160250Y-91900000D01*
G75*
G02*
X101404000Y-92143750I0J-243750D01*
G01*
X101404000Y-93056250D01*
G75*
G02*
X101160250Y-93300000I-243750J0D01*
G01*
X100672750Y-93300000D01*
G75*
G02*
X100429000Y-93056250I0J243750D01*
G01*
G37*
%TD*%
%TO.C,R1*%
G36*
G01*
X131376250Y-90050000D02*
X132288750Y-90050000D01*
G75*
G02*
X132532500Y-90293750I0J-243750D01*
G01*
X132532500Y-90781250D01*
G75*
G02*
X132288750Y-91025000I-243750J0D01*
G01*
X131376250Y-91025000D01*
G75*
G02*
X131132500Y-90781250I0J243750D01*
G01*
X131132500Y-90293750D01*
G75*
G02*
X131376250Y-90050000I243750J0D01*
G01*
G37*
G36*
G01*
X131376250Y-88175000D02*
X132288750Y-88175000D01*
G75*
G02*
X132532500Y-88418750I0J-243750D01*
G01*
X132532500Y-88906250D01*
G75*
G02*
X132288750Y-89150000I-243750J0D01*
G01*
X131376250Y-89150000D01*
G75*
G02*
X131132500Y-88906250I0J243750D01*
G01*
X131132500Y-88418750D01*
G75*
G02*
X131376250Y-88175000I243750J0D01*
G01*
G37*
%TD*%
D15*
%TO.C,Q2*%
X81500000Y-65600000D03*
X83500000Y-64650000D03*
X83500000Y-66550000D03*
%TD*%
%TO.C,Q1*%
X91500000Y-65600000D03*
X89500000Y-66550000D03*
X89500000Y-64650000D03*
%TD*%
%TO.C,C3*%
G36*
G01*
X128395000Y-88825000D02*
X127145000Y-88825000D01*
G75*
G02*
X126895000Y-88575000I0J250000D01*
G01*
X126895000Y-87825000D01*
G75*
G02*
X127145000Y-87575000I250000J0D01*
G01*
X128395000Y-87575000D01*
G75*
G02*
X128645000Y-87825000I0J-250000D01*
G01*
X128645000Y-88575000D01*
G75*
G02*
X128395000Y-88825000I-250000J0D01*
G01*
G37*
G36*
G01*
X128395000Y-91625000D02*
X127145000Y-91625000D01*
G75*
G02*
X126895000Y-91375000I0J250000D01*
G01*
X126895000Y-90625000D01*
G75*
G02*
X127145000Y-90375000I250000J0D01*
G01*
X128395000Y-90375000D01*
G75*
G02*
X128645000Y-90625000I0J-250000D01*
G01*
X128645000Y-91375000D01*
G75*
G02*
X128395000Y-91625000I-250000J0D01*
G01*
G37*
%TD*%
%TO.C,C2*%
G36*
G01*
X127313750Y-94987500D02*
X128226250Y-94987500D01*
G75*
G02*
X128470000Y-95231250I0J-243750D01*
G01*
X128470000Y-95718750D01*
G75*
G02*
X128226250Y-95962500I-243750J0D01*
G01*
X127313750Y-95962500D01*
G75*
G02*
X127070000Y-95718750I0J243750D01*
G01*
X127070000Y-95231250D01*
G75*
G02*
X127313750Y-94987500I243750J0D01*
G01*
G37*
G36*
G01*
X127313750Y-93112500D02*
X128226250Y-93112500D01*
G75*
G02*
X128470000Y-93356250I0J-243750D01*
G01*
X128470000Y-93843750D01*
G75*
G02*
X128226250Y-94087500I-243750J0D01*
G01*
X127313750Y-94087500D01*
G75*
G02*
X127070000Y-93843750I0J243750D01*
G01*
X127070000Y-93356250D01*
G75*
G02*
X127313750Y-93112500I243750J0D01*
G01*
G37*
%TD*%
%TO.C,C1*%
G36*
G01*
X131145000Y-94775000D02*
X132395000Y-94775000D01*
G75*
G02*
X132645000Y-95025000I0J-250000D01*
G01*
X132645000Y-95775000D01*
G75*
G02*
X132395000Y-96025000I-250000J0D01*
G01*
X131145000Y-96025000D01*
G75*
G02*
X130895000Y-95775000I0J250000D01*
G01*
X130895000Y-95025000D01*
G75*
G02*
X131145000Y-94775000I250000J0D01*
G01*
G37*
G36*
G01*
X131145000Y-91975000D02*
X132395000Y-91975000D01*
G75*
G02*
X132645000Y-92225000I0J-250000D01*
G01*
X132645000Y-92975000D01*
G75*
G02*
X132395000Y-93225000I-250000J0D01*
G01*
X131145000Y-93225000D01*
G75*
G02*
X130895000Y-92975000I0J250000D01*
G01*
X130895000Y-92225000D01*
G75*
G02*
X131145000Y-91975000I250000J0D01*
G01*
G37*
%TD*%
M02*
