%TF.GenerationSoftware,KiCad,Pcbnew,(5.1.6)-1*%
%TF.CreationDate,2022-02-08T04:05:35+01:00*%
%TF.ProjectId,Thermostat,54686572-6d6f-4737-9461-742e6b696361,rev?*%
%TF.SameCoordinates,Original*%
%TF.FileFunction,Legend,Bot*%
%TF.FilePolarity,Positive*%
%FSLAX46Y46*%
G04 Gerber Fmt 4.6, Leading zero omitted, Abs format (unit mm)*
G04 Created by KiCad (PCBNEW (5.1.6)-1) date 2022-02-08 04:05:35*
%MOMM*%
%LPD*%
G01*
G04 APERTURE LIST*
%ADD10C,0.120000*%
%ADD11C,0.150000*%
G04 APERTURE END LIST*
D10*
%TO.C,U2*%
X101295000Y-85985000D02*
X79705000Y-85985000D01*
X79705000Y-85985000D02*
X79705000Y-50425000D01*
X79705000Y-50425000D02*
X101295000Y-50425000D01*
X101295000Y-50425000D02*
X101295000Y-85985000D01*
%TO.C,J1*%
X105750000Y-48500000D02*
X105750000Y-50500000D01*
X107000000Y-48500000D02*
X105750000Y-48500000D01*
X112750000Y-68340000D02*
X112750000Y-67590000D01*
X108450000Y-68340000D02*
X112750000Y-68340000D01*
X108450000Y-67590000D02*
X108450000Y-68340000D01*
X108100000Y-67590000D02*
X108450000Y-67590000D01*
X108100000Y-68090000D02*
X108100000Y-67590000D01*
X107100000Y-68340000D02*
X108100000Y-68090000D01*
X107100000Y-65340000D02*
X107100000Y-68340000D01*
X108100000Y-65590000D02*
X107100000Y-65340000D01*
X108100000Y-66090000D02*
X108100000Y-65590000D01*
X108450000Y-66090000D02*
X108100000Y-66090000D01*
X108450000Y-65340000D02*
X108450000Y-66090000D01*
X112750000Y-65340000D02*
X108450000Y-65340000D01*
X112750000Y-66090000D02*
X112750000Y-65340000D01*
X112750000Y-64530000D02*
X112750000Y-63780000D01*
X108450000Y-64530000D02*
X112750000Y-64530000D01*
X108450000Y-63780000D02*
X108450000Y-64530000D01*
X108100000Y-63780000D02*
X108450000Y-63780000D01*
X108100000Y-64280000D02*
X108100000Y-63780000D01*
X107100000Y-64530000D02*
X108100000Y-64280000D01*
X107100000Y-61530000D02*
X107100000Y-64530000D01*
X108100000Y-61780000D02*
X107100000Y-61530000D01*
X108100000Y-62280000D02*
X108100000Y-61780000D01*
X108450000Y-62280000D02*
X108100000Y-62280000D01*
X108450000Y-61530000D02*
X108450000Y-62280000D01*
X112750000Y-61530000D02*
X108450000Y-61530000D01*
X112750000Y-62280000D02*
X112750000Y-61530000D01*
X112750000Y-60720000D02*
X112750000Y-59970000D01*
X108450000Y-60720000D02*
X112750000Y-60720000D01*
X108450000Y-59970000D02*
X108450000Y-60720000D01*
X108100000Y-59970000D02*
X108450000Y-59970000D01*
X108100000Y-60470000D02*
X108100000Y-59970000D01*
X107100000Y-60720000D02*
X108100000Y-60470000D01*
X107100000Y-57720000D02*
X107100000Y-60720000D01*
X108100000Y-57970000D02*
X107100000Y-57720000D01*
X108100000Y-58470000D02*
X108100000Y-57970000D01*
X108450000Y-58470000D02*
X108100000Y-58470000D01*
X108450000Y-57720000D02*
X108450000Y-58470000D01*
X112750000Y-57720000D02*
X108450000Y-57720000D01*
X112750000Y-58470000D02*
X112750000Y-57720000D01*
X112750000Y-56910000D02*
X112750000Y-56160000D01*
X108450000Y-56910000D02*
X112750000Y-56910000D01*
X108450000Y-56160000D02*
X108450000Y-56910000D01*
X108100000Y-56160000D02*
X108450000Y-56160000D01*
X108100000Y-56660000D02*
X108100000Y-56160000D01*
X107100000Y-56910000D02*
X108100000Y-56660000D01*
X107100000Y-53910000D02*
X107100000Y-56910000D01*
X108100000Y-54160000D02*
X107100000Y-53910000D01*
X108100000Y-54660000D02*
X108100000Y-54160000D01*
X108450000Y-54660000D02*
X108100000Y-54660000D01*
X108450000Y-53910000D02*
X108450000Y-54660000D01*
X112750000Y-53910000D02*
X108450000Y-53910000D01*
X112750000Y-54660000D02*
X112750000Y-53910000D01*
X112750000Y-53100000D02*
X112750000Y-52350000D01*
X108450000Y-53100000D02*
X112750000Y-53100000D01*
X108450000Y-52350000D02*
X108450000Y-53100000D01*
X108100000Y-52350000D02*
X108450000Y-52350000D01*
X108100000Y-52850000D02*
X108100000Y-52350000D01*
X107100000Y-53100000D02*
X108100000Y-52850000D01*
X107100000Y-50100000D02*
X107100000Y-53100000D01*
X108100000Y-50350000D02*
X107100000Y-50100000D01*
X108100000Y-50850000D02*
X108100000Y-50350000D01*
X108450000Y-50850000D02*
X108100000Y-50850000D01*
X108450000Y-50100000D02*
X108450000Y-50850000D01*
X112750000Y-50100000D02*
X108450000Y-50100000D01*
X112750000Y-50850000D02*
X112750000Y-50100000D01*
X106140000Y-69550000D02*
X106140000Y-48890000D01*
X113610000Y-69550000D02*
X106140000Y-69550000D01*
X113610000Y-48890000D02*
X113610000Y-69550000D01*
X106140000Y-48890000D02*
X113610000Y-48890000D01*
X112749845Y-67589647D02*
G75*
G02*
X112750000Y-66090000I1700155J749647D01*
G01*
X112749845Y-63779647D02*
G75*
G02*
X112750000Y-62280000I1700155J749647D01*
G01*
X112749845Y-59969647D02*
G75*
G02*
X112750000Y-58470000I1700155J749647D01*
G01*
X112749845Y-56159647D02*
G75*
G02*
X112750000Y-54660000I1700155J749647D01*
G01*
X112749845Y-52349647D02*
G75*
G02*
X112750000Y-50850000I1700155J749647D01*
G01*
%TO.C,U2*%
D11*
X91261904Y-68157380D02*
X91261904Y-68966904D01*
X91214285Y-69062142D01*
X91166666Y-69109761D01*
X91071428Y-69157380D01*
X90880952Y-69157380D01*
X90785714Y-69109761D01*
X90738095Y-69062142D01*
X90690476Y-68966904D01*
X90690476Y-68157380D01*
X90261904Y-68252619D02*
X90214285Y-68205000D01*
X90119047Y-68157380D01*
X89880952Y-68157380D01*
X89785714Y-68205000D01*
X89738095Y-68252619D01*
X89690476Y-68347857D01*
X89690476Y-68443095D01*
X89738095Y-68585952D01*
X90309523Y-69157380D01*
X89690476Y-69157380D01*
%TO.C,J1*%
X104502380Y-58886666D02*
X105216666Y-58886666D01*
X105359523Y-58839047D01*
X105454761Y-58743809D01*
X105502380Y-58600952D01*
X105502380Y-58505714D01*
X105502380Y-59886666D02*
X105502380Y-59315238D01*
X105502380Y-59600952D02*
X104502380Y-59600952D01*
X104645238Y-59505714D01*
X104740476Y-59410476D01*
X104788095Y-59315238D01*
%TD*%
M02*
